<svg width="856" height="404" viewBox="0 0 856 404" fill="none" xmlns="http://www.w3.org/2000/svg">
<path d="M281.744 65.3003C279.774 64.0185 259.516 68.6992 255.825 69.4175C239.727 72.5514 226.246 81.7238 213.831 91.9503C207.518 97.1502 201.661 101.694 196.242 107.903C207.353 105.362 205.221 105.975 215.796 100.774L216.927 102.199C195.86 134.957 180.361 170.521 165.272 206.286C165.603 201.852 164.862 189.719 164.658 184.896L163.406 150.344L162.18 107.682C161.884 97.9904 162.072 87.4931 159.831 78.0132C157.968 70.1347 152.493 73.0465 147.553 76.27C138.466 82.1995 128.105 86.7739 119.184 92.9782C117.258 94.2966 115.507 95.854 113.972 97.6117C109.757 102.492 101.088 120.452 97.8593 127.041C86.0502 150.877 74.7214 174.947 63.8791 199.238C60.8664 205.924 57.9656 212.661 55.1786 219.445C53.9857 222.417 51.1693 230.201 49.8587 232.65L49.7314 232.884C47.8412 236.413 33.8972 242.515 33.0402 246.788C34.2919 247.438 41.1641 246.307 42.7176 245.725C46.1335 244.446 49.4873 242.521 52.8386 241.018C59.5129 238.099 66.3096 235.469 73.2097 233.133C76.8455 231.935 83.517 230.875 86.1959 228.681L86.4423 228.466L86.4594 227.778C83.5842 226.15 67.0358 230.125 62.732 230.971L98.1792 167.138C104.301 156.181 111.068 143.298 117.578 132.749C115.876 142.444 114.636 158.391 113.728 168.405L109.022 219.292L108.592 223.796C105.849 252.055 94.8001 362.351 103.006 369.981C108.736 371.193 158.673 333.027 169.067 325.64L169.946 325.024C172.945 322.963 173.997 310.553 174.811 306.307C176.418 298.172 178.347 290.103 180.592 282.121C189.214 251.681 200.601 219.767 210.679 189.719C221.68 156.915 233.637 123.301 249.14 92.385C250.475 89.7234 254.366 81.5221 256.461 79.9481L256.668 79.7958C262.134 75.7088 275.643 70.7644 281.515 66.8776C281.988 66.565 281.804 65.8242 281.744 65.3003Z" fill="black"/>
<path fill-rule="evenodd" clip-rule="evenodd" d="M545.278 71.2037C543.157 68.2944 517.891 68.6419 513.193 68.8162C507.253 69.3157 485.421 70.292 481.313 73.2166L481.069 73.9282C482.289 75.3838 484.948 75.6493 486.856 76.028C475.809 83.4699 464.096 96.3605 454.913 106.034C447.753 113.575 440.478 120.885 433.534 128.644C425.771 111.91 417.697 93.9418 408.62 77.9612C411.063 77.1868 417.564 75.9741 418.72 74.4848L418.331 73.9076C417.089 73.7853 416.291 74.0185 415.086 74.2616C406.714 75.9501 397.392 76.3824 390.285 81.6464C389.428 82.2808 388.769 83.0496 388.452 84.0725C389.453 87.9687 395.864 84.2282 397.706 82.4898C401.973 103.006 407.74 128.151 413.845 148.258C400.138 162.724 384.358 176.251 369.731 189.83C364.165 194.997 358.341 198.583 351.597 201.94C325.026 216.743 275.898 236.76 263.043 194.973L262.747 193.975C259.245 181.779 262.657 168.988 267.88 157.931C290.663 151.561 309.558 142.646 328.82 129.426C343.937 119.05 362.769 107.758 371.722 91.4681C385.699 66.0341 352.731 68.7948 338.905 73.6907C320.646 80.1564 307.415 90.9106 291.391 101.218C271.542 115.3 254.932 135.852 243.091 156.879L242.181 158.545C232.775 175.579 223.275 187.111 221.392 207.415C220.622 215.049 221.423 222.759 223.745 230.072L223.977 230.783C243.999 290.563 341.686 219.03 369.427 198.717L369.55 198.626C385.214 187.157 403.776 175.27 417.487 161.47C419.995 173.553 424.878 189.155 428.143 201.518C436.712 232.696 444.75 264.018 452.253 295.469C454.063 303.435 455.771 311.425 457.372 319.436C458.325 324.301 459.639 332.603 461.248 337.216C450.743 344.806 446.049 350.845 437.22 358.818C441.386 358.071 446.033 357.981 449.924 356.283C462.066 350.983 557.019 296.129 561.343 289.267C561.834 288.486 561.634 287.923 561.488 287.081C558.581 284.721 546.876 288.397 542.942 289.224C534.526 290.991 521.715 292.041 514.464 296.74C510.007 288.13 505.08 279.795 500.619 271.198C478.629 228.812 459.414 184.908 439.447 141.55C446.93 135.945 451.431 130.209 457.86 124.057C466.331 115.95 474.027 108.428 482.029 99.7967C489.308 91.9491 495.768 86.2062 501.492 76.8562C505.749 77.054 509.302 76.4037 513.315 76.5237C510.357 81.4967 505.576 87.4221 503.219 92.2523C492.101 115.051 484.036 146.68 490.827 171.623C494.277 184.308 503.51 204.701 515.215 211.631C523.714 216.664 535.513 215.862 544.499 213.439C566.02 207.639 583.635 195.545 598.141 178.81C602.508 173.773 606.623 170.13 610.145 164.027C616.137 153.651 615.803 141.306 612.6 130.092C607.419 111.954 595.93 90.8731 585.216 75.4545C588.911 75.2362 591.641 74.8119 595.182 73.6154C587.03 71.7806 568.291 70.5426 560.548 73.2811L560.064 73.7956C562.094 74.7882 570.966 74.8564 573.515 74.7321C574.92 81.1254 579.098 89.969 581.554 96.3328C590.418 119.327 605.455 151.786 594.738 176.053C590.689 178.246 585.606 181.121 581.408 182.798C571.435 186.784 557.711 188.717 547.125 185.979L546.624 185.845C533.999 182.369 524.391 167.699 518.285 156.742C506.462 135.514 508.976 113.954 513.383 91.2342C514.311 86.4544 516.192 81.1205 516.994 76.5461C522.503 76.9526 540.478 74.2386 544.802 71.8328L545.278 71.2037ZM343.4 93.9641C337.779 90.8938 334.347 91.0002 328.401 91.1845C328.052 91.1954 327.694 91.2064 327.326 91.2172C324.406 91.6397 321.543 92.2132 318.689 92.7851C316.16 93.2918 313.638 93.7973 311.086 94.1953C291.436 111.376 283.023 128.115 271.737 150.569C271.529 150.983 271.32 151.399 271.11 151.817C272.968 151.093 275.212 150.323 277.455 149.553C280.332 148.566 283.209 147.579 285.273 146.688C286.721 146.112 288.197 145.532 289.693 144.943C310.291 136.846 334.801 127.21 344.243 106.172C346.228 101.748 346.245 97.9778 343.4 93.9641Z" fill="black"/>
<path d="M384.088 106.305C378.292 114.675 370.989 121.46 364.028 127.013C355.625 133.717 346.076 139.844 339.207 144.558C320.817 157.181 302.557 166.269 281.572 172.986C279.522 179.262 279.152 184.6 280.389 188.909L280.58 189.555C282.583 196.093 285.311 198.479 287.256 199.602C289.711 201.017 293.753 201.998 300.154 201.432C313.454 200.255 329.763 193.093 342.663 185.905L343.038 185.702C343.164 185.636 343.291 185.571 343.418 185.508C349.195 182.632 353.38 179.966 357.244 176.379C369.835 164.69 382 154.137 393.229 143.06C389.944 131.23 386.839 118.477 384.088 106.305Z" fill="black"/>
<path d="M550.427 89.4149C547.921 90.4087 545.452 91.0557 543.8 91.4627C540.811 92.1995 537.479 92.8431 534.281 93.3618C533.431 93.4999 532.533 93.637 531.604 93.7714C531.529 94.1052 531.46 94.4245 531.4 94.7348C527.055 117.143 525.96 132.8 534.32 147.811C537.153 152.894 540.361 158.02 543.878 162.077C547.572 166.337 550.216 167.797 551.496 168.15C557.22 169.726 567.009 168.787 574.597 165.754L575.155 165.524C576.454 164.972 577.912 164.249 579.534 163.399C580.658 157.413 580.097 149.765 577.689 140.194C574.519 127.595 569.225 115.378 564.428 102.934C563.171 99.6766 562.063 97.2482 560.18 92.5651C558.962 92.4144 555.384 91.9385 552.001 90.2842C551.459 90.0193 550.935 89.7281 550.427 89.4149Z" fill="black"/>
<path d="M470.551 137.317L470.55 137.318C468.371 139.402 465.359 142.671 461.783 146.226C464.78 152.783 467.759 159.324 470.73 165.848C470.741 165.873 470.753 165.897 470.764 165.921C470.768 165.932 470.773 165.942 470.777 165.952L471.056 166.563C469.609 156.879 469.696 146.872 470.859 137.021C470.756 137.119 470.654 137.219 470.551 137.317Z" fill="black"/>
<path d="M445.011 78.3806C444.405 78.5701 443.878 78.7171 443.453 78.8296C440.902 79.5056 438.333 79.8971 436.18 80.1435C435.569 82.0328 434.644 83.842 433.408 85.4912C435.228 89.1117 437.005 92.7576 438.743 96.3893C439.713 95.3777 440.669 94.3793 441.603 93.395C445.006 89.8103 449.227 85.2447 453.919 80.4921C450.949 80.1792 447.928 79.525 445.011 78.3806Z" fill="black"/>
<path d="M495.044 218.489C500.736 230.494 506.539 242.414 512.543 254.233C512.752 253.989 512.968 253.748 513.192 253.513C515.589 250.987 517.803 247.986 521.211 243.512C523.427 240.603 526.119 237.121 529.293 233.68C521.847 233.511 513.877 231.966 506.567 227.832L505.864 227.425C501.792 225.014 498.195 221.899 495.044 218.489Z" fill="black"/>
<path d="M685.147 70.9644C683.813 70.9357 680.602 70.8728 679.359 71.1419C675.405 71.8089 671.451 72.1912 667.595 73.3609C653.561 77.6165 641.671 88.6664 633.35 100.383C627.196 109.045 621.669 120.798 623.569 131.706C626.874 150.691 666.742 186.376 682.361 198.999C693.794 208.237 706.058 216.343 717.263 225.889C727.874 234.93 742.778 249.344 750.832 260.514C760.75 274.281 766.325 290.72 771.274 306.763C737.533 308.702 711.472 299.948 680.618 287.36C672.293 283.964 663.712 280.516 655.52 276.811C652.518 275.453 649.129 272.976 646.078 271.316L645.472 270.996C635.888 266.07 626.646 260.531 617.184 255.364C614.654 253.983 611.234 250.987 608.563 249.316C599.931 243.918 589.171 238.19 581.538 231.467L581.259 231.217C584.666 229.115 600.128 219.901 600.974 217.063C600.372 214.553 597.751 214.107 595.788 215.172C579.48 224.026 559.435 230.382 545.767 243.114C538.378 249.998 533.034 259.27 526.503 266.149C536.666 261.974 544.964 255.246 554.332 249.295C556.299 253.865 559.698 259.476 562.193 263.867C573.402 283.587 586.039 297.827 603.609 312.227C627.114 333.553 668.992 359.144 700.117 367.623C711.124 370.62 735.654 370.698 746.997 367.849L747.526 367.711C767.23 362.4 787.02 347.495 800.566 332.376C814.592 316.925 824.397 298.562 822.583 277.116C821.212 251.49 803.737 219.267 785.34 201.124L784.463 200.271C776.386 192.512 753.991 178.594 743.006 172.332C715.736 156.293 669.008 140.803 662.673 105.448C662.15 102.533 664.499 90.0585 665.589 89.7286C681.605 84.89 703.292 94.9539 713.608 106.947L714.748 108.279C720.132 114.606 720.931 116.103 724.251 119.722C722.504 121.406 718.121 125.184 717.783 127.329C720.513 129.318 724.864 125.818 727.63 124.683C740.231 119.516 751.524 109.884 759.079 98.5285L759.798 97.4244L759.853 97.3374C760.372 96.5117 760.768 95.8832 760.633 94.8738L760.597 94.6587C757.827 92.25 751.202 98.0443 749.073 100.059C745.772 96.6052 740.354 91.1484 736.683 88.3582C722.378 77.477 703.072 71.3523 685.147 70.9644Z" fill="black"/>
<path d="M626.952 171.555C626.66 172.105 626.357 172.653 626.042 173.199L626.043 173.2C621.352 181.329 614.7 187.729 612.01 190.831C609.958 193.198 607.843 195.492 605.664 197.709C612.068 200.157 617.099 205.597 618.822 212.781C619.576 215.923 619.487 219.209 618.564 222.305C617.249 226.717 614.567 229.744 613.532 230.833C614.459 231.393 615.408 231.968 616.376 232.564L618.295 233.754L618.298 233.756C620.476 235.118 622.8 236.909 623.952 237.775C624.689 238.329 625.216 238.718 625.651 239.022C625.657 239.026 625.663 239.03 625.668 239.034C625.9 239.195 626.029 239.279 626.072 239.306L626.075 239.308L626.078 239.309C626.08 239.31 626.081 239.312 626.084 239.313L626.085 239.314C636.517 245.014 644.415 249.816 653.857 254.669C656.313 255.93 658.837 257.548 660.207 258.402C661.571 259.252 662.322 259.691 662.751 259.92L663.083 260.087L663.085 260.087C668.935 262.733 675.003 265.247 681.248 267.797L687.551 270.365C708.71 278.998 726.279 285.224 745.022 287.608C742.422 281.64 739.491 276.175 735.943 271.248C729.179 261.866 715.594 248.58 705.36 239.862C700.272 235.527 694.845 231.435 688.96 227.069C683.216 222.807 676.911 218.194 670.825 213.276L670.824 213.274C662.565 206.599 648.087 193.997 635.094 180.436C632.338 177.56 629.593 174.581 626.952 171.555Z" fill="black"/>
<path d="M536.517 30.9652C531.457 32.3058 519.878 37.739 526.24 44.3413C530.792 49.0614 535.624 50.0805 539.342 55.9931C534.424 54.3549 533.337 53.024 529.084 50.6193C526.055 51.7442 521.109 54.0415 521.542 57.8034C522.761 59.5677 524.741 59.7651 526.857 60.2842C529.714 60.8261 532.708 61.4661 535.584 60.6722C538.869 59.766 545.25 56.4607 545.782 52.7935C546.872 45.2722 531.154 41.9622 530.772 36.2332C533.353 30.8378 539.857 36.0077 542.914 33.826C541.978 31.5255 538.665 31.0795 536.517 30.9652Z" fill="black"/>
<path d="M516.837 27.5793C511.317 32.1554 510.27 40.8604 508.81 47.7192C504.675 43.6433 500.501 39.4055 496.276 35.4293C491.09 30.5442 490.94 35.1329 489.488 33.8484L489.264 31.9233L488.706 31.6705C484.543 33.7988 484.595 48.746 483.804 53.1735C483.576 54.4358 483.252 59.3745 483.74 60.337C484.531 60.3594 484.594 60.3913 485.283 60.0538C486.498 59.2117 487.942 58.27 489.107 57.3992C490.523 52.7349 490.724 45.7053 491.051 40.6569C495.087 45.4475 503.204 56.0501 507.276 59.6774C509.837 57.9779 514.059 55.3602 516.364 53.5455C517.458 47.8755 519.543 32.9393 517.395 27.8849L516.837 27.5793Z" fill="black"/>
<path fill-rule="evenodd" clip-rule="evenodd" d="M478.539 48.8009C483.764 38.6594 475.112 29.6156 464.619 31.3793L464.442 31.4671C462.086 32.6251 459.096 32.349 458.474 32.7353C446.616 40.0895 437.2 63.7142 460.291 62.3132C466.775 60.1716 475.325 55.0431 478.539 48.8009ZM463.494 35.7681C461.727 35.4513 459.68 35.6139 457.75 35.7671C457.35 35.7989 456.955 35.8302 456.569 35.8568C454.162 38.144 452.1 43.9344 452.069 47.2209C451.982 55.7858 461.035 56.4824 467.444 56.4152C469.986 54.9497 471.378 52.3964 472.157 49.4587C473.81 43.1993 469.942 36.9248 463.494 35.7681Z" fill="black"/>
<path fill-rule="evenodd" clip-rule="evenodd" d="M626.078 239.309L626.075 239.308L626.072 239.306C626.074 239.307 626.076 239.308 626.078 239.309ZM626.002 239.268C626.011 239.273 626.02 239.277 626.028 239.282L626.028 239.282C626.021 239.278 626.012 239.273 626.002 239.268ZM328.401 91.1845C328.052 91.1954 327.694 91.2064 327.326 91.2172C324.406 91.6397 321.543 92.2132 318.689 92.7851C316.16 93.2918 313.638 93.7973 311.086 94.1953C291.436 111.376 283.023 128.115 271.737 150.569C271.529 150.983 271.32 151.399 271.11 151.817C272.968 151.093 275.212 150.323 277.455 149.553C280.332 148.566 283.209 147.579 285.273 146.688C286.721 146.112 288.197 145.532 289.693 144.943C310.291 136.846 334.801 127.21 344.243 106.172C346.228 101.748 346.245 97.9778 343.4 93.9641C337.779 90.8938 334.347 91.0002 328.401 91.1845ZM457.75 35.7671C457.35 35.7989 456.955 35.8302 456.569 35.8568C454.162 38.144 452.1 43.9344 452.069 47.2209C451.982 55.7858 461.035 56.4824 467.444 56.4152C469.986 54.9497 471.378 52.3964 472.157 49.4587C473.81 43.1993 469.942 36.9248 463.494 35.7681C461.727 35.4513 459.68 35.6139 457.75 35.7671ZM348.172 56.011C354.119 53.1984 354.561 31.4176 339.06 31.2762C334.137 38.1956 332.612 47.6334 340.34 53.5338C342.614 55.2695 344.834 55.5654 347.496 55.9201C347.718 55.9497 347.943 55.9797 348.172 56.011ZM382.395 37.9271C380.352 32.8292 375.885 31.2718 370.954 30.492C370.146 35.4396 369.918 40.8951 369.707 45.9245L369.696 46.1893C372.883 44.0548 374.548 43.6773 378.322 42.9056C380.458 42.4164 383.416 40.4762 382.395 37.9271Z" fill="black"/>
<path fill-rule="evenodd" clip-rule="evenodd" d="M255.825 69.4175C259.516 68.6992 279.774 64.0185 281.744 65.3003C281.804 65.8242 281.988 66.565 281.515 66.8776C275.643 70.7644 262.134 75.7088 256.668 79.7958L256.461 79.9481C254.366 81.5221 250.475 89.7234 249.14 92.385C233.637 123.301 221.68 156.915 210.679 189.719C200.601 219.767 189.214 251.681 180.592 282.121C178.347 290.103 176.418 298.172 174.811 306.307C173.997 310.553 172.945 322.963 169.946 325.024L169.067 325.64C158.673 333.027 108.736 371.193 103.006 369.981C94.8001 362.351 105.849 252.055 108.592 223.796L109.022 219.292L113.728 168.405C114.636 158.391 115.876 142.444 117.578 132.749C111.068 143.298 104.301 156.181 98.1792 167.138L62.732 230.971C67.0358 230.125 83.5842 226.15 86.4594 227.778L86.4423 228.466L86.1959 228.681C83.517 230.875 76.8455 231.935 73.2097 233.133C66.3096 235.469 59.5129 238.099 52.8386 241.018C49.4873 242.521 46.1335 244.446 42.7176 245.725C41.1641 246.307 34.2919 247.438 33.0402 246.788C33.8972 242.515 47.8412 236.413 49.7314 232.884L49.8587 232.65C51.1693 230.201 53.9857 222.417 55.1786 219.445C57.9656 212.661 60.8664 205.924 63.8791 199.238C74.7214 174.947 86.0502 150.877 97.8593 127.041C101.088 120.452 109.757 102.492 113.972 97.6117C115.507 95.854 117.258 94.2966 119.184 92.9782C128.105 86.7739 138.466 82.1995 147.553 76.27C152.493 73.0465 157.968 70.1347 159.831 78.0132C162.072 87.4931 161.884 97.9904 162.18 107.682L163.406 150.344L164.658 184.896C164.862 189.719 165.603 201.852 165.272 206.286C180.361 170.521 195.86 134.957 216.927 102.199L215.796 100.774C205.221 105.975 207.353 105.362 196.242 107.903C201.661 101.694 207.518 97.1502 213.831 91.9503C226.246 81.7238 239.727 72.5514 255.825 69.4175ZM679.359 71.1419C680.602 70.8728 683.813 70.9357 685.147 70.9644C703.072 71.3523 722.378 77.477 736.683 88.3582C740.354 91.1484 745.772 96.6052 749.073 100.059C751.202 98.0443 757.827 92.25 760.597 94.6587L760.633 94.8738C760.768 95.8832 760.372 96.5117 759.853 97.3374L759.798 97.4244L759.079 98.5285C751.524 109.884 740.231 119.516 727.63 124.683C724.864 125.818 720.513 129.318 717.783 127.329C718.121 125.184 722.504 121.406 724.251 119.722C720.931 116.103 720.132 114.606 714.748 108.279L713.608 106.947C703.292 94.9539 681.605 84.89 665.589 89.7286C664.499 90.0585 662.15 102.533 662.673 105.448C669.008 140.803 715.736 156.293 743.006 172.332C753.991 178.594 776.386 192.512 784.463 200.271L785.34 201.124C803.737 219.267 821.212 251.49 822.583 277.116C824.397 298.562 814.592 316.925 800.566 332.376C787.02 347.495 767.23 362.4 747.526 367.711L746.997 367.849C735.654 370.698 711.124 370.62 700.117 367.623C668.992 359.144 627.114 333.553 603.609 312.227C586.039 297.827 573.402 283.587 562.193 263.867C559.698 259.476 556.299 253.865 554.332 249.295C544.964 255.246 536.666 261.974 526.503 266.149C533.034 259.27 538.378 249.998 545.767 243.114C559.435 230.382 579.48 224.026 595.788 215.172C597.751 214.107 600.372 214.553 600.974 217.063C600.128 219.901 584.666 229.115 581.259 231.217L581.538 231.467C589.171 238.19 599.931 243.918 608.563 249.316C611.234 250.987 614.654 253.983 617.184 255.364C626.646 260.531 635.888 266.07 645.472 270.996L646.078 271.316C649.129 272.976 652.518 275.453 655.52 276.811C663.712 280.516 672.293 283.964 680.618 287.36C711.472 299.948 737.533 308.702 771.274 306.763C766.325 290.72 760.75 274.281 750.832 260.514C742.778 249.344 727.874 234.93 717.263 225.889C706.058 216.343 693.794 208.237 682.361 198.999C666.742 186.376 626.874 150.691 623.569 131.706C621.669 120.798 627.196 109.045 633.35 100.383C641.671 88.6664 653.561 77.6165 667.595 73.3609C671.451 72.1912 675.405 71.8089 679.359 71.1419ZM513.193 68.8162C517.891 68.6419 543.157 68.2944 545.278 71.2037L544.802 71.8328C540.478 74.2386 522.503 76.9526 516.994 76.5461C516.192 81.1205 514.311 86.4544 513.383 91.2342C508.976 113.954 506.462 135.514 518.285 156.742C524.391 167.699 533.999 182.369 546.624 185.845L547.125 185.979C557.711 188.717 571.435 186.784 581.408 182.798C585.606 181.121 590.689 178.246 594.738 176.053C605.455 151.786 590.418 119.327 581.554 96.3328C579.098 89.969 574.92 81.1254 573.515 74.7321C570.966 74.8564 562.094 74.7882 560.064 73.7956L560.548 73.2811C568.291 70.5426 587.03 71.7806 595.182 73.6154C591.641 74.8119 588.911 75.2362 585.216 75.4545C595.93 90.8731 607.419 111.954 612.6 130.092C615.803 141.306 616.137 153.651 610.145 164.027C606.623 170.13 602.508 173.773 598.141 178.81C583.635 195.545 566.02 207.639 544.499 213.439C535.513 215.862 523.714 216.664 515.215 211.631C503.51 204.701 494.277 184.308 490.827 171.623C484.036 146.68 492.101 115.051 503.219 92.2523C505.576 87.4221 510.357 81.4967 513.315 76.5237C509.302 76.4037 505.749 77.054 501.492 76.8562C495.768 86.2062 489.308 91.9491 482.029 99.7967C474.027 108.428 466.331 115.95 457.86 124.057C451.431 130.209 446.93 135.945 439.447 141.55C459.414 184.908 478.629 228.812 500.619 271.198C505.08 279.795 510.007 288.13 514.464 296.74C521.715 292.041 534.526 290.991 542.942 289.224C546.876 288.397 558.581 284.721 561.488 287.081C561.634 287.923 561.834 288.486 561.343 289.267C557.019 296.129 462.066 350.983 449.924 356.283C446.033 357.981 441.386 358.071 437.22 358.818C446.049 350.845 450.743 344.806 461.248 337.216C459.639 332.603 458.325 324.301 457.372 319.436C455.771 311.425 454.063 303.435 452.253 295.469C444.75 264.018 436.712 232.696 428.143 201.518C424.878 189.155 419.995 173.553 417.487 161.47C403.776 175.27 385.214 187.157 369.55 198.626L369.427 198.717C341.686 219.03 243.999 290.563 223.977 230.783L223.745 230.072C221.423 222.759 220.622 215.049 221.392 207.415C223.275 187.111 232.775 175.579 242.181 158.545L243.091 156.879C254.932 135.852 271.542 115.3 291.391 101.218C307.415 90.9106 320.646 80.1564 338.905 73.6907C352.731 68.7948 385.699 66.0341 371.722 91.4681C362.769 107.758 343.937 119.05 328.82 129.426C309.558 142.646 290.663 151.561 267.88 157.931C262.657 168.988 259.245 181.779 262.747 193.975L263.043 194.973C275.898 236.76 325.026 216.743 351.597 201.94C358.341 198.583 364.165 194.997 369.731 189.83C384.358 176.251 400.138 162.724 413.845 148.258C407.74 128.151 401.973 103.006 397.706 82.4898C395.864 84.2282 389.453 87.9687 388.452 84.0725C388.769 83.0496 389.428 82.2808 390.285 81.6464C397.392 76.3824 406.714 75.9501 415.086 74.2616C416.291 74.0185 417.089 73.7853 418.331 73.9076L418.72 74.4848C417.564 75.9741 411.063 77.1868 408.62 77.9612C417.697 93.9418 425.771 111.91 433.534 128.644C440.478 120.885 447.753 113.575 454.913 106.034C464.096 96.3605 475.809 83.4699 486.856 76.028C484.948 75.6493 482.289 75.3838 481.069 73.9282L481.313 73.2166C485.421 70.292 507.253 69.3157 513.193 68.8162ZM626.042 173.199C626.357 172.653 626.66 172.105 626.952 171.555C629.593 174.581 632.338 177.56 635.094 180.436C648.087 193.997 662.565 206.599 670.824 213.274L670.825 213.276C676.911 218.194 683.216 222.807 688.96 227.069C694.845 231.435 700.272 235.527 705.36 239.862C715.594 248.58 729.179 261.866 735.943 271.248C739.491 276.175 742.422 281.64 745.022 287.608C726.279 285.224 708.71 278.998 687.551 270.365L681.248 267.797C675.003 265.247 668.935 262.733 663.085 260.087L663.083 260.087L662.751 259.92C662.322 259.691 661.571 259.252 660.207 258.402C658.837 257.548 656.313 255.93 653.857 254.669C644.415 249.816 636.517 245.014 626.085 239.314L626.084 239.313C626.081 239.312 626.08 239.31 626.078 239.309C626.076 239.308 626.074 239.307 626.072 239.306L626.068 239.305C626.06 239.3 626.051 239.295 626.043 239.29C626.053 239.296 626.062 239.301 626.068 239.305L626.072 239.306L626.075 239.308C626.037 239.283 625.907 239.2 625.668 239.034C625.663 239.03 625.657 239.026 625.651 239.022C625.216 238.718 624.689 238.329 623.952 237.775C622.8 236.909 620.476 235.118 618.298 233.756L618.295 233.754L616.376 232.564C615.408 231.968 614.459 231.393 613.532 230.833C614.567 229.744 617.249 226.717 618.564 222.305C619.487 219.209 619.576 215.923 618.822 212.781C617.099 205.597 612.068 200.157 605.664 197.709C607.843 195.492 609.958 193.198 612.01 190.831C614.7 187.729 621.352 181.329 626.043 173.2L626.042 173.199ZM512.543 254.233C506.539 242.414 500.736 230.494 495.044 218.489C498.195 221.899 501.792 225.014 505.864 227.425L506.567 227.832C513.877 231.966 521.847 233.511 529.293 233.68C526.119 237.121 523.427 240.603 521.211 243.512C517.803 247.986 515.589 250.987 513.192 253.513C512.968 253.748 512.752 253.989 512.543 254.233ZM364.028 127.013C370.989 121.46 378.292 114.675 384.088 106.305C386.839 118.477 389.944 131.23 393.229 143.06C382 154.137 369.835 164.69 357.244 176.379C353.38 179.966 349.195 182.632 343.418 185.508C343.291 185.571 343.164 185.636 343.038 185.702L342.663 185.905C329.763 193.093 313.454 200.255 300.154 201.432C293.753 201.998 289.711 201.017 287.256 199.602C285.311 198.479 282.583 196.093 280.58 189.555L280.389 188.909C279.152 184.6 279.522 179.262 281.572 172.986C302.557 166.269 320.817 157.181 339.207 144.558C346.076 139.844 355.625 133.717 364.028 127.013ZM543.8 91.4627C545.452 91.0557 547.921 90.4087 550.427 89.4149C550.935 89.7281 551.459 90.0193 552.001 90.2842C555.384 91.9385 558.962 92.4144 560.18 92.5651C562.063 97.2482 563.171 99.6766 564.428 102.934C569.225 115.378 574.519 127.595 577.689 140.194C580.097 149.765 580.658 157.413 579.534 163.399C577.912 164.249 576.454 164.972 575.155 165.524L574.597 165.754C567.009 168.787 557.22 169.726 551.496 168.15C550.216 167.797 547.572 166.337 543.878 162.077C540.361 158.02 537.153 152.894 534.32 147.811C525.96 132.8 527.055 117.143 531.4 94.7348C531.46 94.4245 531.529 94.1052 531.604 93.7714C532.533 93.637 533.431 93.4999 534.281 93.3618C537.479 92.8431 540.811 92.1995 543.8 91.4627ZM470.55 137.318L470.551 137.317C470.654 137.219 470.756 137.119 470.859 137.021C469.696 146.872 469.609 156.879 471.056 166.563L470.777 165.952L470.764 165.921C470.753 165.897 470.741 165.873 470.73 165.848C467.759 159.324 464.78 152.783 461.783 146.226C465.359 142.671 468.371 139.402 470.55 137.318ZM184.195 121.752C183.154 123.689 182.128 125.632 181.114 127.578L180.835 117.878C181.784 119.344 182.919 120.642 184.195 121.752ZM699.432 126.919C690.958 120.706 685.438 114.62 682.609 108.253C683.395 108.503 684.208 108.79 685.046 109.118C691.376 111.596 696.756 115.501 699.693 118.916L699.697 118.92C700.089 119.375 700.457 119.806 700.804 120.213C700.32 121.47 699.9 122.899 699.652 124.471C699.523 125.288 699.451 126.106 699.432 126.919ZM270.456 92.9066C271.677 92.2757 273.053 91.6093 274.589 90.8838C272.125 92.8338 269.718 94.8628 267.368 96.9611C267.77 96.1703 268.194 95.3493 268.644 94.5206C268.829 94.1797 269 93.8727 269.156 93.5993C269.533 93.3909 269.965 93.1603 270.456 92.9066ZM443.453 78.8296C443.878 78.7171 444.405 78.5701 445.011 78.3806C447.928 79.525 450.949 80.1792 453.919 80.4921C449.227 85.2447 445.006 89.8103 441.603 93.395C440.669 94.3793 439.713 95.3777 438.743 96.3893C437.005 92.7576 435.228 89.1117 433.408 85.4912C434.644 83.842 435.569 82.0328 436.18 80.1435C438.333 79.8971 440.902 79.5056 443.453 78.8296ZM316.096 40.3791C316.064 36.5734 315.59 28.227 317.578 25.2545C319.652 26.6956 321.974 41.3659 322.267 45.0117C322.691 50.2802 324.547 57.8954 321.028 62.3383C319.863 63.808 317.736 64.6608 316.188 63.3627C314.689 59.9668 315.297 47.687 315.548 43.6369C310.984 45.0097 302.037 45.7851 297.014 46.3865C297.922 50.1724 298.654 55.0725 298.16 58.9344C296.534 60.7853 293.447 63.939 290.862 63.308C289.177 60.4909 291.601 38.8885 291.802 34.3664C291.87 32.8481 292.07 30.444 293.343 29.4255L294.148 29.8324C295.388 31.4978 296.585 42.0013 296.971 44.698C301.328 43.3187 311.83 40.8707 316.096 40.3791ZM432.932 29.4354C435.009 29.2615 437.264 28.7817 438.952 29.9229C442.248 35.909 421.164 54.9287 416.472 59.4408C421.707 59.2858 439.164 55.7993 442.292 58.8439L442.193 59.5251C439.227 62.1704 428.568 62.3783 424.65 62.3822C420.263 62.2327 415.38 63.1866 410.651 63.2031C414.809 57.0821 434.115 40.8436 434.033 33.99C431.063 31.9892 416.727 34.9801 414.246 33.7453C416.157 31.9184 429.753 29.9449 432.932 29.4354ZM464.619 31.3793C475.112 29.6156 483.764 38.6594 478.539 48.8009C475.325 55.0431 466.775 60.1716 460.291 62.3132C437.2 63.7142 446.616 40.0895 458.474 32.7353C459.096 32.349 462.086 32.6251 464.442 31.4671L464.619 31.3793ZM398.338 61.7575C396.5 58.65 397.363 34.0297 398.369 29.7957C400.202 30.0186 400.914 30.9834 401.281 32.789C402.903 40.765 404.259 49.1054 404.911 57.2119C405.004 58.3673 403.381 59.5797 402.563 60.2994C401.058 61.226 400.022 62.0631 398.338 61.7575ZM526.24 44.3413C519.878 37.739 531.457 32.3058 536.517 30.9652C538.665 31.0795 541.978 31.5255 542.914 33.826C539.857 36.0077 533.353 30.8378 530.772 36.2332C531.154 41.9622 546.872 45.2722 545.782 52.7935C545.25 56.4607 538.869 59.766 535.584 60.6722C532.708 61.4661 529.714 60.8261 526.857 60.2842C524.741 59.7651 522.761 59.5677 521.542 57.8034C521.109 54.0415 526.055 51.7442 529.084 50.6193C533.337 53.024 534.424 54.3549 539.342 55.9931C535.624 50.0805 530.792 49.0614 526.24 44.3413ZM508.81 47.7192C510.27 40.8604 511.317 32.1554 516.837 27.5793L517.395 27.8849C519.543 32.9393 517.458 47.8755 516.364 53.5455C514.059 55.3602 509.837 57.9779 507.276 59.6774C503.204 56.0501 495.087 45.4475 491.051 40.6569C490.724 45.7053 490.523 52.7349 489.107 57.3992C487.942 58.27 486.498 59.2117 485.283 60.0538C484.594 60.3913 484.531 60.3594 483.74 60.337C483.252 59.3745 483.576 54.4358 483.804 53.1735C484.595 48.746 484.543 33.7988 488.706 31.6705L489.264 31.9233L489.488 33.8484C490.94 35.1329 491.09 30.5442 496.276 35.4293C500.501 39.4055 504.675 43.6433 508.81 47.7192Z" fill="black"/>
<path d="M438.952 29.9229C437.264 28.7817 435.009 29.2615 432.932 29.4354C429.753 29.9449 416.157 31.9184 414.246 33.7453C416.727 34.9801 431.063 31.9892 434.033 33.99C434.115 40.8436 414.809 57.0821 410.651 63.2031C415.38 63.1866 420.263 62.2327 424.65 62.3822C428.568 62.3783 439.227 62.1704 442.193 59.5251L442.292 58.8439C439.164 55.7993 421.707 59.2858 416.472 59.4408C421.164 54.9287 442.248 35.909 438.952 29.9229Z" fill="black"/>
<path d="M398.369 29.7957C397.363 34.0297 396.5 58.65 398.338 61.7575C400.022 62.0631 401.058 61.226 402.563 60.2994C403.381 59.5797 405.004 58.3673 404.911 57.2119C404.259 49.1054 402.903 40.765 401.281 32.789C400.914 30.9834 400.202 30.0186 398.369 29.7957Z" fill="black"/>
<path fill-rule="evenodd" clip-rule="evenodd" d="M382.395 37.9271C380.352 32.8292 375.885 31.2718 370.954 30.492C370.146 35.4396 369.918 40.8951 369.707 45.9245L369.696 46.1893C372.883 44.0548 374.548 43.6773 378.322 42.9056C380.458 42.4164 383.416 40.4762 382.395 37.9271Z" fill="black"/>
<path fill-rule="evenodd" clip-rule="evenodd" d="M348.172 56.011C354.119 53.1984 354.561 31.4176 339.06 31.2762C334.137 38.1956 332.612 47.6334 340.34 53.5338C342.614 55.2695 344.834 55.5654 347.496 55.9201C347.718 55.9497 347.943 55.9797 348.172 56.011Z" fill="black"/>
<path d="M317.578 25.2545C315.59 28.227 316.064 36.5734 316.096 40.3791C311.83 40.8707 301.328 43.3187 296.971 44.698C296.585 42.0013 295.388 31.4978 294.148 29.8324L293.343 29.4255C292.07 30.444 291.87 32.8481 291.802 34.3664C291.601 38.8885 289.177 60.4909 290.862 63.308C293.447 63.939 296.534 60.7853 298.16 58.9344C298.654 55.0725 297.922 50.1724 297.014 46.3865C302.037 45.7851 310.984 45.0097 315.548 43.6369C315.297 47.687 314.689 59.9668 316.188 63.3627C317.736 64.6608 319.863 63.808 321.028 62.3383C324.547 57.8954 322.691 50.2802 322.267 45.0117C321.974 41.3659 319.652 26.6956 317.578 25.2545Z" fill="black"/>
<path d="M274.589 90.8838C273.053 91.6093 271.677 92.2757 270.456 92.9066C269.965 93.1603 269.533 93.3909 269.156 93.5993C269 93.8727 268.829 94.1797 268.644 94.5206C268.194 95.3493 267.77 96.1703 267.368 96.9611C269.718 94.8628 272.125 92.8338 274.589 90.8838Z" fill="black"/>
<path d="M181.114 127.578C182.128 125.632 183.154 123.689 184.195 121.752C182.919 120.642 181.784 119.344 180.835 117.878L181.114 127.578Z" fill="black"/>
<path d="M682.609 108.253C685.438 114.62 690.958 120.706 699.432 126.919C699.451 126.106 699.523 125.288 699.652 124.471C699.9 122.899 700.32 121.47 700.804 120.213C700.457 119.806 700.089 119.375 699.697 118.92L699.693 118.916C696.756 115.501 691.376 111.596 685.046 109.118C684.208 108.79 683.395 108.503 682.609 108.253Z" fill="black"/>
<path fill-rule="evenodd" clip-rule="evenodd" d="M255.825 69.4175C259.516 68.6992 279.774 64.0185 281.744 65.3003C281.804 65.8242 281.988 66.565 281.515 66.8776C275.643 70.7644 262.134 75.7088 256.668 79.7958L256.461 79.9481C254.366 81.5221 250.475 89.7234 249.14 92.385C233.637 123.301 221.68 156.915 210.679 189.719C200.601 219.767 189.214 251.681 180.592 282.121C178.347 290.103 176.418 298.172 174.811 306.307C173.997 310.553 172.945 322.963 169.946 325.024L169.067 325.64C158.673 333.027 108.736 371.193 103.006 369.981C94.8001 362.351 105.849 252.055 108.592 223.796L109.022 219.292L113.728 168.405C114.636 158.391 115.876 142.444 117.578 132.749C111.068 143.298 104.301 156.181 98.1792 167.138L62.732 230.971C67.0358 230.125 83.5842 226.15 86.4594 227.778L86.4423 228.466L86.1959 228.681C83.517 230.875 76.8455 231.935 73.2097 233.133C66.3096 235.469 59.5129 238.099 52.8386 241.018C49.4873 242.521 46.1335 244.446 42.7176 245.725C41.1641 246.307 34.2919 247.438 33.0402 246.788C33.8972 242.515 47.8412 236.413 49.7314 232.884L49.8587 232.65C51.1693 230.201 53.9857 222.417 55.1786 219.445C57.9656 212.661 60.8664 205.924 63.8791 199.238C74.7214 174.947 86.0502 150.877 97.8593 127.041C101.088 120.452 109.757 102.492 113.972 97.6117C115.507 95.854 117.258 94.2966 119.184 92.9782C128.105 86.7739 138.466 82.1995 147.553 76.27C152.493 73.0465 157.968 70.1347 159.831 78.0132C162.072 87.4931 161.884 97.9904 162.18 107.682L163.406 150.344L164.658 184.896C164.862 189.719 165.603 201.852 165.272 206.286C180.361 170.521 195.86 134.957 216.927 102.199L215.796 100.774C205.221 105.975 207.353 105.362 196.242 107.903C201.661 101.694 207.518 97.1502 213.831 91.9503C226.246 81.7238 239.727 72.5514 255.825 69.4175ZM679.359 71.1419C680.602 70.8728 683.813 70.9357 685.147 70.9644C703.072 71.3523 722.378 77.477 736.683 88.3582C740.354 91.1484 745.772 96.6052 749.073 100.059C751.202 98.0443 757.827 92.25 760.597 94.6587L760.633 94.8738C760.768 95.8832 760.372 96.5117 759.853 97.3374L759.798 97.4244L759.079 98.5285C751.524 109.884 740.231 119.516 727.63 124.683C724.864 125.818 720.513 129.318 717.783 127.329C718.121 125.184 722.504 121.406 724.251 119.722C720.931 116.103 720.132 114.606 714.748 108.279L713.608 106.947C703.292 94.9539 681.605 84.89 665.589 89.7286C664.499 90.0585 662.15 102.533 662.673 105.448C669.008 140.803 715.736 156.293 743.006 172.332C753.991 178.594 776.386 192.512 784.463 200.271L785.34 201.124C803.737 219.267 821.212 251.49 822.583 277.116C824.397 298.562 814.592 316.925 800.566 332.376C787.02 347.495 767.23 362.4 747.526 367.711L746.997 367.849C735.654 370.698 711.124 370.62 700.117 367.623C668.992 359.144 627.114 333.553 603.609 312.227C586.039 297.827 573.402 283.587 562.193 263.867C559.698 259.476 556.299 253.865 554.332 249.295C544.964 255.246 536.666 261.974 526.503 266.149C533.034 259.27 538.378 249.998 545.767 243.114C559.435 230.382 579.48 224.026 595.788 215.172C597.751 214.107 600.372 214.553 600.974 217.063C600.128 219.901 584.666 229.115 581.259 231.217L581.538 231.467C589.171 238.19 599.931 243.918 608.563 249.316C611.234 250.987 614.654 253.983 617.184 255.364C626.646 260.531 635.888 266.07 645.472 270.996L646.078 271.316C649.129 272.976 652.518 275.453 655.52 276.811C663.712 280.516 672.293 283.964 680.618 287.36C711.472 299.948 737.533 308.702 771.274 306.763C766.325 290.72 760.75 274.281 750.832 260.514C742.778 249.344 727.874 234.93 717.263 225.889C706.058 216.343 693.794 208.237 682.361 198.999C666.742 186.376 626.874 150.691 623.569 131.706C621.669 120.798 627.196 109.045 633.35 100.383C641.671 88.6664 653.561 77.6165 667.595 73.3609C671.451 72.1912 675.405 71.8089 679.359 71.1419ZM513.193 68.8162C517.891 68.6419 543.157 68.2944 545.278 71.2037L544.802 71.8328C540.478 74.2386 522.503 76.9526 516.994 76.5461C516.192 81.1205 514.311 86.4544 513.383 91.2342C508.976 113.954 506.462 135.514 518.285 156.742C524.391 167.699 533.999 182.369 546.624 185.845L547.125 185.979C557.711 188.717 571.435 186.784 581.408 182.798C585.606 181.121 590.689 178.246 594.738 176.053C605.455 151.786 590.418 119.327 581.554 96.3328C579.098 89.969 574.92 81.1254 573.515 74.7321C570.966 74.8564 562.094 74.7882 560.064 73.7956L560.548 73.2811C568.291 70.5426 587.03 71.7806 595.182 73.6154C591.641 74.8119 588.911 75.2362 585.216 75.4545C595.93 90.8731 607.419 111.954 612.6 130.092C615.803 141.306 616.137 153.651 610.145 164.027C606.623 170.13 602.508 173.773 598.141 178.81C583.635 195.545 566.02 207.639 544.499 213.439C535.513 215.862 523.714 216.664 515.215 211.631C503.51 204.701 494.277 184.308 490.827 171.623C484.036 146.68 492.101 115.051 503.219 92.2523C505.576 87.4221 510.357 81.4967 513.315 76.5237C509.302 76.4037 505.749 77.054 501.492 76.8562C495.768 86.2062 489.308 91.9491 482.029 99.7967C474.027 108.428 466.331 115.95 457.86 124.057C451.431 130.209 446.93 135.945 439.447 141.55C459.414 184.908 478.629 228.812 500.619 271.198C505.08 279.795 510.007 288.13 514.464 296.74C521.715 292.041 534.526 290.991 542.942 289.224C546.876 288.397 558.581 284.721 561.488 287.081C561.634 287.923 561.834 288.486 561.343 289.267C557.019 296.129 462.066 350.983 449.924 356.283C446.033 357.981 441.386 358.071 437.22 358.818C446.049 350.845 450.743 344.806 461.248 337.216C459.639 332.603 458.325 324.301 457.372 319.436C455.771 311.425 454.063 303.435 452.253 295.469C444.75 264.018 436.712 232.696 428.143 201.518C424.878 189.155 419.995 173.553 417.487 161.47C403.776 175.27 385.214 187.157 369.55 198.626L369.427 198.717C341.686 219.03 243.999 290.563 223.977 230.783L223.745 230.072C221.423 222.759 220.622 215.049 221.392 207.415C223.275 187.111 232.775 175.579 242.181 158.545L243.091 156.879C254.932 135.852 271.542 115.3 291.391 101.218C307.415 90.9106 320.646 80.1564 338.905 73.6907C352.731 68.7948 385.699 66.0341 371.722 91.4681C362.769 107.758 343.937 119.05 328.82 129.426C309.558 142.646 290.663 151.561 267.88 157.931C262.657 168.988 259.245 181.779 262.747 193.975L263.043 194.973C275.898 236.76 325.026 216.743 351.597 201.94C358.341 198.583 364.165 194.997 369.731 189.83C384.358 176.251 400.138 162.724 413.845 148.258C407.74 128.151 401.973 103.006 397.706 82.4898C395.864 84.2282 389.453 87.9687 388.452 84.0725C388.769 83.0496 389.428 82.2808 390.285 81.6464C397.392 76.3824 406.714 75.9501 415.086 74.2616C416.291 74.0185 417.089 73.7853 418.331 73.9076L418.72 74.4848C417.564 75.9741 411.063 77.1868 408.62 77.9612C417.697 93.9418 425.771 111.91 433.534 128.644C440.478 120.885 447.753 113.575 454.913 106.034C464.096 96.3605 475.809 83.4699 486.856 76.028C484.948 75.6493 482.289 75.3838 481.069 73.9282L481.313 73.2166C485.421 70.292 507.253 69.3157 513.193 68.8162ZM626.042 173.199C626.357 172.653 626.66 172.105 626.952 171.555C629.593 174.581 632.338 177.56 635.094 180.436C648.087 193.997 662.565 206.599 670.824 213.274L670.825 213.276C676.911 218.194 683.216 222.807 688.96 227.069C694.845 231.435 700.272 235.527 705.36 239.862C715.594 248.58 729.179 261.866 735.943 271.248C739.491 276.175 742.422 281.64 745.022 287.608C726.279 285.224 708.71 278.998 687.551 270.365L681.248 267.797C675.003 265.247 668.935 262.733 663.085 260.087L663.083 260.087L662.751 259.92C662.322 259.691 661.571 259.252 660.207 258.402C658.837 257.548 656.313 255.93 653.857 254.669C644.415 249.816 636.517 245.014 626.085 239.314L626.084 239.313C626.081 239.312 626.08 239.31 626.078 239.309L626.084 239.313L626.085 239.314L626.088 239.316C626.088 239.316 626.087 239.315 626.085 239.314C626.083 239.313 626.081 239.311 626.078 239.309C626.076 239.308 626.074 239.307 626.072 239.306C626.029 239.279 625.9 239.195 625.668 239.034C625.663 239.03 625.657 239.026 625.651 239.022C625.216 238.718 624.689 238.329 623.952 237.775C622.8 236.909 620.476 235.118 618.298 233.756L618.295 233.754L616.376 232.564C615.408 231.968 614.459 231.393 613.532 230.833C614.567 229.744 617.249 226.717 618.564 222.305C619.487 219.209 619.576 215.923 618.822 212.781C617.099 205.597 612.068 200.157 605.664 197.709C607.843 195.492 609.958 193.198 612.01 190.831C614.7 187.729 621.352 181.329 626.043 173.2L626.042 173.199ZM512.543 254.233C506.539 242.414 500.736 230.494 495.044 218.489C498.195 221.899 501.792 225.014 505.864 227.425L506.567 227.832C513.877 231.966 521.847 233.511 529.293 233.68C526.119 237.121 523.427 240.603 521.211 243.512C517.803 247.986 515.589 250.987 513.192 253.513C512.968 253.748 512.752 253.989 512.543 254.233ZM364.028 127.013C370.989 121.46 378.292 114.675 384.088 106.305C386.839 118.477 389.944 131.23 393.229 143.06C382 154.137 369.835 164.69 357.244 176.379C353.38 179.966 349.195 182.632 343.418 185.508C343.291 185.571 343.164 185.636 343.038 185.702L342.663 185.905C329.763 193.093 313.454 200.255 300.154 201.432C293.753 201.998 289.711 201.017 287.256 199.602C285.311 198.479 282.583 196.093 280.58 189.555L280.389 188.909C279.152 184.6 279.522 179.262 281.572 172.986C302.557 166.269 320.817 157.181 339.207 144.558C346.076 139.844 355.625 133.717 364.028 127.013ZM543.8 91.4627C545.452 91.0557 547.921 90.4087 550.427 89.4149C550.935 89.7281 551.459 90.0193 552.001 90.2842C555.384 91.9385 558.962 92.4144 560.18 92.5651C562.063 97.2482 563.171 99.6766 564.428 102.934C569.225 115.378 574.519 127.595 577.689 140.194C580.097 149.765 580.658 157.413 579.534 163.399C577.912 164.249 576.454 164.972 575.155 165.524L574.597 165.754C567.009 168.787 557.22 169.726 551.496 168.15C550.216 167.797 547.572 166.337 543.878 162.077C540.361 158.02 537.153 152.894 534.32 147.811C525.96 132.8 527.055 117.143 531.4 94.7348C531.46 94.4245 531.529 94.1052 531.604 93.7714C532.533 93.637 533.431 93.4999 534.281 93.3618C537.479 92.8431 540.811 92.1995 543.8 91.4627ZM470.55 137.318L470.551 137.317C470.654 137.219 470.756 137.119 470.859 137.021C469.696 146.872 469.609 156.879 471.056 166.563L470.777 165.952L470.764 165.921L470.73 165.848C467.759 159.324 464.78 152.783 461.783 146.226C465.359 142.671 468.371 139.402 470.55 137.318ZM184.195 121.752C183.154 123.689 182.128 125.632 181.114 127.578L180.835 117.878C181.784 119.344 182.919 120.642 184.195 121.752ZM699.432 126.919C690.958 120.706 685.438 114.62 682.609 108.253C683.395 108.503 684.208 108.79 685.046 109.118C691.376 111.596 696.756 115.501 699.693 118.916L699.697 118.92C700.089 119.375 700.457 119.806 700.804 120.213C700.32 121.47 699.9 122.899 699.652 124.471C699.523 125.288 699.451 126.106 699.432 126.919ZM270.456 92.9066C271.677 92.2757 273.053 91.6093 274.589 90.8838C272.125 92.8338 269.718 94.8628 267.368 96.9611C267.77 96.1703 268.194 95.3493 268.644 94.5206C268.829 94.1797 269 93.8727 269.156 93.5993C269.533 93.3909 269.965 93.1603 270.456 92.9066ZM443.453 78.8296C443.878 78.7171 444.405 78.5701 445.011 78.3806C447.928 79.525 450.949 80.1792 453.919 80.4921C449.227 85.2447 445.006 89.8103 441.603 93.395C440.669 94.3793 439.713 95.3777 438.743 96.3893C437.005 92.7576 435.228 89.1117 433.408 85.4912C434.644 83.842 435.569 82.0328 436.18 80.1435C438.333 79.8971 440.902 79.5056 443.453 78.8296ZM316.096 40.3791C316.064 36.5734 315.59 28.227 317.578 25.2545C319.652 26.6956 321.974 41.3659 322.267 45.0117C322.691 50.2802 324.547 57.8954 321.028 62.3383C319.863 63.808 317.736 64.6608 316.188 63.3627C314.689 59.9668 315.297 47.687 315.548 43.6369C310.984 45.0097 302.037 45.7851 297.014 46.3865C297.922 50.1724 298.654 55.0725 298.16 58.9344C296.534 60.7853 293.447 63.939 290.862 63.308C289.177 60.4909 291.601 38.8885 291.802 34.3664C291.87 32.8481 292.07 30.444 293.343 29.4255L294.148 29.8324C295.388 31.4978 296.585 42.0013 296.971 44.698C301.328 43.3187 311.83 40.8707 316.096 40.3791ZM432.932 29.4354C435.009 29.2615 437.264 28.7817 438.952 29.9229C442.248 35.909 421.164 54.9287 416.472 59.4408C421.707 59.2858 439.164 55.7993 442.292 58.8439L442.193 59.5251C439.227 62.1704 428.568 62.3783 424.65 62.3822C420.263 62.2327 415.38 63.1866 410.651 63.2031C414.809 57.0821 434.115 40.8436 434.033 33.99C431.063 31.9892 416.727 34.9801 414.246 33.7453C416.157 31.9184 429.753 29.9449 432.932 29.4354ZM464.619 31.3793C475.112 29.6156 483.764 38.6594 478.539 48.8009C475.325 55.0431 466.775 60.1716 460.291 62.3132C437.2 63.7142 446.616 40.0895 458.474 32.7353C459.096 32.349 462.086 32.6251 464.442 31.4671L464.619 31.3793ZM398.338 61.7575C396.5 58.65 397.363 34.0297 398.369 29.7957C400.202 30.0186 400.914 30.9834 401.281 32.789C402.903 40.765 404.259 49.1054 404.911 57.2119C405.004 58.3673 403.381 59.5797 402.563 60.2994C401.058 61.226 400.022 62.0631 398.338 61.7575ZM526.24 44.3413C519.878 37.739 531.457 32.3058 536.517 30.9652C538.665 31.0795 541.978 31.5255 542.914 33.826C539.857 36.0077 533.353 30.8378 530.772 36.2332C531.154 41.9622 546.872 45.2722 545.782 52.7935C545.25 56.4607 538.869 59.766 535.584 60.6722C532.708 61.4661 529.714 60.8261 526.857 60.2842C524.741 59.7651 522.761 59.5677 521.542 57.8034C521.109 54.0415 526.055 51.7442 529.084 50.6193C533.337 53.024 534.424 54.3549 539.342 55.9931C535.624 50.0805 530.792 49.0614 526.24 44.3413ZM508.81 47.7192C510.27 40.8604 511.317 32.1554 516.837 27.5793L517.395 27.8849C519.543 32.9393 517.458 47.8755 516.364 53.5455C514.059 55.3602 509.837 57.9779 507.276 59.6774C503.204 56.0501 495.087 45.4475 491.051 40.6569C490.724 45.7053 490.523 52.7349 489.107 57.3992C487.942 58.27 486.498 59.2117 485.283 60.0538C484.594 60.3913 484.531 60.3594 483.74 60.337C483.252 59.3745 483.576 54.4358 483.804 53.1735C484.595 48.746 484.543 33.7988 488.706 31.6705L489.264 31.9233L489.488 33.8484C490.94 35.1329 491.09 30.5442 496.276 35.4293C500.501 39.4055 504.675 43.6433 508.81 47.7192ZM348.172 56.011C354.119 53.1984 354.561 31.4176 339.06 31.2762C334.137 38.1956 332.612 47.6334 340.34 53.5338C342.614 55.2695 344.834 55.5654 347.496 55.9201C347.718 55.9497 347.943 55.9797 348.172 56.011ZM382.395 37.9271C380.352 32.8292 375.885 31.2718 370.954 30.492C370.146 35.4396 369.918 40.8951 369.707 45.9245L369.696 46.1893C372.883 44.0548 374.548 43.6773 378.322 42.9056C380.458 42.4164 383.416 40.4762 382.395 37.9271Z" fill="black"/>
<path fill-rule="evenodd" clip-rule="evenodd" d="M564.121 53.8717C569.147 53.281 574.235 53.2686 578.252 53.3868C585.664 53.6051 593.632 54.4529 599.213 55.709C607.239 57.5154 613.082 64.4417 613.512 72.6574C613.693 76.1303 612.888 79.4746 611.31 82.3778C613.154 85.5667 614.963 88.8556 616.706 92.2057C617.276 91.3448 617.838 90.5259 618.386 89.7537C627.828 76.46 642.402 62.1348 661.363 56.0782L662.269 55.7959C667.589 54.1823 673.98 53.432 676.271 53.049C678.659 52.6285 681.056 52.5995 681.898 52.5894L681.984 52.5883C683.453 52.5695 684.866 52.5998 685.542 52.6143H685.544C706.937 53.0772 730.089 60.2846 747.789 73.7454C749.009 74.6726 750.311 75.7611 751.627 76.9243C752.345 76.6898 753.097 76.4775 753.88 76.3005C757.74 75.4282 765.484 74.8189 772.316 80.5316L772.641 80.8085L772.926 81.0621C775.846 83.7098 777.839 87.2299 778.604 91.1034C780.408 100.244 775.612 106.755 775.342 107.184C775.328 107.207 775.314 107.229 775.3 107.251L775.273 107.293C765.891 122.006 751.517 134.641 734.899 141.537L734.852 141.563C734.735 141.625 734.495 141.752 734.08 141.978L733.964 142.042C733.192 142.462 731.663 143.295 729.985 144.022C729.777 144.112 729.549 144.208 729.302 144.308C736.89 148.185 745.134 152.299 752.186 156.438C758.004 159.758 766.627 164.975 774.887 170.39C782.789 175.57 791.757 181.827 797.178 187.034C808.245 197.661 818.577 212.103 826.359 227.309C834.051 242.341 839.979 259.544 840.899 275.922C843.17 304.252 829.944 327.322 814.157 344.714C799.203 361.376 776.567 378.893 752.303 385.433L752.301 385.434C744.368 387.571 733.36 388.3 723.826 388.284C714.285 388.269 703.262 387.503 695.295 385.333L695.293 385.332C660.892 375.961 616.778 348.838 591.624 326.133C583.718 319.631 576.654 313.073 570.203 306.051C569.037 306.975 567.768 307.915 566.48 308.835C563.064 311.275 558.643 314.2 553.691 317.36C543.736 323.714 530.878 331.501 517.899 339.165C492.551 354.134 464.618 369.896 457.267 373.105L457.263 373.106C453.106 374.92 449.092 375.651 446.421 376.056C442.469 376.653 442.625 376.496 440.457 376.885C432.393 378.329 424.346 374.254 420.739 366.898C417.133 359.542 418.838 350.686 424.919 345.195C429.372 341.174 434.358 335.823 440.706 330.209C440.096 327.067 439.632 324.353 439.359 322.961C437.8 315.165 436.137 307.388 434.375 299.63C426.928 268.415 418.951 237.327 410.445 206.382L410.435 206.345C410.422 206.298 410.409 206.251 410.397 206.205C409.482 202.742 408.323 198.64 407.082 194.251C397.565 201.378 388.037 207.839 380.394 213.436L379.91 213.79C366.029 223.956 333.192 248.005 300.757 261.775C284.628 268.622 265.957 274.118 248.663 272.027C239.611 270.932 230.554 267.707 222.752 261.228C217.87 257.174 213.928 252.219 210.853 246.544C206.333 260.212 202.027 273.795 198.252 287.124C196.151 294.595 194.345 302.147 192.837 309.76L192.753 310.249C192.658 310.841 192.524 311.778 192.294 313.365C192.031 315.178 191.681 317.537 191.23 319.911C190.799 322.179 190.16 325.101 189.177 327.903C188.683 329.31 187.946 331.148 186.843 333.041C185.87 334.711 183.967 337.56 180.664 339.924L180.34 340.151C176.236 342.971 162.449 353.481 146.358 364.971C138.791 370.375 131.003 375.774 124.603 379.797C121.452 381.778 118.249 383.673 115.385 385.089C113.985 385.781 112.205 386.59 110.28 387.211L110.22 387.23C109.047 387.61 104.543 389.067 99.2045 387.937C95.9501 387.248 92.9438 385.688 90.5076 383.422C86.0304 379.259 84.4824 374.023 83.9437 372.107C83.1809 369.393 82.7362 366.531 82.4452 363.939C81.855 358.681 81.6575 352.255 81.6718 345.438C81.7007 331.675 82.6094 314.252 83.8155 296.91C85.0044 279.817 86.5133 262.395 87.8315 248.097C86.9194 248.399 86.0673 248.655 85.3239 248.867C83.7558 249.313 82.1258 249.719 81.0588 249.992C79.8143 250.311 79.2506 250.469 78.9786 250.557C72.6574 252.701 66.4299 255.111 60.3131 257.781C59.0504 258.35 57.9166 258.935 55.9081 259.923C54.356 260.687 52.3459 261.657 50.1212 262.541L49.1551 262.914C46.2282 264.01 42.2601 264.638 40.1777 264.914C38.8086 265.096 37.0968 265.277 35.3784 265.326C34.5387 265.349 33.3328 265.353 31.9827 265.222L31.9597 265.22C31.1075 265.137 27.9649 264.833 24.5879 263.082C17.3278 259.315 13.4362 251.199 15.0441 243.18C15.965 238.588 18.2384 235.334 19.6032 233.631C21.0954 231.769 22.6942 230.304 23.9158 229.274C26.3244 227.245 29.0664 225.427 30.9619 224.189C32.5318 223.164 33.6476 222.45 34.5674 221.838C34.839 221.162 35.1379 220.413 35.4492 219.61C36.2939 217.431 37.5173 214.171 38.1442 212.609L38.2006 212.47C41.0574 205.517 44.0303 198.611 47.118 191.756C58.0496 167.265 69.4716 142.997 81.3769 118.964C82.9449 115.764 86.0446 109.368 89.2807 103.18C92.0826 97.8218 96.2981 89.9944 100.08 85.6149L100.147 85.5369C102.691 82.6242 105.593 80.0436 108.783 77.8554C114.11 74.1582 119.687 71.0619 124.467 68.4353C129.541 65.6475 133.694 63.397 137.522 60.899L138.67 60.1614C139.933 59.3653 141.519 58.4204 143.249 57.5767C145.398 56.5291 149.093 54.9625 153.641 54.6631C158.843 54.3207 165.076 55.6959 170.251 60.4589C174.556 64.4209 176.531 69.2872 177.511 73.0526L177.694 73.7911L177.947 74.9033C179.713 82.9546 180.149 91.5525 180.336 98.7418C180.924 97.7211 181.617 96.7467 182.413 95.8345C189.071 88.2057 196.393 82.5348 202.161 77.7828L203.391 76.7755C216.198 66.3492 232.225 55.3123 252.317 51.4008C253.038 51.2606 254.647 50.9084 257.343 50.3361C259.832 49.8079 262.92 49.1645 265.995 48.5786C268.05 48.187 270.258 47.7912 272.366 47.4691V33.0382C272.366 22.9012 280.583 14.6836 290.72 14.6836H545.767C555.904 14.6836 564.121 22.9012 564.121 33.0382V53.8717ZM255.825 69.4175C259.516 68.6992 279.774 64.0185 281.744 65.3003C281.804 65.8242 281.988 66.565 281.515 66.8776C275.643 70.7644 262.134 75.7088 256.668 79.7958L256.461 79.9481C254.366 81.5221 250.475 89.7234 249.14 92.385C233.637 123.301 221.68 156.915 210.679 189.719C200.601 219.767 189.214 251.681 180.592 282.121C178.347 290.103 176.418 298.172 174.811 306.307C173.997 310.553 172.945 322.963 169.946 325.024L169.067 325.64C158.673 333.027 108.736 371.193 103.006 369.981C94.8001 362.351 105.849 252.055 108.592 223.796L109.022 219.292L113.728 168.405C114.636 158.391 115.876 142.444 117.578 132.749C111.068 143.298 104.301 156.181 98.1792 167.138L62.732 230.971C67.0358 230.125 83.5842 226.15 86.4594 227.778L86.4423 228.466L86.1959 228.681C83.517 230.875 76.8455 231.935 73.2097 233.133C66.3096 235.469 59.5129 238.099 52.8386 241.018C49.4873 242.521 46.1335 244.446 42.7176 245.725C41.1641 246.307 34.2919 247.438 33.0402 246.788C33.8972 242.515 47.8412 236.413 49.7314 232.884L49.8587 232.65C51.1693 230.201 53.9857 222.417 55.1786 219.445C57.9656 212.661 60.8664 205.924 63.8791 199.238C74.7214 174.947 86.0502 150.877 97.8593 127.041C101.088 120.452 109.757 102.492 113.972 97.6117C115.507 95.854 117.258 94.2966 119.184 92.9782C128.105 86.7739 138.466 82.1995 147.553 76.27C152.493 73.0465 157.968 70.1347 159.831 78.0132C162.072 87.4931 161.884 97.9904 162.18 107.682L163.406 150.344L164.658 184.896C164.862 189.719 165.603 201.852 165.272 206.286C180.361 170.521 195.86 134.957 216.927 102.199L215.796 100.774C205.221 105.975 207.353 105.362 196.242 107.903C201.661 101.694 207.518 97.1502 213.831 91.9503C226.246 81.7238 239.727 72.5514 255.825 69.4175ZM679.359 71.1419C680.602 70.8728 683.813 70.9357 685.147 70.9644C703.072 71.3523 722.378 77.477 736.683 88.3582C740.354 91.1484 745.772 96.6052 749.073 100.059C751.202 98.0443 757.827 92.25 760.597 94.6587L760.633 94.8738C760.768 95.8832 760.372 96.5117 759.853 97.3374L759.798 97.4244L759.079 98.5285C751.524 109.884 740.231 119.516 727.63 124.683C724.864 125.818 720.513 129.318 717.783 127.329C718.121 125.184 722.504 121.406 724.251 119.722C720.931 116.103 720.132 114.606 714.748 108.279L713.608 106.947C703.292 94.9539 681.605 84.89 665.589 89.7286C664.499 90.0585 662.15 102.533 662.673 105.448C669.008 140.803 715.736 156.293 743.006 172.332C753.991 178.594 776.386 192.512 784.463 200.271L785.34 201.124C803.737 219.267 821.212 251.49 822.583 277.116C824.397 298.562 814.592 316.925 800.566 332.376C787.02 347.495 767.23 362.4 747.526 367.711L746.997 367.849C735.654 370.698 711.124 370.62 700.117 367.623C668.992 359.144 627.114 333.553 603.609 312.227C586.039 297.827 573.402 283.587 562.193 263.867C559.698 259.476 556.299 253.865 554.332 249.295C544.964 255.246 536.666 261.974 526.503 266.149C533.034 259.27 538.378 249.998 545.767 243.114C559.435 230.382 579.48 224.026 595.788 215.172C597.751 214.107 600.372 214.553 600.974 217.063C600.128 219.901 584.666 229.115 581.259 231.217L581.538 231.467C589.171 238.19 599.931 243.918 608.563 249.316C611.234 250.987 614.654 253.983 617.184 255.364C626.646 260.531 635.888 266.07 645.472 270.996L646.078 271.316C649.129 272.976 652.518 275.453 655.52 276.811C663.712 280.516 672.293 283.964 680.618 287.36C711.472 299.948 737.533 308.702 771.274 306.763C766.325 290.72 760.75 274.281 750.832 260.514C742.778 249.344 727.874 234.93 717.263 225.889C706.058 216.343 693.794 208.237 682.361 198.999C666.742 186.376 626.874 150.691 623.569 131.706C621.669 120.798 627.196 109.045 633.35 100.383C641.671 88.6664 653.561 77.6165 667.595 73.3609C671.451 72.1912 675.405 71.8089 679.359 71.1419ZM513.193 68.8162C517.891 68.6419 543.157 68.2944 545.278 71.2037L544.802 71.8328C540.478 74.2386 522.503 76.9526 516.994 76.5461C516.192 81.1205 514.311 86.4544 513.383 91.2342C508.976 113.954 506.462 135.514 518.285 156.742C524.391 167.699 533.999 182.369 546.624 185.845L547.125 185.979C557.711 188.717 571.435 186.784 581.408 182.798C585.606 181.121 590.689 178.246 594.738 176.053C605.455 151.786 590.418 119.327 581.554 96.3328C579.098 89.969 574.92 81.1254 573.515 74.7321C570.966 74.8564 562.094 74.7882 560.064 73.7956L560.548 73.2811C568.291 70.5426 587.03 71.7806 595.182 73.6154C591.641 74.8119 588.911 75.2362 585.216 75.4545C595.93 90.8731 607.419 111.954 612.6 130.092C615.803 141.306 616.137 153.651 610.145 164.027C606.623 170.13 602.508 173.773 598.141 178.81C583.635 195.545 566.02 207.639 544.499 213.439C535.513 215.862 523.714 216.664 515.215 211.631C503.51 204.701 494.277 184.308 490.827 171.623C484.036 146.68 492.101 115.051 503.219 92.2523C505.576 87.4221 510.357 81.4967 513.315 76.5237C509.302 76.4037 505.749 77.054 501.492 76.8562C495.768 86.2062 489.308 91.9491 482.029 99.7967C474.027 108.428 466.331 115.95 457.86 124.057C451.431 130.209 446.93 135.945 439.447 141.55C459.414 184.908 478.629 228.812 500.619 271.198C505.08 279.795 510.007 288.13 514.464 296.74C521.715 292.041 534.526 290.991 542.942 289.224C546.876 288.397 558.581 284.721 561.488 287.081C561.634 287.923 561.834 288.486 561.343 289.267C557.019 296.129 462.066 350.983 449.924 356.283C446.033 357.981 441.386 358.071 437.22 358.818C446.049 350.845 450.743 344.806 461.248 337.216C459.639 332.603 458.325 324.301 457.372 319.436C455.771 311.425 454.063 303.435 452.253 295.469C444.75 264.018 436.712 232.696 428.143 201.518C424.878 189.155 419.995 173.553 417.487 161.47C403.776 175.27 385.214 187.157 369.55 198.626L369.427 198.717C341.686 219.03 243.999 290.563 223.977 230.783L223.745 230.072C221.423 222.759 220.622 215.049 221.392 207.415C223.275 187.111 232.775 175.579 242.181 158.545L243.091 156.879C254.932 135.852 271.542 115.3 291.391 101.218C307.415 90.9106 320.646 80.1564 338.905 73.6907C352.731 68.7948 385.699 66.0341 371.722 91.4681C362.769 107.758 343.937 119.05 328.82 129.426C309.558 142.646 290.663 151.561 267.88 157.931C262.657 168.988 259.245 181.779 262.747 193.975L263.043 194.973C275.898 236.76 325.026 216.743 351.597 201.94C358.341 198.583 364.165 194.997 369.731 189.83C384.358 176.251 400.138 162.724 413.845 148.258C407.74 128.151 401.973 103.006 397.706 82.4898C395.864 84.2282 389.453 87.9687 388.452 84.0725C388.769 83.0496 389.428 82.2808 390.285 81.6464C397.392 76.3824 406.714 75.9501 415.086 74.2616C416.291 74.0185 417.089 73.7853 418.331 73.9076L418.72 74.4848C417.564 75.9741 411.063 77.1868 408.62 77.9612C417.697 93.9418 425.771 111.91 433.534 128.644C440.478 120.885 447.753 113.575 454.913 106.034C464.096 96.3605 475.809 83.4699 486.856 76.028C484.948 75.6493 482.289 75.3838 481.069 73.9282L481.313 73.2166C485.421 70.292 507.253 69.3157 513.193 68.8162ZM626.042 173.199C626.357 172.653 626.66 172.105 626.952 171.555C629.593 174.581 632.338 177.56 635.094 180.436C648.087 193.997 662.565 206.599 670.824 213.274L670.825 213.276C676.911 218.194 683.216 222.807 688.96 227.069C694.845 231.435 700.272 235.527 705.36 239.862C715.594 248.58 729.179 261.866 735.943 271.248C739.491 276.175 742.422 281.64 745.022 287.608C726.279 285.224 708.71 278.998 687.551 270.365L681.248 267.797C675.003 265.247 668.935 262.733 663.085 260.087L663.083 260.087L662.751 259.92C662.322 259.691 661.571 259.252 660.207 258.402C658.837 257.548 656.313 255.93 653.857 254.669C644.415 249.816 636.517 245.014 626.085 239.314C626.087 239.315 626.088 239.316 626.088 239.316C626.088 239.316 626.085 239.313 626.078 239.309L626.084 239.313L626.085 239.314C626.083 239.313 626.08 239.311 626.075 239.308L626.078 239.309C626.085 239.313 626.088 239.316 626.088 239.316L626.084 239.313L626.078 239.309L626.075 239.308L626.072 239.306C626.029 239.279 625.9 239.195 625.668 239.034L625.651 239.022C625.216 238.718 624.689 238.329 623.952 237.775C622.8 236.909 620.476 235.118 618.298 233.756L618.295 233.754L616.376 232.564C615.408 231.968 614.459 231.393 613.532 230.833C614.567 229.744 617.249 226.717 618.564 222.305C619.487 219.209 619.576 215.923 618.822 212.781C617.099 205.597 612.068 200.157 605.664 197.709C607.843 195.492 609.958 193.198 612.01 190.831C614.7 187.729 621.352 181.329 626.043 173.2L626.042 173.199ZM512.543 254.233C506.539 242.414 500.736 230.494 495.044 218.489C498.195 221.899 501.792 225.014 505.864 227.425L506.567 227.832C513.877 231.966 521.847 233.511 529.293 233.68C526.119 237.121 523.427 240.603 521.211 243.512C517.803 247.986 515.589 250.987 513.192 253.513C512.968 253.748 512.752 253.989 512.543 254.233ZM364.028 127.013C370.989 121.46 378.292 114.675 384.088 106.305C386.839 118.477 389.944 131.23 393.229 143.06C382 154.137 369.835 164.69 357.244 176.379C353.38 179.966 349.195 182.632 343.418 185.508C343.291 185.571 343.164 185.636 343.038 185.702L342.663 185.905C329.763 193.093 313.454 200.255 300.154 201.432C293.753 201.998 289.711 201.017 287.256 199.602C285.311 198.479 282.583 196.093 280.58 189.555L280.389 188.909C279.152 184.6 279.522 179.262 281.572 172.986C302.557 166.269 320.817 157.181 339.207 144.558C346.076 139.844 355.625 133.717 364.028 127.013ZM543.8 91.4627C545.452 91.0557 547.921 90.4087 550.427 89.4149C550.935 89.7281 551.459 90.0193 552.001 90.2842C555.384 91.9385 558.962 92.4144 560.18 92.5651C562.063 97.2482 563.171 99.6766 564.428 102.934C569.225 115.378 574.519 127.595 577.689 140.194C580.097 149.765 580.658 157.413 579.534 163.399C577.912 164.249 576.454 164.972 575.155 165.524L574.597 165.754C567.009 168.787 557.22 169.726 551.496 168.15C550.216 167.797 547.572 166.337 543.878 162.077C540.361 158.02 537.153 152.894 534.32 147.811C525.96 132.8 527.055 117.143 531.4 94.7348C531.46 94.4245 531.529 94.1052 531.604 93.7714C532.533 93.637 533.431 93.4999 534.281 93.3618C537.479 92.8431 540.811 92.1995 543.8 91.4627ZM470.55 137.318L470.551 137.317C470.654 137.219 470.756 137.119 470.859 137.021C469.696 146.872 469.609 156.879 471.056 166.563L470.777 165.952L470.764 165.921L470.73 165.848C467.759 159.324 464.78 152.783 461.783 146.226C465.359 142.671 468.371 139.402 470.55 137.318ZM184.195 121.752C183.154 123.689 182.128 125.632 181.114 127.578L180.835 117.878C181.784 119.344 182.919 120.642 184.195 121.752ZM699.432 126.919C690.958 120.706 685.438 114.62 682.609 108.253C683.395 108.503 684.208 108.79 685.046 109.118C691.376 111.596 696.756 115.501 699.693 118.916L699.697 118.92C700.089 119.375 700.457 119.806 700.804 120.213C700.32 121.47 699.9 122.899 699.652 124.471C699.523 125.288 699.451 126.106 699.432 126.919ZM270.456 92.9066C271.677 92.2757 273.053 91.6093 274.589 90.8838C272.125 92.8338 269.718 94.8628 267.368 96.9611C267.77 96.1703 268.194 95.3493 268.644 94.5206C268.829 94.1797 269 93.8727 269.156 93.5993C269.533 93.3909 269.965 93.1603 270.456 92.9066ZM443.453 78.8296C443.878 78.7171 444.405 78.5701 445.011 78.3806C447.928 79.525 450.949 80.1792 453.919 80.4921C449.227 85.2447 445.006 89.8103 441.603 93.395C440.669 94.3793 439.713 95.3777 438.743 96.3893C437.005 92.7576 435.228 89.1117 433.408 85.4912C434.644 83.842 435.569 82.0328 436.18 80.1435C438.333 79.8971 440.902 79.5056 443.453 78.8296ZM316.096 40.3791C316.064 36.5734 315.59 28.227 317.578 25.2545C319.652 26.6956 321.974 41.3659 322.267 45.0117C322.691 50.2802 324.547 57.8954 321.028 62.3383C319.863 63.808 317.736 64.6608 316.188 63.3627C314.689 59.9668 315.297 47.687 315.548 43.6369C310.984 45.0097 302.037 45.7851 297.014 46.3865C297.922 50.1724 298.654 55.0725 298.16 58.9344C296.534 60.7853 293.447 63.939 290.862 63.308C289.177 60.4909 291.601 38.8885 291.802 34.3664C291.87 32.8481 292.07 30.444 293.343 29.4255L294.148 29.8324C295.388 31.4978 296.585 42.0013 296.971 44.698C301.328 43.3187 311.83 40.8707 316.096 40.3791ZM432.932 29.4354C435.009 29.2615 437.264 28.7817 438.952 29.9229C442.248 35.909 421.164 54.9287 416.472 59.4408C421.707 59.2858 439.164 55.7993 442.292 58.8439L442.193 59.5251C439.227 62.1704 428.568 62.3783 424.65 62.3822C420.263 62.2327 415.38 63.1866 410.651 63.2031C414.809 57.0821 434.115 40.8436 434.033 33.99C431.063 31.9892 416.727 34.9801 414.246 33.7453C416.157 31.9184 429.753 29.9449 432.932 29.4354ZM464.619 31.3793C475.112 29.6156 483.764 38.6594 478.539 48.8009C475.325 55.0431 466.775 60.1716 460.291 62.3132C437.2 63.7142 446.616 40.0895 458.474 32.7353C459.096 32.349 462.086 32.6251 464.442 31.4671L464.619 31.3793ZM398.338 61.7575C396.5 58.65 397.363 34.0297 398.369 29.7957C400.202 30.0186 400.914 30.9834 401.281 32.789C402.903 40.765 404.259 49.1054 404.911 57.2119C405.004 58.3673 403.381 59.5797 402.563 60.2994C401.058 61.226 400.022 62.0631 398.338 61.7575ZM526.24 44.3413C519.878 37.739 531.457 32.3058 536.517 30.9652C538.665 31.0795 541.978 31.5255 542.914 33.826C539.857 36.0077 533.353 30.8378 530.772 36.2332C531.154 41.9622 546.872 45.2722 545.782 52.7935C545.25 56.4607 538.869 59.766 535.584 60.6722C532.708 61.4661 529.714 60.8261 526.857 60.2842C524.741 59.7651 522.761 59.5677 521.542 57.8034C521.109 54.0415 526.055 51.7442 529.084 50.6193C533.337 53.024 534.424 54.3549 539.342 55.9931C535.624 50.0805 530.792 49.0614 526.24 44.3413ZM508.81 47.7192C510.27 40.8604 511.317 32.1554 516.837 27.5793L517.395 27.8849C519.543 32.9393 517.458 47.8755 516.364 53.5455C514.059 55.3602 509.837 57.9779 507.276 59.6774C503.204 56.0501 495.087 45.4475 491.051 40.6569C490.724 45.7053 490.523 52.7349 489.107 57.3992C487.942 58.27 486.498 59.2117 485.283 60.0538C484.594 60.3913 484.531 60.3594 483.74 60.337C483.252 59.3745 483.576 54.4358 483.804 53.1735C484.595 48.746 484.543 33.7988 488.706 31.6705L489.264 31.9233L489.488 33.8484C490.94 35.1329 491.09 30.5442 496.276 35.4293C500.501 39.4055 504.675 43.6433 508.81 47.7192ZM348.172 56.011C354.119 53.1984 354.561 31.4176 339.06 31.2762C334.137 38.1956 332.612 47.6334 340.34 53.5338C342.614 55.2695 344.834 55.5654 347.496 55.9201C347.718 55.9497 347.943 55.9797 348.172 56.011ZM382.395 37.9271C380.352 32.8292 375.885 31.2718 370.954 30.492C370.146 35.4396 369.918 40.8951 369.707 45.9245L369.696 46.1893C372.883 44.0548 374.548 43.6773 378.322 42.9056C380.458 42.4164 383.416 40.4762 382.395 37.9271Z" fill="black"/>
<mask id="mask0_2003_12953" style="mask-type:alpha" maskUnits="userSpaceOnUse" x="0" y="0" width="856" height="404">
<path d="M290.72 14.6837C280.583 14.6837 272.366 22.9013 272.366 33.0382V47.4692C270.258 47.7912 268.05 48.187 265.994 48.5787C262.92 49.1646 259.832 49.8079 257.343 50.3362C254.647 50.9085 253.038 51.2607 252.317 51.4009C232.225 55.3124 216.198 66.3493 203.391 76.7756L202.161 77.7829C196.392 82.5348 189.071 88.2058 182.413 95.8346C181.617 96.7468 180.924 97.7212 180.336 98.7419C180.149 91.5526 179.713 82.9547 177.947 74.9034L177.694 73.7911L177.511 73.0527C176.531 69.2873 174.556 64.421 170.251 60.459C165.076 55.696 158.843 54.3207 153.641 54.6631C149.093 54.9626 145.398 56.5292 143.249 57.5767C141.519 58.4205 139.932 59.3654 138.67 60.1614L137.522 60.899C133.694 63.397 129.54 65.6476 124.467 68.4353C119.687 71.062 114.11 74.1583 108.783 77.8555C105.593 80.0436 102.691 82.6243 100.147 85.537L100.08 85.615C96.298 89.9945 92.0825 97.8219 89.2805 103.18C86.0445 109.368 82.9448 115.764 81.3768 118.964C69.4714 142.997 58.0495 167.266 47.1179 191.756C44.0302 198.611 41.0572 205.517 38.2005 212.47L38.144 212.609C37.5172 214.171 36.2938 217.431 35.4491 219.61C35.1378 220.413 34.8389 221.162 34.5672 221.838C33.6475 222.45 32.5317 223.164 30.9617 224.189C29.0663 225.427 26.3243 227.245 23.9157 229.275C22.6941 230.304 21.0952 231.769 19.6031 233.631C18.2383 235.334 15.9649 238.588 15.044 243.18C13.4361 251.199 17.3278 259.315 24.5878 263.082C27.9648 264.834 31.1079 265.138 31.9601 265.22L31.9825 265.222C33.3326 265.353 34.5386 265.35 35.3783 265.326C37.0966 265.277 38.8085 265.096 40.1776 264.914C42.2599 264.638 46.2281 264.01 49.155 262.914L50.1211 262.541C52.3457 261.657 54.3559 260.687 55.908 259.923C57.9164 258.935 59.0503 258.35 60.3129 257.781C66.4297 255.111 72.6573 252.701 78.9785 250.557C79.2505 250.469 79.8142 250.311 81.0586 249.992C82.1256 249.719 83.7558 249.313 85.3237 248.867C86.0671 248.655 86.9193 248.399 87.8314 248.097C86.5131 262.395 85.0043 279.817 83.8154 296.91C82.6093 314.252 81.7006 331.675 81.6716 345.438C81.6573 352.255 81.8549 358.682 82.4451 363.939C82.7361 366.531 83.1808 369.393 83.9436 372.107C84.4823 374.023 86.0303 379.26 90.5075 383.423C92.9436 385.688 95.9501 387.248 99.2044 387.937C104.543 389.067 109.047 387.61 110.221 387.231L110.28 387.211C112.205 386.59 113.984 385.781 115.385 385.089C118.249 383.673 121.452 381.778 124.603 379.797C131.003 375.774 138.79 370.375 146.358 364.971C162.448 353.481 176.236 342.971 180.34 340.151L180.664 339.924C183.966 337.56 185.87 334.711 186.843 333.041C187.945 331.148 188.683 329.31 189.177 327.903C190.16 325.101 190.799 322.179 191.23 319.911C191.681 317.537 192.031 315.178 192.294 313.365C192.524 311.778 192.658 310.841 192.753 310.249L192.837 309.76C194.344 302.147 196.151 294.595 198.252 287.124C202.027 273.795 206.333 260.212 210.853 246.544C213.928 252.219 217.87 257.174 222.752 261.228C230.554 267.707 239.611 270.932 248.663 272.027C265.957 274.118 284.628 268.622 300.757 261.775C333.191 248.005 366.029 223.956 379.91 213.791L380.394 213.436C388.037 207.839 397.565 201.378 407.082 194.251C408.323 198.64 409.482 202.742 410.397 206.205C410.409 206.251 410.423 206.298 410.436 206.345L410.445 206.382C418.95 237.327 426.927 268.415 434.375 299.63C436.137 307.388 437.8 315.165 439.359 322.961C439.632 324.353 440.096 327.067 440.706 330.209C434.358 335.823 429.371 341.174 424.918 345.195C418.838 350.686 417.133 359.542 420.739 366.898C424.346 374.254 432.393 378.329 440.457 376.885C442.625 376.496 442.469 376.653 446.421 376.056C449.092 375.651 453.106 374.92 457.263 373.106L457.267 373.105C464.618 369.896 492.551 354.134 517.899 339.165C530.878 331.501 543.736 323.714 553.691 317.36C558.643 314.2 563.064 311.275 566.48 308.835C567.768 307.915 569.037 306.975 570.203 306.051C576.654 313.074 583.718 319.631 591.624 326.133C616.778 348.838 660.892 375.961 695.293 385.332L695.294 385.333C703.262 387.503 714.285 388.269 723.826 388.285C733.36 388.3 744.368 387.571 752.301 385.434L752.303 385.433C776.567 378.893 799.203 361.376 814.157 344.714C829.944 327.322 843.17 304.252 840.899 275.922C839.979 259.544 834.051 242.341 826.359 227.309C818.577 212.103 808.245 197.661 797.178 187.034C791.757 181.827 782.789 175.57 774.887 170.39C766.627 164.976 758.004 159.758 752.186 156.438C745.134 152.299 736.889 148.185 729.302 144.308C729.549 144.208 729.777 144.112 729.985 144.022C731.662 143.296 733.191 142.463 733.964 142.042L734.08 141.978C734.495 141.752 734.736 141.624 734.852 141.562L734.899 141.537C751.517 134.641 765.891 122.006 775.273 107.293L775.3 107.252C775.314 107.229 775.328 107.207 775.342 107.184C775.611 106.755 780.408 100.244 778.604 91.1034C777.839 87.23 775.846 83.7098 772.926 81.0622L772.641 80.8085L772.316 80.5316C765.483 74.8191 757.74 75.4283 753.88 76.3006C753.097 76.4775 752.345 76.6899 751.627 76.9243C750.311 75.7612 749.009 74.6727 747.789 73.7454C730.089 60.2847 706.937 53.0773 685.544 52.6144H685.542C684.866 52.5998 683.453 52.5696 681.984 52.5884L681.898 52.5893C681.057 52.5994 678.659 52.6285 676.27 53.049C673.98 53.4321 667.589 54.1824 662.269 55.796L661.363 56.0783C642.402 62.1348 627.828 76.4601 618.386 89.7537C617.838 90.526 617.276 91.3449 616.706 92.2058C614.963 88.8557 613.154 85.5668 611.31 82.3778C612.888 79.4747 613.693 76.1303 613.512 72.6574C613.082 64.4418 607.239 57.5155 599.213 55.709C593.632 54.453 585.664 53.6052 578.252 53.3869C574.235 53.2686 569.147 53.2811 564.121 53.8718V33.0382C564.121 22.9013 555.903 14.6837 545.767 14.6837V0C564.013 0 578.805 14.7917 578.805 33.0382V38.7131C586.779 38.9544 595.688 39.8647 602.437 41.3838C612.857 43.7292 621.232 50.8689 625.382 60.2152C634.113 52.6482 644.63 46.0088 656.895 42.091L656.995 42.0596L658.007 41.7441C664.533 39.7649 672.646 38.7673 673.849 38.5661C677.471 37.9414 680.85 37.917 681.718 37.9065L681.796 37.9056C683.535 37.8833 685.167 37.9187 685.851 37.9334C685.854 37.9335 685.858 37.9342 685.862 37.9343C709.589 38.4478 735.304 46.2395 755.554 61.2163C762.256 60.6214 772.091 61.5046 781.178 68.8109L781.735 69.267L781.833 69.3504L782.159 69.6273C782.241 69.6971 782.322 69.7681 782.403 69.8397L782.688 70.0933L782.79 70.1848C787.881 74.8014 791.407 80.8918 792.874 87.6073L793.009 88.2588L793.145 88.9821C794.459 96.4216 793.202 102.798 791.581 107.344C789.92 112.001 787.642 115.209 787.778 114.992L787.777 114.994C787.732 115.066 787.69 115.129 787.675 115.153L787.649 115.195C780.637 126.189 771.232 136.201 760.197 144.108C766.242 147.581 774.758 152.749 782.937 158.11C790.785 163.255 800.825 170.177 807.348 176.442C819.783 188.384 831.036 204.216 839.43 220.62C847.665 236.712 854.447 255.891 855.549 274.933C858.195 308.756 842.262 335.577 825.084 354.52L825.085 354.521C809.035 372.405 784.15 392.012 756.264 399.571C756.217 399.584 756.17 399.599 756.122 399.612C746.283 402.263 733.717 402.984 723.801 402.968C713.875 402.952 701.301 402.187 691.436 399.501C691.428 399.499 691.421 399.496 691.413 399.494C654.392 389.403 608.49 361.051 582.042 337.262C577.286 333.342 572.779 329.366 568.486 325.256C566.313 326.698 563.995 328.204 561.591 329.738C551.431 336.222 538.409 344.106 525.365 351.809C500.37 366.57 471.516 382.907 463.141 386.563C463.117 386.574 463.091 386.582 463.067 386.592C457.176 389.152 451.698 390.108 448.617 390.574C446.431 390.905 445.306 391.037 444.457 391.135C443.875 391.203 443.707 391.22 443.047 391.338C428.758 393.898 414.5 386.831 407.865 373.979L407.555 373.362C401.063 360.121 404.133 344.181 415.078 334.297C417.023 332.541 419.096 330.483 421.83 327.807C422.76 326.896 423.744 325.937 424.78 324.943C423.305 317.611 421.738 310.291 420.08 302.987C413.335 274.72 406.153 246.56 398.536 218.515C395.536 220.64 392.744 222.617 390.371 224.335L389.07 225.283L388.586 225.638L388.585 225.637C374.868 235.682 340.728 260.758 306.496 275.291C289.677 282.431 268.089 289.166 246.901 286.605C236.899 285.396 226.48 282.04 217.048 275.346C215.421 280.643 213.861 285.895 212.387 291.098C210.405 298.146 208.699 305.269 207.273 312.45L207.244 312.622C207.172 313.073 207.063 313.836 206.826 315.471C206.594 317.074 206.267 319.291 205.843 321.639L205.656 322.653C205.174 325.185 204.374 328.94 203.032 332.764C202.356 334.691 201.261 337.462 199.531 340.432C198.021 343.024 194.861 347.82 189.212 351.864C189.172 351.893 189.131 351.921 189.091 351.949L188.767 352.176C188.73 352.202 188.693 352.227 188.656 352.253C184.45 355.143 171.902 364.773 154.892 376.92C147.268 382.364 139.196 387.968 132.418 392.229C129.321 394.176 125.88 396.233 122.555 397.92L121.891 398.252C120.181 399.098 117.685 400.248 114.8 401.18L114.8 401.181L114.741 401.201C113.058 401.745 105.447 404.268 96.1635 402.302C90.3072 401.062 84.8955 398.254 80.5092 394.176C72.9105 387.111 70.4865 378.496 69.8075 376.08C68.7427 372.291 68.1873 368.556 67.8528 365.577C67.1705 359.499 66.9733 352.427 66.988 345.408C67.0179 331.142 67.9551 313.325 69.1676 295.891C69.7944 286.879 70.509 277.787 71.237 269.111C69.573 269.789 67.9164 270.485 66.2692 271.203C65.3507 271.619 64.6549 271.985 62.3931 273.098C60.7677 273.898 58.3313 275.079 55.5459 276.186C55.5001 276.204 55.454 276.222 55.4079 276.24L54.4418 276.613C54.3963 276.63 54.3503 276.648 54.3047 276.665C49.6753 278.399 44.2446 279.188 42.1071 279.471C40.4675 279.688 38.207 279.935 35.7915 280.003L35.7924 280.004C34.6077 280.038 32.7453 280.047 30.5746 279.837L30.5513 279.836L30.5468 279.835C29.1834 279.703 23.757 279.193 17.8267 276.116C4.75763 269.337 -2.24692 254.727 0.647107 240.294L0.801257 239.566C2.45703 232.122 6.12375 226.97 8.14488 224.448C10.4552 221.566 12.8336 219.412 14.4534 218.047C17.4373 215.532 20.6492 213.391 22.5946 212.117C23.2785 210.327 24.07 208.254 24.517 207.141L24.5412 207.081L24.5977 206.942L24.6183 206.891C27.5371 199.786 30.5752 192.729 33.7302 185.725C44.7288 161.086 56.2199 136.67 68.197 112.491C69.7312 109.359 72.9262 102.767 76.2683 96.3759C78.8612 91.4176 83.856 81.9356 88.9669 76.0174L89.026 75.9492L89.0879 75.8775C92.4265 72.055 96.2311 68.6674 100.411 65.7924C106.441 61.6068 112.638 58.1807 117.396 55.5665C122.665 52.671 126.244 50.7249 129.498 48.602C129.527 48.583 129.556 48.5643 129.585 48.5455L130.733 47.8079L130.837 47.7416C132.335 46.7972 134.419 45.546 136.814 44.3781C139.704 42.9691 145.386 40.4908 152.676 40.0108C161.115 39.4554 171.538 41.6877 180.195 49.6551C186.617 55.5662 189.705 62.5114 191.265 67.7237C191.809 67.2802 192.331 66.8565 192.825 66.4493L192.856 66.4242L194.085 65.4169C194.097 65.4073 194.109 65.3977 194.12 65.3882C207.49 54.5043 225.812 41.6017 249.511 36.9879C250.071 36.879 251.387 36.5895 254.294 35.9725C255.325 35.7538 256.469 35.5139 257.682 35.2636V33.0382C257.682 14.7918 272.474 6.05444e-05 290.72 0V14.6837ZM545.767 0V14.6837H290.72V0H545.767Z" fill="#FF3F3F"/>
</mask>
<g mask="url(#mask0_2003_12953)">
<rect x="283.857" y="-185.502" width="254.211" height="649.752" transform="rotate(18.0699 283.857 -185.502)" fill="#FFAC11"/>
<rect x="42.1855" y="-264.353" width="254.211" height="649.752" transform="rotate(18.0699 42.1855 -264.353)" fill="#EC4503"/>
<rect x="525.53" y="-106.652" width="254.211" height="649.752" transform="rotate(18.0699 525.53 -106.652)" fill="#FA017B"/>
<rect x="767.204" y="-27.8018" width="254.211" height="649.752" transform="rotate(18.0699 767.204 -27.8018)" fill="#00C299"/>
</g>
<path d="M679.359 71.1426C680.602 70.8736 683.812 70.9361 685.146 70.9648C703.071 71.3526 722.378 77.4773 736.683 88.3587C740.354 91.1488 745.771 96.6053 749.072 100.059C751.201 98.0444 757.827 92.2505 760.596 94.6591C760.828 95.8348 760.38 96.4971 759.798 97.4245C752.251 109.258 740.637 119.349 727.63 124.683C724.864 125.819 720.513 129.319 717.782 127.33C718.121 125.184 722.503 121.407 724.25 119.723C720.709 115.862 720.037 114.416 713.608 106.947C703.292 94.9541 681.605 84.8908 665.588 89.7294C664.499 90.0594 662.15 102.534 662.673 105.448C669.007 140.803 715.736 156.294 743.006 172.333C753.99 178.595 776.385 192.513 784.462 200.271C803.178 218.243 821.19 251.084 822.583 277.117C824.397 298.563 814.592 316.926 800.566 332.377C787.02 347.496 767.23 362.401 747.526 367.711C736.435 370.7 711.298 370.669 700.117 367.623C668.992 359.145 627.114 333.554 603.61 312.227C586.039 297.827 573.401 283.588 562.192 263.867C559.698 259.476 556.298 253.866 554.331 249.296C544.963 255.247 536.666 261.974 526.503 266.15C533.034 259.27 538.377 249.998 545.766 243.114C559.434 230.383 579.48 224.026 595.788 215.173C597.751 214.107 600.372 214.554 600.974 217.063C600.128 219.901 584.666 229.116 581.258 231.217L581.538 231.467C589.17 238.191 599.931 243.918 608.563 249.316C611.235 250.987 614.654 253.984 617.183 255.365C626.646 260.532 635.888 266.071 645.472 270.996C648.674 272.641 652.318 275.363 655.52 276.811C663.712 280.516 672.293 283.964 680.618 287.361C711.471 299.949 737.533 308.703 771.274 306.764C766.325 290.721 760.75 274.281 750.831 260.514C742.777 249.344 727.874 234.93 717.263 225.89C706.058 216.343 693.794 208.238 682.361 198.999C666.741 186.376 626.874 150.692 623.569 131.706C621.669 120.799 627.196 109.046 633.35 100.383C641.671 88.667 653.561 77.6169 667.595 73.3613C671.451 72.1916 675.405 71.8097 679.359 71.1426Z" fill="#F4F3F3"/>
<path d="M513.193 68.8162C517.891 68.6419 543.158 68.2946 545.278 71.204L544.802 71.8329C540.478 74.2388 522.502 76.9534 516.994 76.5467C516.191 81.1213 514.311 86.455 513.382 91.235C508.975 113.955 506.461 135.514 518.284 156.742C524.39 167.7 533.998 182.37 546.624 185.846C557.274 188.778 571.277 186.847 581.408 182.798C585.606 181.121 590.689 178.246 594.738 176.054C605.455 151.786 590.418 119.327 581.553 96.3331C579.098 89.9693 574.92 81.1261 573.515 74.7328C570.966 74.8571 562.094 74.7886 560.064 73.7959L560.548 73.2818C568.291 70.5432 587.03 71.781 595.182 73.6158C591.641 74.8122 588.911 75.2366 585.216 75.4549C595.93 90.8735 607.418 111.955 612.6 130.092C615.802 141.306 616.137 153.651 610.145 164.027C606.623 170.13 602.508 173.774 598.141 178.81C583.635 195.546 566.02 207.639 544.499 213.44C535.513 215.862 523.714 216.663 515.215 211.631C503.511 204.701 494.276 184.308 490.826 171.624C484.035 146.68 492.101 115.051 503.219 92.2529C505.576 87.4226 510.356 81.497 513.315 76.5239C509.302 76.4039 505.749 77.0545 501.492 76.8567C495.768 86.2069 489.307 91.9496 482.029 99.7974C474.026 108.428 466.33 115.95 457.86 124.057C451.431 130.209 446.93 135.945 439.447 141.55C459.414 184.908 478.629 228.813 500.619 271.198C505.08 279.795 510.006 288.13 514.464 296.74C521.715 292.041 534.525 290.992 542.941 289.225C546.876 288.398 558.58 284.721 561.488 287.081C561.634 287.923 561.834 288.486 561.342 289.267C557.018 296.13 462.066 350.984 449.924 356.284C446.033 357.981 441.386 358.072 437.22 358.818C446.049 350.846 450.742 344.806 461.247 337.216C459.638 332.603 458.324 324.301 457.372 319.436C455.771 311.425 454.063 303.436 452.253 295.47C444.75 264.018 436.712 232.696 428.143 201.518C424.878 189.155 419.995 173.554 417.487 161.471C403.776 175.271 385.214 187.157 369.55 198.627C341.868 218.897 243.259 291.217 223.745 230.073C221.422 222.76 220.622 215.049 221.391 207.416C223.335 186.457 233.396 174.844 243.09 156.879C254.932 135.853 271.542 115.3 291.391 101.218C307.415 90.9105 320.646 80.1565 338.905 73.6909C352.731 68.7949 385.699 66.0343 371.721 91.4686C362.768 107.758 343.937 119.05 328.82 129.426C309.558 142.647 290.663 151.561 267.88 157.931C262.657 168.988 259.245 181.779 262.747 193.975C275.124 237.076 324.817 216.86 351.597 201.94C358.341 198.583 364.165 194.997 369.731 189.831C384.358 176.252 400.137 162.725 413.844 148.259C407.739 128.151 401.972 103.006 397.705 82.4905C395.864 84.2289 389.453 87.9693 388.452 84.0731C388.769 83.0501 389.428 82.2812 390.285 81.6468C397.391 76.3827 406.714 75.9501 415.086 74.2616C416.29 74.0185 417.089 73.7853 418.331 73.9076L418.72 74.485C417.564 75.9744 411.063 77.1874 408.619 77.9619C417.696 93.9425 425.771 111.911 433.533 128.645C440.477 120.886 447.752 113.575 454.913 106.035C464.096 96.3606 475.808 83.4702 486.856 76.0283C484.948 75.6496 482.288 75.3845 481.069 73.9288L481.313 73.2169C485.42 70.2923 507.252 69.3157 513.193 68.8162ZM311.086 94.1958C291.074 111.693 282.716 128.733 271.11 151.817C275.349 150.165 281.599 148.274 285.273 146.688C306.65 138.186 334.115 128.739 344.243 106.173C346.228 101.749 346.245 97.9779 343.4 93.9642C337.448 90.7134 333.951 91.0238 327.326 91.2173C321.817 92.0141 316.517 93.3486 311.086 94.1958Z" fill="#F4F3F3"/>
<path d="M196.242 107.904C201.661 101.695 207.518 97.1504 213.831 91.9504C226.246 81.7239 239.727 72.5518 255.825 69.4179C259.515 68.6997 279.774 64.0189 281.744 65.3007C281.804 65.8246 281.988 66.5656 281.515 66.8783C275.643 70.765 262.134 75.7094 256.668 79.7963L256.461 79.9485C254.366 81.5225 250.475 89.7239 249.14 92.3854C233.637 123.302 221.68 156.915 210.679 189.72C200.601 219.768 189.213 251.681 180.592 282.122C178.346 290.104 176.418 298.172 174.81 306.307C173.997 310.553 172.945 322.963 169.946 325.024C161.94 330.525 108.919 371.233 103.006 369.981C94.2527 361.842 107.408 236.892 109.021 219.293L113.728 168.406C114.636 158.391 115.875 142.445 117.577 132.749C111.067 143.299 104.301 156.182 98.1792 167.138L62.7316 230.971C67.0353 230.125 83.5845 226.151 86.4594 227.778L86.4421 228.466C83.95 230.807 76.9625 231.896 73.2095 233.133C66.3094 235.469 59.5127 238.099 52.8382 241.018C49.4869 242.522 46.1335 244.446 42.7175 245.726C41.1642 246.307 34.2918 247.438 33.04 246.789C33.8968 242.516 47.8407 236.413 49.7309 232.884L49.8581 232.65C51.1687 230.202 53.9854 222.418 55.1784 219.445C57.9655 212.662 60.866 205.924 63.8788 199.238C74.7211 174.947 86.0502 150.877 97.8593 127.041C101.088 120.452 109.757 102.492 113.972 97.6117C115.507 95.854 117.258 94.2973 119.183 92.9789C128.104 86.7744 138.466 82.2002 147.553 76.2706C152.493 73.047 157.969 70.1349 159.831 78.0138C162.072 87.4938 161.884 97.9909 162.18 107.682L163.406 150.345L164.658 184.896C164.862 189.719 165.603 201.853 165.272 206.286C180.361 170.522 195.859 134.957 216.926 102.2L220.07 98.2442L215.796 100.774C205.221 105.975 207.353 105.363 196.242 107.904Z" fill="#F4F3F3"/>
<path d="M346.387 26.1593C357.359 26.6275 359.922 38.3941 357.832 47.2202C355.937 55.2217 347.165 60.5833 339.53 62.0504C321.535 60.9208 325.073 42.9556 334.465 33.7398C338.233 30.043 341.616 28.3888 346.387 26.1593ZM348.172 56.0111C354.119 53.1985 354.561 31.4177 339.06 31.2764C334.136 38.1958 332.611 47.6339 340.341 53.5344C342.804 55.4148 345.204 55.6048 348.172 56.0111Z" fill="#F4F3F3"/>
<path d="M464.619 31.3794C475.112 29.6157 483.764 38.66 478.539 48.8017C475.324 55.0439 466.775 60.1723 460.291 62.3139C437.2 63.7149 446.615 40.0901 458.473 32.7358C459.095 32.3493 462.085 32.6256 464.442 31.4672L464.619 31.3794ZM467.444 56.4154C469.986 54.9499 471.378 52.3969 472.157 49.4593C473.81 43.1998 469.942 36.9255 463.494 35.7688C461.361 35.3863 458.82 35.7018 456.569 35.8569C454.161 38.144 452.1 43.9344 452.068 47.221C451.982 55.7861 461.035 56.4827 467.444 56.4154Z" fill="#F4F3F3"/>
<path d="M368.461 27.2701C369.043 27.9589 368.843 28.5211 368.875 29.6271C369.894 30.0924 374.08 27.7055 375.817 27.7184C381.686 27.7616 392.704 30.0084 387.772 38.2876C385.888 41.4503 381.723 43.6588 378.598 45.5094C387.066 48.2758 394.889 55.8789 384.589 62.3945C378.572 59.0046 383.654 52.7391 369.366 49.5281C369.35 52.9448 369.316 55.1513 368.893 58.5196C367.951 59.1698 364.549 61.8113 363.602 61.4801C362.691 57.5057 365.706 30.9708 368.461 27.2701ZM369.696 46.1896C372.882 44.0551 374.548 43.6778 378.322 42.906C380.458 42.4168 383.416 40.4766 382.395 37.9275C380.352 32.8295 375.885 31.2725 370.953 30.4927C370.131 35.5273 369.91 41.0873 369.696 46.1896Z" fill="#F4F3F3"/>
<path d="M516.836 27.5794L517.395 27.8857C519.543 32.9401 517.458 47.8758 516.364 53.5458C514.059 55.3606 509.837 57.9784 507.276 59.6779C503.204 56.0508 495.087 45.4479 491.05 40.6573C490.724 45.7057 490.523 52.7356 489.107 57.3999C487.942 58.2707 486.498 59.2123 485.282 60.0543C484.594 60.3918 484.531 60.3599 483.74 60.3375C483.252 59.3755 483.575 54.4359 483.803 53.1737C484.594 48.7462 484.543 33.7991 488.705 31.6709L489.264 31.9237L489.488 33.8491C490.94 35.1336 491.09 30.5447 496.275 35.4299C500.501 39.4061 504.675 43.6437 508.81 47.7197C510.27 40.8609 511.316 32.1555 516.836 27.5794Z" fill="#F4F3F3"/>
<path d="M317.578 25.2549C319.652 26.6961 321.974 41.3674 322.268 45.0124C322.692 50.2809 324.547 57.8955 321.027 62.3383C319.863 63.8081 317.735 64.6616 316.188 63.3633C314.688 59.9674 315.297 47.6866 315.548 43.6369C310.983 45.0097 302.037 45.7858 297.013 46.3872C297.922 50.1732 298.653 55.0726 298.159 58.9346C296.534 60.7855 293.446 63.9399 290.862 63.3086C289.176 60.4917 291.601 38.8889 291.802 34.3668C291.87 32.8485 292.07 30.4444 293.343 29.426L294.147 29.8332C295.388 31.4986 296.585 42.0017 296.971 44.6983C301.327 43.3191 311.83 40.8707 316.096 40.3791C316.064 36.5734 315.59 28.2274 317.578 25.2549Z" fill="#F4F3F3"/>
<path d="M536.516 30.9654C538.664 31.0796 541.977 31.5255 542.914 33.826C539.857 36.008 533.353 30.8382 530.772 36.2338C531.154 41.9628 546.872 45.2724 545.782 52.7938C545.251 56.461 538.869 59.766 535.584 60.6722C532.708 61.4663 529.714 60.8268 526.857 60.2848C524.741 59.7656 522.762 59.5682 521.542 57.8038C521.109 54.0418 526.055 51.7444 529.084 50.6196C533.337 53.0243 534.423 54.3556 539.341 55.9938C535.623 50.0811 530.792 49.062 526.24 44.3419C519.878 37.7395 531.457 32.306 536.516 30.9654Z" fill="#F4F3F3"/>
<path d="M432.931 29.4357C435.009 29.2618 437.263 28.7818 438.951 29.9231C442.248 35.9088 421.164 54.9291 416.471 59.4412C421.706 59.2862 439.163 55.7995 442.291 58.8441L442.193 59.5257C439.226 62.1712 428.568 62.3788 424.649 62.3828C420.263 62.2333 415.38 63.1867 410.65 63.2032C414.808 57.0821 434.116 40.8436 434.033 33.9901C431.062 31.9893 416.727 34.9805 414.246 33.7458C416.157 31.9189 429.752 29.9452 432.931 29.4357Z" fill="#F4F3F3"/>
<path d="M398.368 29.7962C400.202 30.0191 400.913 30.9838 401.28 32.7895C402.903 40.7654 404.259 49.1053 404.911 57.2119C405.004 58.3674 403.381 59.5796 402.563 60.2994C401.058 61.226 400.022 62.0638 398.338 61.7582C396.5 58.6518 397.362 34.0304 398.368 29.7962Z" fill="#F4F3F3"/>
<path d="M215.796 100.774L220.07 98.2442L216.926 102.2L215.796 100.774Z" fill="#F4F3F3"/>
</svg>
