<svg preserveAspectRatio="none" width="100%" height="100%" overflow="visible" style="display: block;" viewBox="0 0 681 307.903" fill="none" xmlns="http://www.w3.org/2000/svg">
<g id="Nexus">
<g id="Vector (Stroke)">
<path d="M220.053 41.7076C218.43 40.6514 201.738 44.5083 198.697 45.1001C185.432 47.6824 174.324 55.2403 164.094 63.6668C158.893 67.9515 154.066 71.6957 149.601 76.8116C158.756 74.7181 156.999 75.223 165.714 70.9371L166.645 72.112C149.286 99.1036 136.515 128.408 124.082 157.878C124.355 154.224 123.745 144.227 123.576 140.253L122.545 111.783L121.534 76.6292C121.291 68.6438 121.445 59.9942 119.599 52.1828C118.064 45.6911 113.552 48.0903 109.482 50.7465C101.995 55.6323 93.4567 59.4015 86.1061 64.5138C84.5195 65.6002 83.0761 66.8834 81.8112 68.3317C78.3387 72.353 71.1951 87.1517 68.5349 92.581C58.8044 112.221 49.4695 132.055 40.5357 152.07C38.0532 157.58 35.663 163.131 33.3666 168.721C32.3836 171.17 30.0629 177.584 28.983 179.601L28.8781 179.794C27.3206 182.702 15.831 187.731 15.1248 191.251C16.1562 191.786 21.8188 190.855 23.0988 190.376C25.9135 189.321 28.677 187.735 31.4384 186.496C36.938 184.091 42.5384 181.924 48.2239 179.999C51.2198 179.012 56.717 178.139 58.9244 176.331L59.1275 176.154L59.1415 175.587C56.7724 174.246 43.1367 177.521 39.5904 178.218L68.7985 125.62C73.8429 116.592 79.4184 105.977 84.7828 97.2843C83.38 105.273 82.3588 118.413 81.6103 126.665L77.7326 168.595L77.3781 172.306C75.1181 195.591 66.0142 286.473 72.7759 292.76C77.4969 293.759 118.645 262.311 127.209 256.224L127.933 255.716C130.405 254.018 131.272 243.793 131.942 240.294C133.266 233.591 134.855 226.942 136.706 220.365C143.81 195.283 153.193 168.986 161.497 144.227C170.562 117.197 180.414 89.4995 193.188 64.025C194.288 61.8319 197.494 55.0742 199.221 53.7772L199.391 53.6516C203.895 50.2841 215.026 46.2099 219.865 43.0073C220.254 42.7496 220.103 42.1392 220.053 41.7076Z" fill="var(--fill-0, black)"/>
<path fill-rule="evenodd" clip-rule="evenodd" d="M437.202 46.5719C435.455 44.1747 414.636 44.461 410.765 44.6046C405.87 45.0162 387.881 45.8207 384.496 48.2305L384.295 48.8168C385.3 50.0162 387.491 50.235 389.063 50.5471C379.96 56.6791 370.309 67.3008 362.743 75.2719C356.842 81.4852 350.848 87.5087 345.126 93.9021C338.73 80.1136 332.077 65.3078 324.598 52.14C326.611 51.5019 331.967 50.5026 332.92 49.2754L332.6 48.7999C331.576 48.6991 330.918 48.8913 329.926 49.0916C323.027 50.4829 315.346 50.8391 309.49 55.1766C308.784 55.6993 308.24 56.3327 307.98 57.1756C308.804 60.386 314.087 57.3039 315.604 55.8715C319.12 72.7763 323.872 93.4955 328.903 110.064C317.608 121.983 304.606 133.13 292.554 144.318C287.967 148.576 283.168 151.531 277.611 154.297C255.717 166.494 215.237 182.988 204.644 148.557L204.4 147.734C201.514 137.684 204.326 127.145 208.63 118.034C227.402 112.785 242.972 105.44 258.843 94.5461C271.299 85.9964 286.817 76.6921 294.194 63.2695C305.711 42.3122 278.545 44.587 267.153 48.6212C252.108 53.9488 241.206 62.8101 228.002 71.3034C211.647 82.9065 197.961 99.8416 188.204 117.167L187.454 118.54C179.704 132.575 171.876 142.078 170.324 158.808C169.69 165.098 170.35 171.452 172.263 177.477L172.454 178.063C188.952 227.321 269.445 168.379 292.303 151.641L292.405 151.567C305.311 142.116 320.606 132.321 331.904 120.95C333.97 130.906 337.994 143.762 340.684 153.949C347.745 179.639 354.369 205.448 360.551 231.364C362.042 237.928 363.45 244.511 364.769 251.112C365.554 255.121 366.636 261.962 367.962 265.763C359.306 272.016 355.438 276.993 348.164 283.562C351.597 282.947 355.425 282.872 358.632 281.474C368.636 277.107 446.876 231.907 450.439 226.253C450.844 225.609 450.679 225.146 450.559 224.452C448.163 222.508 438.519 225.536 435.277 226.218C428.343 227.674 417.787 228.539 411.812 232.411C408.139 225.316 404.08 218.448 400.403 211.364C382.284 176.439 366.451 140.263 349.999 104.536C356.165 99.9177 359.874 95.1916 365.171 90.1226C372.151 83.4423 378.492 77.2439 385.086 70.1321C391.083 63.6658 396.406 58.9338 401.123 51.2294C404.631 51.3925 407.559 50.8566 410.865 50.9555C408.427 55.0532 404.488 59.9356 402.546 63.9157C393.385 82.7012 386.739 108.763 392.335 129.316C395.178 139.768 402.786 156.572 412.431 162.283C419.433 166.429 429.156 165.768 436.56 163.772C454.294 158.992 468.807 149.028 480.76 135.238C484.359 131.088 487.75 128.086 490.651 123.057C495.589 114.507 495.314 104.335 492.675 95.0948C488.405 80.1499 478.938 62.7792 470.111 50.0745C473.155 49.8946 475.405 49.545 478.323 48.5591C471.605 47.0473 456.164 46.0271 449.784 48.2837L449.386 48.7076C451.058 49.5255 458.368 49.5817 460.469 49.4793C461.627 54.7472 465.07 62.0343 467.093 67.2779C474.397 86.2249 486.787 112.97 477.956 132.967C474.62 134.773 470.432 137.142 466.973 138.524C458.755 141.808 447.446 143.401 438.724 141.145L438.311 141.035C427.908 138.171 419.992 126.083 414.96 117.054C405.218 99.5626 407.29 81.7978 410.921 63.0768C411.686 59.1383 413.235 54.7432 413.897 50.9739C418.436 51.3089 433.247 49.0727 436.81 47.0903L437.202 46.5719ZM270.857 65.3262C266.225 62.7963 263.397 62.884 258.498 63.0358C258.21 63.0448 257.916 63.0539 257.613 63.0627C255.206 63.4109 252.848 63.8834 250.496 64.3547C248.412 64.7722 246.333 65.1887 244.231 65.5167C228.04 79.6729 221.107 93.4662 211.808 111.968C211.637 112.309 211.464 112.652 211.291 112.996C212.822 112.399 214.671 111.765 216.52 111.131C218.89 110.317 221.261 109.504 222.961 108.77C224.155 108.295 225.371 107.817 226.604 107.332C243.576 100.66 263.771 92.7205 271.552 75.3856C273.188 71.74 273.201 68.6334 270.857 65.3262Z" fill="var(--fill-0, black)"/>
<path d="M304.383 75.4949C299.608 82.3919 293.591 87.9823 287.855 92.5581C280.93 98.0824 273.062 103.13 267.402 107.015C252.249 117.416 237.203 124.905 219.912 130.439C218.222 135.611 217.917 140.009 218.937 143.559L219.094 144.092C220.745 149.479 222.992 151.445 224.596 152.37C226.618 153.537 229.949 154.344 235.223 153.878C246.182 152.909 259.62 147.007 270.25 141.085L270.559 140.917C270.663 140.862 270.767 140.809 270.872 140.757C275.632 138.387 279.081 136.19 282.265 133.235C292.639 123.604 302.663 114.908 311.916 105.78C309.209 96.0327 306.651 85.5241 304.383 75.4949Z" fill="var(--fill-0, black)"/>
<path d="M441.445 61.5777C439.38 62.3966 437.345 62.9297 435.984 63.2651C433.521 63.8722 430.775 64.4025 428.141 64.8299C427.44 64.9436 426.7 65.0566 425.935 65.1674C425.873 65.4424 425.817 65.7056 425.767 65.9612C422.186 84.425 421.284 97.3261 428.173 109.695C430.507 113.883 433.151 118.107 436.049 121.45C439.092 124.961 441.271 126.164 442.326 126.454C447.042 127.753 455.108 126.979 461.361 124.48L461.82 124.29C462.891 123.836 464.092 123.24 465.429 122.539C466.354 117.607 465.892 111.305 463.908 103.419C461.297 93.0374 456.934 82.9708 452.981 72.7175C451.945 70.0332 451.033 68.0322 449.482 64.1734C448.477 64.0493 445.529 63.6571 442.741 62.294C442.295 62.0757 441.863 61.8357 441.445 61.5777Z" fill="var(--fill-0, black)"/>
<path d="M375.628 101.048L375.627 101.049C373.832 102.767 371.35 105.46 368.403 108.39C370.873 113.792 373.327 119.182 375.776 124.558C375.785 124.578 375.794 124.598 375.803 124.618C375.807 124.626 375.811 124.635 375.815 124.643L376.044 125.147C374.852 117.167 374.923 108.922 375.882 100.805C375.797 100.886 375.713 100.967 375.628 101.048Z" fill="var(--fill-0, black)"/>
<path d="M354.583 52.4856C354.084 52.6417 353.65 52.7628 353.3 52.8556C351.198 53.4125 349.08 53.7351 347.307 53.9382C346.803 55.4949 346.041 56.9857 345.022 58.3446C346.523 61.3278 347.987 64.332 349.418 67.3245C350.218 66.4909 351.005 65.6683 351.776 64.8572C354.579 61.9035 358.057 58.1415 361.924 54.2254C359.476 53.9676 356.987 53.4285 354.583 52.4856Z" fill="var(--fill-0, black)"/>
<path d="M395.81 167.933C400.5 177.825 405.282 187.647 410.229 197.386C410.401 197.184 410.579 196.986 410.763 196.792C412.739 194.711 414.563 192.238 417.371 188.552C419.197 186.154 421.415 183.285 424.031 180.45C417.895 180.311 411.328 179.038 405.305 175.631L404.726 175.296C401.37 173.309 398.406 170.743 395.81 167.933Z" fill="var(--fill-0, black)"/>
<path d="M552.452 46.3747C551.353 46.3511 548.707 46.2993 547.683 46.5209C544.425 47.0706 541.167 47.3856 537.99 48.3494C526.426 51.856 516.629 60.961 509.772 70.6151C504.702 77.7527 500.147 87.4373 501.713 96.4248C504.436 112.068 537.287 141.472 550.157 151.874C559.578 159.486 569.682 166.165 578.915 174.031C587.659 181.48 599.939 193.357 606.575 202.561C614.748 213.905 619.342 227.451 623.42 240.67C595.618 242.268 574.143 235.054 548.721 224.682C541.861 221.884 534.79 219.043 528.04 215.99C525.566 214.871 522.774 212.829 520.26 211.462L519.761 211.198C511.863 207.139 504.248 202.575 496.451 198.318C494.367 197.18 491.549 194.711 489.348 193.334C482.235 188.886 473.369 184.166 467.08 178.626L466.85 178.42C469.657 176.689 482.398 169.096 483.095 166.758C482.599 164.69 480.439 164.322 478.822 165.2C465.384 172.495 448.867 177.733 437.605 188.224C431.516 193.896 427.113 201.536 421.732 207.205C430.106 203.764 436.943 198.22 444.662 193.317C446.283 197.082 449.084 201.706 451.139 205.324C460.375 221.573 470.788 233.307 485.266 245.172C504.634 262.745 539.141 283.831 564.787 290.818C573.857 293.287 594.069 293.351 603.416 291.004L603.852 290.89C620.087 286.514 636.394 274.233 647.556 261.775C659.114 249.043 667.192 233.913 665.698 216.241C664.568 195.126 650.169 168.574 635.01 153.625L634.287 152.922C627.632 146.528 609.179 135.06 600.127 129.9C577.658 116.684 539.154 103.921 533.934 74.789C533.503 72.3872 535.438 62.108 536.336 61.8361C549.534 57.8493 567.403 66.1417 575.904 76.0237L576.843 77.1211C581.279 82.3346 581.938 83.5683 584.673 86.5506C583.234 87.938 579.623 91.0506 579.344 92.8188C581.593 94.4577 585.179 91.5737 587.458 90.6381C597.841 86.3802 607.146 78.4439 613.371 69.0872L613.964 68.1774L614.009 68.1057C614.437 67.4254 614.763 66.9075 614.651 66.0757L614.622 65.8985C612.34 63.9138 606.881 68.6882 605.127 70.3485C602.407 67.5024 597.942 63.0061 594.917 60.707C583.13 51.741 567.222 46.6943 552.452 46.3747Z" fill="var(--fill-0, black)"/>
<path d="M504.5 129.26C504.26 129.713 504.01 130.165 503.75 130.615L503.751 130.615C499.886 137.314 494.405 142.587 492.188 145.143C490.498 147.094 488.755 148.984 486.959 150.81C492.236 152.827 496.381 157.311 497.801 163.23C498.422 165.819 498.349 168.526 497.589 171.078C496.505 174.713 494.295 177.207 493.442 178.104C494.206 178.566 494.988 179.039 495.786 179.53L497.367 180.511L497.369 180.513C499.164 181.635 501.079 183.111 502.028 183.825C502.635 184.281 503.07 184.602 503.428 184.852C503.433 184.855 503.438 184.858 503.443 184.862C503.634 184.995 503.74 185.064 503.775 185.086L503.778 185.087L503.78 185.089C503.781 185.09 503.783 185.091 503.785 185.092L503.786 185.093C512.382 189.789 518.889 193.746 526.67 197.745C528.694 198.784 530.773 200.117 531.902 200.821C533.026 201.522 533.645 201.883 533.998 202.072L534.272 202.209L534.274 202.21C539.094 204.39 544.094 206.461 549.24 208.562L554.433 210.678C571.868 217.791 586.344 222.922 601.789 224.886C599.647 219.968 597.231 215.465 594.307 211.406C588.734 203.675 577.54 192.728 569.108 185.544C564.915 181.972 560.443 178.601 555.594 175.003C550.861 171.491 545.666 167.69 540.651 163.638L540.65 163.636C533.845 158.136 521.915 147.752 511.209 136.578C508.938 134.208 506.677 131.753 504.5 129.26Z" fill="var(--fill-0, black)"/>
<path d="M429.983 13.4159C425.814 14.5205 416.273 18.9974 421.515 24.4376C425.266 28.3269 429.247 29.1667 432.311 34.0385C428.258 32.6887 427.363 31.5921 423.859 29.6106C421.362 30.5375 417.287 32.4304 417.644 35.5302C418.649 36.984 420.28 37.1466 422.024 37.5743C424.377 38.0209 426.844 38.5483 429.214 37.8941C431.921 37.1474 437.179 34.4239 437.617 31.4022C438.515 25.2046 425.564 22.4773 425.249 17.7567C427.376 13.3109 432.735 17.5708 435.254 15.7731C434.483 13.8776 431.753 13.51 429.983 13.4159Z" fill="var(--fill-0, black)"/>
<path d="M413.767 10.626C409.218 14.3966 408.356 21.5694 407.153 27.2209C403.746 23.8625 400.306 20.3706 396.825 17.0942C392.552 13.069 392.428 16.85 391.232 15.7916L391.048 14.2053L390.588 13.9971C387.158 15.7507 387.2 28.0671 386.548 31.7153C386.36 32.7553 386.094 36.8248 386.496 37.6179C387.147 37.6364 387.199 37.6626 387.767 37.3845C388.768 36.6907 389.958 35.9147 390.918 35.1972C392.085 31.3539 392.25 25.5615 392.519 21.4018C395.846 25.3491 402.533 34.0855 405.889 37.0744C407.999 35.674 411.478 33.5171 413.378 32.0217C414.279 27.3497 415.997 15.0425 414.227 10.8778L413.767 10.626Z" fill="var(--fill-0, black)"/>
<path fill-rule="evenodd" clip-rule="evenodd" d="M382.21 28.1123C386.515 19.7558 379.386 12.3039 370.74 13.7571L370.594 13.8295C368.653 14.7836 366.189 14.5561 365.677 14.8744C355.906 20.9342 348.148 40.4006 367.174 39.2462C372.517 37.4816 379.562 33.2558 382.21 28.1123ZM369.813 17.3734C368.357 17.1124 366.67 17.2464 365.08 17.3726C364.751 17.3988 364.425 17.4246 364.107 17.4465C362.123 19.3312 360.425 24.1023 360.399 26.8103C360.328 33.8677 367.787 34.4418 373.068 34.3863C375.162 33.1788 376.31 31.0749 376.952 28.6543C378.313 23.4966 375.126 18.3265 369.813 17.3734Z" fill="var(--fill-0, black)"/>
<path fill-rule="evenodd" clip-rule="evenodd" d="M503.78 185.089L503.778 185.087L503.775 185.086C503.777 185.087 503.778 185.088 503.78 185.089ZM503.718 185.054C503.725 185.059 503.732 185.062 503.739 185.066L503.739 185.066C503.733 185.063 503.726 185.059 503.718 185.054ZM258.498 63.0358C258.21 63.0448 257.916 63.0539 257.613 63.0627C255.206 63.4109 252.848 63.8834 250.496 64.3547C248.412 64.7722 246.333 65.1887 244.231 65.5167C228.04 79.6729 221.107 93.4662 211.808 111.968C211.637 112.309 211.464 112.652 211.291 112.996C212.822 112.399 214.671 111.765 216.52 111.131C218.89 110.317 221.261 109.504 222.961 108.77C224.155 108.295 225.371 107.817 226.604 107.332C243.576 100.66 263.771 92.7205 271.552 75.3856C273.188 71.74 273.201 68.6334 270.857 65.3262C266.225 62.7963 263.397 62.884 258.498 63.0358ZM365.08 17.3726C364.751 17.3988 364.425 17.4246 364.107 17.4465C362.123 19.3312 360.425 24.1023 360.399 26.8103C360.328 33.8677 367.787 34.4418 373.068 34.3863C375.162 33.1788 376.31 31.0749 376.952 28.6543C378.313 23.4966 375.126 18.3265 369.813 17.3734C368.357 17.1124 366.67 17.2464 365.08 17.3726ZM274.789 34.0533C279.689 31.7358 280.054 13.7887 267.281 13.6722C263.224 19.3736 261.968 27.1502 268.336 32.0121C270.209 33.4423 272.039 33.6861 274.232 33.9784C274.415 34.0028 274.601 34.0275 274.789 34.0533ZM302.988 19.1524C301.305 14.9518 297.625 13.6685 293.561 13.026C292.895 17.1027 292.707 21.598 292.534 25.7421L292.525 25.9604C295.151 24.2016 296.522 23.8905 299.633 23.2546C301.392 22.8515 303.83 21.2528 302.988 19.1524Z" fill="var(--fill-0, black)"/>
<path fill-rule="evenodd" clip-rule="evenodd" d="M198.697 45.1001C201.738 44.5083 218.43 40.6514 220.053 41.7076C220.103 42.1392 220.254 42.7496 219.865 43.0073C215.026 46.2099 203.895 50.2841 199.391 53.6516L199.221 53.7772C197.494 55.0742 194.288 61.8319 193.188 64.025C180.414 89.4995 170.562 117.197 161.497 144.227C153.193 168.986 143.81 195.283 136.706 220.365C134.855 226.942 133.266 233.591 131.942 240.294C131.272 243.793 130.405 254.018 127.933 255.716L127.209 256.224C118.645 262.311 77.4969 293.759 72.7759 292.76C66.0142 286.473 75.1181 195.591 77.3781 172.306L77.7326 168.595L81.6103 126.665C82.3588 118.413 83.38 105.273 84.7828 97.2843C79.4184 105.977 73.8429 116.592 68.7985 125.62L39.5904 178.218C43.1367 177.521 56.7724 174.246 59.1415 175.587L59.1275 176.154L58.9244 176.331C56.717 178.139 51.2198 179.012 48.2239 179.999C42.5384 181.924 36.938 184.091 31.4384 186.496C28.677 187.735 25.9135 189.321 23.0988 190.376C21.8188 190.855 16.1562 191.786 15.1248 191.251C15.831 187.731 27.3206 182.702 28.8781 179.794L28.983 179.601C30.0629 177.584 32.3836 171.17 33.3666 168.721C35.663 163.131 38.0532 157.58 40.5357 152.07C49.4695 132.055 58.8044 112.221 68.5349 92.581C71.1951 87.1517 78.3387 72.353 81.8112 68.3317C83.0761 66.8834 84.5195 65.6002 86.1061 64.5138C93.4567 59.4015 101.995 55.6323 109.482 50.7465C113.552 48.0903 118.064 45.6911 119.599 52.1828C121.445 59.9942 121.291 68.6438 121.534 76.6292L122.545 111.783L123.576 140.253C123.745 144.227 124.355 154.224 124.082 157.878C136.515 128.408 149.286 99.1036 166.645 72.112L165.714 70.9371C156.999 75.223 158.756 74.7181 149.601 76.8116C154.066 71.6957 158.893 67.9515 164.094 63.6668C174.324 55.2403 185.432 47.6824 198.697 45.1001ZM547.683 46.5209C548.707 46.2993 551.353 46.3511 552.452 46.3747C567.222 46.6943 583.13 51.741 594.917 60.707C597.942 63.0061 602.407 67.5024 605.127 70.3485C606.881 68.6882 612.34 63.9138 614.622 65.8985L614.651 66.0757C614.763 66.9075 614.437 67.4254 614.009 68.1057L613.964 68.1774L613.371 69.0872C607.146 78.4439 597.841 86.3802 587.458 90.6381C585.179 91.5737 581.593 94.4577 579.344 92.8188C579.623 91.0506 583.234 87.938 584.673 86.5506C581.938 83.5683 581.279 82.3346 576.843 77.1211L575.904 76.0237C567.403 66.1417 549.534 57.8493 536.336 61.8361C535.438 62.108 533.503 72.3872 533.934 74.789C539.154 103.921 577.658 116.684 600.127 129.9C609.179 135.06 627.632 146.528 634.287 152.922L635.01 153.625C650.169 168.574 664.568 195.126 665.698 216.241C667.192 233.913 659.114 249.043 647.556 261.775C636.394 274.233 620.087 286.514 603.852 290.89L603.416 291.004C594.069 293.351 573.857 293.287 564.787 290.818C539.141 283.831 504.634 262.745 485.266 245.172C470.788 233.307 460.375 221.573 451.139 205.324C449.084 201.706 446.283 197.082 444.662 193.317C436.943 198.22 430.106 203.764 421.732 207.205C427.113 201.536 431.516 193.896 437.605 188.224C448.867 177.733 465.384 172.495 478.822 165.2C480.439 164.322 482.599 164.69 483.095 166.758C482.398 169.096 469.657 176.689 466.85 178.42L467.08 178.626C473.369 184.166 482.235 188.886 489.348 193.334C491.549 194.711 494.367 197.18 496.451 198.318C504.248 202.575 511.863 207.139 519.761 211.198L520.26 211.462C522.774 212.829 525.566 214.871 528.04 215.99C534.79 219.043 541.861 221.884 548.721 224.682C574.143 235.054 595.618 242.268 623.42 240.67C619.342 227.451 614.748 213.905 606.575 202.561C599.939 193.357 587.659 181.48 578.915 174.031C569.682 166.165 559.578 159.486 550.157 151.874C537.287 141.472 504.436 112.068 501.713 96.4248C500.147 87.4373 504.702 77.7527 509.772 70.6151C516.629 60.961 526.426 51.856 537.99 48.3494C541.167 47.3856 544.425 47.0706 547.683 46.5209ZM410.765 44.6046C414.636 44.461 435.455 44.1747 437.202 46.5719L436.81 47.0903C433.247 49.0727 418.436 51.3089 413.897 50.9739C413.235 54.7432 411.686 59.1383 410.921 63.0768C407.29 81.7978 405.218 99.5626 414.96 117.054C419.992 126.083 427.908 138.171 438.311 141.035L438.724 141.145C447.446 143.401 458.755 141.808 466.973 138.524C470.432 137.142 474.62 134.773 477.956 132.967C486.787 112.97 474.397 86.2249 467.093 67.2779C465.07 62.0343 461.627 54.7472 460.469 49.4793C458.368 49.5817 451.058 49.5255 449.386 48.7076L449.784 48.2837C456.164 46.0271 471.605 47.0473 478.323 48.5591C475.405 49.545 473.155 49.8946 470.111 50.0745C478.938 62.7792 488.405 80.1499 492.675 95.0948C495.314 104.335 495.589 114.507 490.651 123.057C487.75 128.086 484.359 131.088 480.76 135.238C468.807 149.028 454.294 158.992 436.56 163.772C429.156 165.768 419.433 166.429 412.431 162.283C402.786 156.572 395.178 139.768 392.335 129.316C386.739 108.763 393.385 82.7012 402.546 63.9157C404.488 59.9356 408.427 55.0532 410.865 50.9555C407.559 50.8566 404.631 51.3925 401.123 51.2294C396.406 58.9338 391.083 63.6658 385.086 70.1321C378.492 77.2439 372.151 83.4423 365.171 90.1226C359.874 95.1916 356.165 99.9177 349.999 104.536C366.451 140.263 382.284 176.439 400.403 211.364C404.08 218.448 408.139 225.316 411.812 232.411C417.787 228.539 428.343 227.674 435.277 226.218C438.519 225.536 448.163 222.508 450.559 224.452C450.679 225.146 450.844 225.609 450.439 226.253C446.876 231.907 368.636 277.107 358.632 281.474C355.425 282.872 351.597 282.947 348.164 283.562C355.438 276.993 359.306 272.016 367.962 265.763C366.636 261.962 365.554 255.121 364.769 251.112C363.45 244.511 362.042 237.928 360.551 231.364C354.369 205.448 347.745 179.639 340.684 153.949C337.994 143.762 333.97 130.906 331.904 120.95C320.606 132.321 305.311 142.116 292.405 151.567L292.303 151.641C269.445 168.379 188.952 227.321 172.454 178.063L172.263 177.477C170.35 171.452 169.69 165.098 170.324 158.808C171.876 142.078 179.704 132.575 187.454 118.54L188.204 117.167C197.961 99.8416 211.647 82.9065 228.002 71.3034C241.206 62.8101 252.108 53.9488 267.153 48.6212C278.545 44.587 305.711 42.3122 294.194 63.2695C286.817 76.6921 271.299 85.9964 258.843 94.5461C242.972 105.44 227.402 112.785 208.63 118.034C204.326 127.145 201.514 137.684 204.4 147.734L204.644 148.557C215.237 182.988 255.717 166.494 277.611 154.297C283.168 151.531 287.967 148.576 292.554 144.318C304.606 133.13 317.608 121.983 328.903 110.064C323.872 93.4955 319.12 72.7763 315.604 55.8715C314.087 57.3039 308.804 60.386 307.98 57.1756C308.24 56.3327 308.784 55.6993 309.49 55.1766C315.346 50.8391 323.027 50.4829 329.926 49.0916C330.918 48.8913 331.576 48.6991 332.6 48.7999L332.92 49.2754C331.967 50.5026 326.611 51.5019 324.598 52.14C332.077 65.3078 338.73 80.1136 345.126 93.9021C350.848 87.5087 356.842 81.4852 362.743 75.2719C370.309 67.3008 379.96 56.6791 389.063 50.5471C387.491 50.235 385.3 50.0162 384.295 48.8168L384.496 48.2305C387.881 45.8207 405.87 45.0162 410.765 44.6046ZM503.75 130.615C504.01 130.165 504.26 129.713 504.5 129.26C506.677 131.753 508.938 134.208 511.209 136.578C521.915 147.752 533.845 158.136 540.65 163.636L540.651 163.638C545.666 167.69 550.861 171.491 555.594 175.003C560.443 178.601 564.915 181.972 569.108 185.544C577.54 192.728 588.734 203.675 594.307 211.406C597.231 215.465 599.647 219.968 601.789 224.886C586.344 222.922 571.868 217.791 554.433 210.678L549.24 208.562C544.094 206.461 539.094 204.39 534.274 202.21L534.272 202.209L533.998 202.072C533.645 201.883 533.026 201.522 531.902 200.821C530.773 200.117 528.694 198.784 526.67 197.745C518.889 193.746 512.382 189.789 503.786 185.093L503.785 185.092C503.783 185.091 503.781 185.09 503.78 185.089C503.778 185.088 503.777 185.087 503.775 185.086L503.772 185.085C503.765 185.081 503.758 185.077 503.751 185.073C503.76 185.078 503.767 185.082 503.772 185.085L503.775 185.086L503.778 185.087C503.746 185.067 503.639 184.998 503.443 184.862C503.438 184.858 503.433 184.855 503.428 184.852C503.07 184.602 502.635 184.281 502.028 183.825C501.079 183.111 499.164 181.635 497.369 180.513L497.367 180.511L495.786 179.53C494.988 179.039 494.206 178.566 493.442 178.104C494.295 177.207 496.505 174.713 497.589 171.078C498.349 168.526 498.422 165.819 497.801 163.23C496.381 157.311 492.236 152.827 486.959 150.81C488.755 148.984 490.498 147.094 492.188 145.143C494.405 142.587 499.886 137.314 503.751 130.615L503.75 130.615ZM410.229 197.386C405.282 187.647 400.5 177.825 395.81 167.933C398.406 170.743 401.37 173.309 404.726 175.296L405.305 175.631C411.328 179.038 417.895 180.311 424.031 180.45C421.415 183.285 419.197 186.154 417.371 188.552C414.563 192.238 412.739 194.711 410.763 196.792C410.579 196.986 410.401 197.184 410.229 197.386ZM287.855 92.5581C293.591 87.9823 299.608 82.3919 304.383 75.4949C306.651 85.5241 309.209 96.0327 311.916 105.78C302.663 114.908 292.639 123.604 282.265 133.235C279.081 136.19 275.632 138.387 270.872 140.757C270.767 140.809 270.663 140.862 270.559 140.917L270.25 141.085C259.62 147.007 246.182 152.909 235.223 153.878C229.949 154.344 226.618 153.537 224.596 152.37C222.992 151.445 220.745 149.479 219.094 144.092L218.937 143.559C217.917 140.009 218.222 135.611 219.912 130.439C237.203 124.905 252.249 117.416 267.402 107.015C273.062 103.13 280.93 98.0824 287.855 92.5581ZM435.984 63.2651C437.345 62.9297 439.38 62.3966 441.445 61.5777C441.863 61.8357 442.295 62.0757 442.741 62.294C445.529 63.6571 448.477 64.0493 449.482 64.1734C451.033 68.0322 451.945 70.0332 452.981 72.7175C456.934 82.9708 461.297 93.0374 463.908 103.419C465.892 111.305 466.354 117.607 465.429 122.539C464.092 123.24 462.891 123.836 461.82 124.29L461.361 124.48C455.108 126.979 447.042 127.753 442.326 126.454C441.271 126.164 439.092 124.961 436.049 121.45C433.151 118.107 430.507 113.883 428.173 109.695C421.284 97.3261 422.186 84.425 425.767 65.9612C425.817 65.7056 425.873 65.4424 425.935 65.1674C426.7 65.0566 427.44 64.9436 428.141 64.8299C430.775 64.4025 433.521 63.8722 435.984 63.2651ZM375.627 101.049L375.628 101.048C375.713 100.967 375.797 100.886 375.882 100.805C374.923 108.922 374.852 117.167 376.044 125.147L375.815 124.643L375.803 124.618C375.794 124.598 375.785 124.578 375.776 124.558C373.327 119.182 370.873 113.792 368.403 108.39C371.35 105.46 373.832 102.767 375.627 101.049ZM139.674 88.2233C138.816 89.8193 137.971 91.42 137.135 93.0233L136.906 85.0308C137.688 86.2392 138.623 87.3087 139.674 88.2233ZM564.223 92.4806C557.24 87.3611 552.692 82.3466 550.361 77.1004C551.009 77.3061 551.679 77.5427 552.369 77.813C557.585 79.8544 562.018 83.0725 564.438 85.886L564.441 85.8897C564.764 86.2647 565.067 86.6193 565.353 86.9553C564.954 87.9908 564.608 89.1682 564.404 90.4631C564.298 91.1365 564.238 91.8105 564.223 92.4806ZM210.752 64.4548C211.758 63.935 212.892 63.3858 214.158 62.788C212.128 64.3948 210.144 66.0667 208.208 67.7956C208.539 67.1441 208.888 66.4676 209.259 65.7848C209.412 65.5038 209.553 65.2508 209.681 65.0256C209.992 64.8538 210.348 64.6638 210.752 64.4548ZM353.3 52.8556C353.65 52.7628 354.084 52.6417 354.583 52.4856C356.987 53.4285 359.476 53.9676 361.924 54.2254C358.057 58.1415 354.579 61.9035 351.776 64.8572C351.005 65.6683 350.218 66.4909 349.418 67.3245C347.987 64.332 346.523 61.3278 345.022 58.3446C346.041 56.9857 346.803 55.4949 347.307 53.9382C349.08 53.7351 351.198 53.4125 353.3 52.8556ZM248.359 21.1728C248.333 18.037 247.942 11.1597 249.58 8.71035C251.289 9.89782 253.203 21.986 253.444 24.99C253.794 29.3312 255.323 35.6061 252.423 39.2669C251.463 40.4779 249.71 41.1807 248.435 40.111C247.199 37.3129 247.701 27.1945 247.908 23.8572C244.147 24.9884 236.775 25.6273 232.635 26.1228C233.384 29.2424 233.987 33.28 233.58 36.4622C232.24 37.9873 229.696 40.5859 227.567 40.0659C226.178 37.7447 228.176 19.9446 228.341 16.2184C228.397 14.9673 228.562 12.9864 229.611 12.1472L230.274 12.4825C231.296 13.8547 232.282 22.5095 232.601 24.7315C236.191 23.595 244.844 21.5779 248.359 21.1728ZM344.63 12.1553C346.342 12.0121 348.2 11.6167 349.59 12.5571C352.306 17.4895 334.934 33.1615 331.067 36.8794C335.381 36.7517 349.765 33.8789 352.343 36.3876L352.261 36.9488C349.817 39.1286 341.035 39.2998 337.806 39.3031C334.191 39.1799 330.168 39.9659 326.271 39.9795C329.697 34.9359 345.605 21.5556 345.538 15.9083C343.09 14.2597 331.278 16.7241 329.234 15.7067C330.808 14.2013 342.011 12.5752 344.63 12.1553ZM370.74 13.7571C379.386 12.3039 386.515 19.7558 382.21 28.1123C379.562 33.2558 372.517 37.4816 367.174 39.2462C348.148 40.4006 355.906 20.9342 365.677 14.8744C366.189 14.5561 368.653 14.7836 370.594 13.8295L370.74 13.7571ZM316.126 38.7884C314.611 36.2278 315.322 15.941 316.151 12.4522C317.661 12.6359 318.248 13.4309 318.55 14.9187C319.887 21.4908 321.004 28.3631 321.542 35.0428C321.618 35.9949 320.281 36.9939 319.607 37.5869C318.367 38.3504 317.513 39.0402 316.126 38.7884ZM421.515 24.4376C416.273 18.9974 425.814 14.5205 429.983 13.4159C431.753 13.51 434.483 13.8776 435.254 15.7731C432.735 17.5708 427.376 13.3109 425.249 17.7567C425.564 22.4773 438.515 25.2046 437.617 31.4022C437.179 34.4239 431.921 37.1474 429.214 37.8941C426.844 38.5483 424.377 38.0209 422.024 37.5743C420.28 37.1466 418.649 36.984 417.644 35.5302C417.287 32.4304 421.362 30.5375 423.859 29.6106C427.363 31.5921 428.258 32.6887 432.311 34.0385C429.247 29.1667 425.266 28.3269 421.515 24.4376ZM407.153 27.2209C408.356 21.5694 409.218 14.3966 413.767 10.626L414.227 10.8778C415.997 15.0425 414.279 27.3497 413.378 32.0217C411.478 33.5171 407.999 35.674 405.889 37.0744C402.533 34.0855 395.846 25.3491 392.519 21.4018C392.25 25.5615 392.085 31.3539 390.918 35.1972C389.958 35.9147 388.768 36.6907 387.767 37.3845C387.199 37.6626 387.147 37.6364 386.496 37.6179C386.094 36.8248 386.36 32.7553 386.548 31.7153C387.2 28.0671 387.158 15.7507 390.588 13.9971L391.048 14.2053L391.232 15.7916C392.428 16.85 392.552 13.069 396.825 17.0942C400.306 20.3706 403.746 23.8625 407.153 27.2209Z" fill="var(--fill-0, black)"/>
<path d="M349.59 12.5571C348.2 11.6167 346.342 12.0121 344.63 12.1553C342.011 12.5752 330.808 14.2013 329.234 15.7067C331.278 16.7241 343.09 14.2597 345.538 15.9083C345.605 21.5556 329.697 34.9359 326.271 39.9795C330.168 39.9659 334.191 39.1799 337.806 39.3031C341.035 39.2998 349.817 39.1286 352.261 36.9488L352.343 36.3876C349.765 33.8789 335.381 36.7517 331.067 36.8794C334.934 33.1615 352.306 17.4895 349.59 12.5571Z" fill="var(--fill-0, black)"/>
<path d="M316.151 12.4522C315.322 15.941 314.611 36.2278 316.126 38.7884C317.513 39.0402 318.367 38.3504 319.607 37.5869C320.281 36.9939 321.618 35.9949 321.542 35.0428C321.004 28.3631 319.887 21.4908 318.55 14.9187C318.248 13.4309 317.661 12.6359 316.151 12.4522Z" fill="var(--fill-0, black)"/>
<path fill-rule="evenodd" clip-rule="evenodd" d="M302.988 19.1524C301.305 14.9518 297.625 13.6685 293.561 13.026C292.895 17.1027 292.707 21.598 292.534 25.7421L292.525 25.9604C295.151 24.2016 296.522 23.8905 299.633 23.2546C301.392 22.8515 303.83 21.2528 302.988 19.1524Z" fill="var(--fill-0, black)"/>
<path fill-rule="evenodd" clip-rule="evenodd" d="M274.789 34.0533C279.689 31.7358 280.054 13.7887 267.281 13.6722C263.224 19.3736 261.968 27.1502 268.336 32.0121C270.209 33.4423 272.039 33.6861 274.232 33.9784C274.415 34.0028 274.601 34.0275 274.789 34.0533Z" fill="var(--fill-0, black)"/>
<path d="M249.58 8.71035C247.942 11.1597 248.333 18.037 248.359 21.1728C244.844 21.5779 236.191 23.595 232.601 24.7315C232.282 22.5095 231.296 13.8547 230.274 12.4825L229.611 12.1472C228.562 12.9864 228.397 14.9673 228.341 16.2184C228.176 19.9446 226.178 37.7447 227.567 40.0659C229.696 40.5859 232.24 37.9873 233.58 36.4622C233.987 33.28 233.384 29.2424 232.635 26.1228C236.775 25.6273 244.147 24.9884 247.908 23.8572C247.701 27.1945 247.199 37.3129 248.435 40.111C249.71 41.1807 251.463 40.4779 252.423 39.2669C255.323 35.6061 253.794 29.3312 253.444 24.99C253.203 21.986 251.289 9.89782 249.58 8.71035Z" fill="var(--fill-0, black)"/>
<path d="M214.158 62.788C212.892 63.3858 211.758 63.935 210.752 64.4548C210.348 64.6638 209.992 64.8538 209.681 65.0256C209.553 65.2508 209.412 65.5038 209.259 65.7848C208.888 66.4676 208.539 67.1441 208.208 67.7956C210.144 66.0667 212.128 64.3948 214.158 62.788Z" fill="var(--fill-0, black)"/>
<path d="M137.135 93.0233C137.971 91.42 138.816 89.8193 139.674 88.2233C138.623 87.3087 137.688 86.2392 136.906 85.0308L137.135 93.0233Z" fill="var(--fill-0, black)"/>
<path d="M550.361 77.1004C552.692 82.3466 557.24 87.3611 564.223 92.4806C564.238 91.8105 564.298 91.1365 564.404 90.4631C564.608 89.1682 564.954 87.9908 565.353 86.9553C565.067 86.6193 564.764 86.2647 564.441 85.8897L564.438 85.886C562.018 83.0725 557.585 79.8544 552.369 77.813C551.679 77.5427 551.009 77.3061 550.361 77.1004Z" fill="var(--fill-0, black)"/>
<path fill-rule="evenodd" clip-rule="evenodd" d="M198.697 45.1001C201.738 44.5083 218.43 40.6514 220.053 41.7076C220.103 42.1392 220.254 42.7496 219.865 43.0073C215.026 46.2099 203.895 50.2841 199.391 53.6516L199.221 53.7772C197.494 55.0742 194.288 61.8319 193.188 64.025C180.414 89.4995 170.562 117.197 161.497 144.227C153.193 168.986 143.81 195.283 136.706 220.365C134.855 226.942 133.266 233.591 131.942 240.294C131.272 243.793 130.405 254.018 127.933 255.716L127.209 256.224C118.645 262.311 77.4969 293.759 72.7759 292.76C66.0142 286.473 75.1181 195.591 77.3781 172.306L77.7326 168.595L81.6103 126.665C82.3588 118.413 83.38 105.273 84.7828 97.2843C79.4184 105.977 73.8429 116.592 68.7985 125.62L39.5904 178.218C43.1367 177.521 56.7724 174.246 59.1415 175.587L59.1275 176.154L58.9244 176.331C56.717 178.139 51.2198 179.012 48.2239 179.999C42.5384 181.924 36.938 184.091 31.4384 186.496C28.677 187.735 25.9135 189.321 23.0988 190.376C21.8188 190.855 16.1562 191.786 15.1248 191.251C15.831 187.731 27.3206 182.702 28.8781 179.794L28.983 179.601C30.0629 177.584 32.3836 171.17 33.3666 168.721C35.663 163.131 38.0532 157.58 40.5357 152.07C49.4695 132.055 58.8044 112.221 68.5349 92.581C71.1951 87.1517 78.3387 72.353 81.8112 68.3317C83.0761 66.8834 84.5195 65.6002 86.1061 64.5138C93.4567 59.4015 101.995 55.6323 109.482 50.7465C113.552 48.0903 118.064 45.6911 119.599 52.1828C121.445 59.9942 121.291 68.6438 121.534 76.6292L122.545 111.783L123.576 140.253C123.745 144.227 124.355 154.224 124.082 157.878C136.515 128.408 149.286 99.1036 166.645 72.112L165.714 70.9371C156.999 75.223 158.756 74.7181 149.601 76.8116C154.066 71.6957 158.893 67.9515 164.094 63.6668C174.324 55.2403 185.432 47.6824 198.697 45.1001ZM547.683 46.5209C548.707 46.2993 551.353 46.3511 552.452 46.3747C567.222 46.6943 583.13 51.741 594.917 60.707C597.942 63.0061 602.407 67.5024 605.127 70.3485C606.881 68.6882 612.34 63.9138 614.622 65.8985L614.651 66.0757C614.763 66.9075 614.437 67.4254 614.009 68.1057L613.964 68.1774L613.371 69.0872C607.146 78.4439 597.841 86.3802 587.458 90.6381C585.179 91.5737 581.593 94.4577 579.344 92.8188C579.623 91.0506 583.234 87.938 584.673 86.5506C581.938 83.5683 581.279 82.3346 576.843 77.1211L575.904 76.0237C567.403 66.1417 549.534 57.8493 536.336 61.8361C535.438 62.108 533.503 72.3872 533.934 74.789C539.154 103.921 577.658 116.684 600.127 129.9C609.179 135.06 627.632 146.528 634.287 152.922L635.01 153.625C650.169 168.574 664.568 195.126 665.698 216.241C667.192 233.913 659.114 249.043 647.556 261.775C636.394 274.233 620.087 286.514 603.852 290.89L603.416 291.004C594.069 293.351 573.857 293.287 564.787 290.818C539.141 283.831 504.634 262.745 485.266 245.172C470.788 233.307 460.375 221.573 451.139 205.324C449.084 201.706 446.283 197.082 444.662 193.317C436.943 198.22 430.106 203.764 421.732 207.205C427.113 201.536 431.516 193.896 437.605 188.224C448.867 177.733 465.384 172.495 478.822 165.2C480.439 164.322 482.599 164.69 483.095 166.758C482.398 169.096 469.657 176.689 466.85 178.42L467.08 178.626C473.369 184.166 482.235 188.886 489.348 193.334C491.549 194.711 494.367 197.18 496.451 198.318C504.248 202.575 511.863 207.139 519.761 211.198L520.26 211.462C522.774 212.829 525.566 214.871 528.04 215.99C534.79 219.043 541.861 221.884 548.721 224.682C574.143 235.054 595.618 242.268 623.42 240.67C619.342 227.451 614.748 213.905 606.575 202.561C599.939 193.357 587.659 181.48 578.915 174.031C569.682 166.165 559.578 159.486 550.157 151.874C537.287 141.472 504.436 112.068 501.713 96.4248C500.147 87.4373 504.702 77.7527 509.772 70.6151C516.629 60.961 526.426 51.856 537.99 48.3494C541.167 47.3856 544.425 47.0706 547.683 46.5209ZM410.765 44.6046C414.636 44.461 435.455 44.1747 437.202 46.5719L436.81 47.0903C433.247 49.0727 418.436 51.3089 413.897 50.9739C413.235 54.7432 411.686 59.1383 410.921 63.0768C407.29 81.7978 405.218 99.5626 414.96 117.054C419.992 126.083 427.908 138.171 438.311 141.035L438.724 141.145C447.446 143.401 458.755 141.808 466.973 138.524C470.432 137.142 474.62 134.773 477.956 132.967C486.787 112.97 474.397 86.2249 467.093 67.2779C465.07 62.0343 461.627 54.7472 460.469 49.4793C458.368 49.5817 451.058 49.5255 449.386 48.7076L449.784 48.2837C456.164 46.0271 471.605 47.0473 478.323 48.5591C475.405 49.545 473.155 49.8946 470.111 50.0745C478.938 62.7792 488.405 80.1499 492.675 95.0948C495.314 104.335 495.589 114.507 490.651 123.057C487.75 128.086 484.359 131.088 480.76 135.238C468.807 149.028 454.294 158.992 436.56 163.772C429.156 165.768 419.433 166.429 412.431 162.283C402.786 156.572 395.178 139.768 392.335 129.316C386.739 108.763 393.385 82.7012 402.546 63.9157C404.488 59.9356 408.427 55.0532 410.865 50.9555C407.559 50.8566 404.631 51.3925 401.123 51.2294C396.406 58.9338 391.083 63.6658 385.086 70.1321C378.492 77.2439 372.151 83.4423 365.171 90.1226C359.874 95.1916 356.165 99.9177 349.999 104.536C366.451 140.263 382.284 176.439 400.403 211.364C404.08 218.448 408.139 225.316 411.812 232.411C417.787 228.539 428.343 227.674 435.277 226.218C438.519 225.536 448.163 222.508 450.559 224.452C450.679 225.146 450.844 225.609 450.439 226.253C446.876 231.907 368.636 277.107 358.632 281.474C355.425 282.872 351.597 282.947 348.164 283.562C355.438 276.993 359.306 272.016 367.962 265.763C366.636 261.962 365.554 255.121 364.769 251.112C363.45 244.511 362.042 237.928 360.551 231.364C354.369 205.448 347.745 179.639 340.684 153.949C337.994 143.762 333.97 130.906 331.904 120.95C320.606 132.321 305.311 142.116 292.405 151.567L292.303 151.641C269.445 168.379 188.952 227.321 172.454 178.063L172.263 177.477C170.35 171.452 169.69 165.098 170.324 158.808C171.876 142.078 179.704 132.575 187.454 118.54L188.204 117.167C197.961 99.8416 211.647 82.9065 228.002 71.3034C241.206 62.8101 252.108 53.9488 267.153 48.6212C278.545 44.587 305.711 42.3122 294.194 63.2695C286.817 76.6921 271.299 85.9964 258.843 94.5461C242.972 105.44 227.402 112.785 208.63 118.034C204.326 127.145 201.514 137.684 204.4 147.734L204.644 148.557C215.237 182.988 255.717 166.494 277.611 154.297C283.168 151.531 287.967 148.576 292.554 144.318C304.606 133.13 317.608 121.983 328.903 110.064C323.872 93.4955 319.12 72.7763 315.604 55.8715C314.087 57.3039 308.804 60.386 307.98 57.1756C308.24 56.3327 308.784 55.6993 309.49 55.1766C315.346 50.8391 323.027 50.4829 329.926 49.0916C330.918 48.8913 331.576 48.6991 332.6 48.7999L332.92 49.2754C331.967 50.5026 326.611 51.5019 324.598 52.14C332.077 65.3078 338.73 80.1136 345.126 93.9021C350.848 87.5087 356.842 81.4852 362.743 75.2719C370.309 67.3008 379.96 56.6791 389.063 50.5471C387.491 50.235 385.3 50.0162 384.295 48.8168L384.496 48.2305C387.881 45.8207 405.87 45.0162 410.765 44.6046ZM503.75 130.615C504.01 130.165 504.26 129.713 504.5 129.26C506.677 131.753 508.938 134.208 511.209 136.578C521.915 147.752 533.845 158.136 540.65 163.636L540.651 163.638C545.666 167.69 550.861 171.491 555.594 175.003C560.443 178.601 564.915 181.972 569.108 185.544C577.54 192.728 588.734 203.675 594.307 211.406C597.231 215.465 599.647 219.968 601.789 224.886C586.344 222.922 571.868 217.791 554.433 210.678L549.24 208.562C544.094 206.461 539.094 204.39 534.274 202.21L534.272 202.209L533.998 202.072C533.645 201.883 533.026 201.522 531.902 200.821C530.773 200.117 528.694 198.784 526.67 197.745C518.889 193.746 512.382 189.789 503.786 185.093L503.785 185.092C503.783 185.091 503.781 185.09 503.78 185.089L503.785 185.092L503.786 185.093L503.788 185.094C503.788 185.094 503.788 185.094 503.786 185.093C503.785 185.092 503.783 185.09 503.78 185.089C503.778 185.088 503.777 185.087 503.775 185.086C503.74 185.064 503.634 184.995 503.443 184.862C503.438 184.858 503.433 184.855 503.428 184.852C503.07 184.602 502.635 184.281 502.028 183.825C501.079 183.111 499.164 181.635 497.369 180.513L497.367 180.511L495.786 179.53C494.988 179.039 494.206 178.566 493.442 178.104C494.295 177.207 496.505 174.713 497.589 171.078C498.349 168.526 498.422 165.819 497.801 163.23C496.381 157.311 492.236 152.827 486.959 150.81C488.755 148.984 490.498 147.094 492.188 145.143C494.405 142.587 499.886 137.314 503.751 130.615L503.75 130.615ZM410.229 197.386C405.282 187.647 400.5 177.825 395.81 167.933C398.406 170.743 401.37 173.309 404.726 175.296L405.305 175.631C411.328 179.038 417.895 180.311 424.031 180.45C421.415 183.285 419.197 186.154 417.371 188.552C414.563 192.238 412.739 194.711 410.763 196.792C410.579 196.986 410.401 197.184 410.229 197.386ZM287.855 92.5581C293.591 87.9823 299.608 82.3919 304.383 75.4949C306.651 85.5241 309.209 96.0327 311.916 105.78C302.663 114.908 292.639 123.604 282.265 133.235C279.081 136.19 275.632 138.387 270.872 140.757C270.767 140.809 270.663 140.862 270.559 140.917L270.25 141.085C259.62 147.007 246.182 152.909 235.223 153.878C229.949 154.344 226.618 153.537 224.596 152.37C222.992 151.445 220.745 149.479 219.094 144.092L218.937 143.559C217.917 140.009 218.222 135.611 219.912 130.439C237.203 124.905 252.249 117.416 267.402 107.015C273.062 103.13 280.93 98.0824 287.855 92.5581ZM435.984 63.2651C437.345 62.9297 439.38 62.3966 441.445 61.5777C441.863 61.8357 442.295 62.0757 442.741 62.294C445.529 63.6571 448.477 64.0493 449.482 64.1734C451.033 68.0322 451.945 70.0332 452.981 72.7175C456.934 82.9708 461.297 93.0374 463.908 103.419C465.892 111.305 466.354 117.607 465.429 122.539C464.092 123.24 462.891 123.836 461.82 124.29L461.361 124.48C455.108 126.979 447.042 127.753 442.326 126.454C441.271 126.164 439.092 124.961 436.049 121.45C433.151 118.107 430.507 113.883 428.173 109.695C421.284 97.3261 422.186 84.425 425.767 65.9612C425.817 65.7056 425.873 65.4424 425.935 65.1674C426.7 65.0566 427.44 64.9436 428.141 64.8299C430.775 64.4025 433.521 63.8722 435.984 63.2651ZM375.627 101.049L375.628 101.048C375.713 100.967 375.797 100.886 375.882 100.805C374.923 108.922 374.852 117.167 376.044 125.147L375.815 124.643L375.803 124.618L375.776 124.558C373.327 119.182 370.873 113.792 368.403 108.39C371.35 105.46 373.832 102.767 375.627 101.049ZM139.674 88.2233C138.816 89.8193 137.971 91.42 137.135 93.0233L136.906 85.0308C137.688 86.2392 138.623 87.3087 139.674 88.2233ZM564.223 92.4806C557.24 87.3611 552.692 82.3466 550.361 77.1004C551.009 77.3061 551.679 77.5427 552.369 77.813C557.585 79.8544 562.018 83.0725 564.438 85.886L564.441 85.8897C564.764 86.2647 565.067 86.6193 565.353 86.9553C564.954 87.9908 564.608 89.1682 564.404 90.4631C564.298 91.1365 564.238 91.8105 564.223 92.4806ZM210.752 64.4548C211.758 63.935 212.892 63.3858 214.158 62.788C212.128 64.3948 210.144 66.0667 208.208 67.7956C208.539 67.1441 208.888 66.4676 209.259 65.7848C209.412 65.5038 209.553 65.2508 209.681 65.0256C209.992 64.8538 210.348 64.6638 210.752 64.4548ZM353.3 52.8556C353.65 52.7628 354.084 52.6417 354.583 52.4856C356.987 53.4285 359.476 53.9676 361.924 54.2254C358.057 58.1415 354.579 61.9035 351.776 64.8572C351.005 65.6683 350.218 66.4909 349.418 67.3245C347.987 64.332 346.523 61.3278 345.022 58.3446C346.041 56.9857 346.803 55.4949 347.307 53.9382C349.08 53.7351 351.198 53.4125 353.3 52.8556ZM248.359 21.1728C248.333 18.037 247.942 11.1597 249.58 8.71035C251.289 9.89782 253.203 21.986 253.444 24.99C253.794 29.3312 255.323 35.6061 252.423 39.2669C251.463 40.4779 249.71 41.1807 248.435 40.111C247.199 37.3129 247.701 27.1945 247.908 23.8572C244.147 24.9884 236.775 25.6273 232.635 26.1228C233.384 29.2424 233.987 33.28 233.58 36.4622C232.24 37.9873 229.696 40.5859 227.567 40.0659C226.178 37.7447 228.176 19.9446 228.341 16.2184C228.397 14.9673 228.562 12.9864 229.611 12.1472L230.274 12.4825C231.296 13.8547 232.282 22.5095 232.601 24.7315C236.191 23.595 244.844 21.5779 248.359 21.1728ZM344.63 12.1553C346.342 12.0121 348.2 11.6167 349.59 12.5571C352.306 17.4895 334.934 33.1615 331.067 36.8794C335.381 36.7517 349.765 33.8789 352.343 36.3876L352.261 36.9488C349.817 39.1286 341.035 39.2998 337.806 39.3031C334.191 39.1799 330.168 39.9659 326.271 39.9795C329.697 34.9359 345.605 21.5556 345.538 15.9083C343.09 14.2597 331.278 16.7241 329.234 15.7067C330.808 14.2013 342.011 12.5752 344.63 12.1553ZM370.74 13.7571C379.386 12.3039 386.515 19.7558 382.21 28.1123C379.562 33.2558 372.517 37.4816 367.174 39.2462C348.148 40.4006 355.906 20.9342 365.677 14.8744C366.189 14.5561 368.653 14.7836 370.594 13.8295L370.74 13.7571ZM316.126 38.7884C314.611 36.2278 315.322 15.941 316.151 12.4522C317.661 12.6359 318.248 13.4309 318.55 14.9187C319.887 21.4908 321.004 28.3631 321.542 35.0428C321.618 35.9949 320.281 36.9939 319.607 37.5869C318.367 38.3504 317.513 39.0402 316.126 38.7884ZM421.515 24.4376C416.273 18.9974 425.814 14.5205 429.983 13.4159C431.753 13.51 434.483 13.8776 435.254 15.7731C432.735 17.5708 427.376 13.3109 425.249 17.7567C425.564 22.4773 438.515 25.2046 437.617 31.4022C437.179 34.4239 431.921 37.1474 429.214 37.8941C426.844 38.5483 424.377 38.0209 422.024 37.5743C420.28 37.1466 418.649 36.984 417.644 35.5302C417.287 32.4304 421.362 30.5375 423.859 29.6106C427.363 31.5921 428.258 32.6887 432.311 34.0385C429.247 29.1667 425.266 28.3269 421.515 24.4376ZM407.153 27.2209C408.356 21.5694 409.218 14.3966 413.767 10.626L414.227 10.8778C415.997 15.0425 414.279 27.3497 413.378 32.0217C411.478 33.5171 407.999 35.674 405.889 37.0744C402.533 34.0855 395.846 25.3491 392.519 21.4018C392.25 25.5615 392.085 31.3539 390.918 35.1972C389.958 35.9147 388.768 36.6907 387.767 37.3845C387.199 37.6626 387.147 37.6364 386.496 37.6179C386.094 36.8248 386.36 32.7553 386.548 31.7153C387.2 28.0671 387.158 15.7507 390.588 13.9971L391.048 14.2053L391.232 15.7916C392.428 16.85 392.552 13.069 396.825 17.0942C400.306 20.3706 403.746 23.8625 407.153 27.2209ZM274.789 34.0533C279.689 31.7358 280.054 13.7887 267.281 13.6722C263.224 19.3736 261.968 27.1502 268.336 32.0121C270.209 33.4423 272.039 33.6861 274.232 33.9784C274.415 34.0028 274.601 34.0275 274.789 34.0533ZM302.988 19.1524C301.305 14.9518 297.625 13.6685 293.561 13.026C292.895 17.1027 292.707 21.598 292.534 25.7421L292.525 25.9604C295.151 24.2016 296.522 23.8905 299.633 23.2546C301.392 22.8515 303.83 21.2528 302.988 19.1524Z" fill="var(--fill-0, black)"/>
<path fill-rule="evenodd" clip-rule="evenodd" d="M452.729 32.2905C456.87 31.8038 461.062 31.7936 464.372 31.891C470.479 32.0709 477.045 32.7695 481.644 33.8044C488.257 35.2929 493.072 41.0001 493.426 47.7697C493.575 50.6313 492.912 53.387 491.611 55.7792C493.131 58.4068 494.622 61.1168 496.058 63.8773C496.527 63.1679 496.99 62.4932 497.442 61.8568C505.222 50.903 517.231 39.0992 532.854 34.1087L533.601 33.8761C537.985 32.5465 543.251 31.9283 545.138 31.6126C547.107 31.2661 549.082 31.2423 549.775 31.2339L549.846 31.2331C551.056 31.2176 552.221 31.2425 552.778 31.2545H552.779C570.407 31.6359 589.484 37.5747 604.068 48.6662C605.074 49.4302 606.147 50.3271 607.231 51.2856C607.823 51.0924 608.443 50.9174 609.088 50.7716C612.268 50.0528 618.649 49.5508 624.278 54.2579L624.546 54.4861L624.781 54.6951C627.187 56.8767 628.829 59.7773 629.459 62.969C630.946 70.501 626.994 75.866 626.772 76.2194C626.76 76.2379 626.749 76.2563 626.737 76.2748L626.715 76.3087C618.984 88.432 607.14 98.8433 593.448 104.526L593.408 104.547C593.312 104.598 593.115 104.703 592.773 104.889L592.677 104.941C592.04 105.288 590.781 105.975 589.399 106.573C589.227 106.647 589.039 106.726 588.835 106.809C595.087 110.003 601.881 113.393 607.691 116.804C612.486 119.539 619.591 123.839 626.397 128.3C632.908 132.569 640.297 137.724 644.764 142.014C653.883 150.771 662.397 162.671 668.809 175.201C675.147 187.586 680.032 201.762 680.79 215.257C682.661 238.601 671.763 257.61 658.755 271.941C646.433 285.67 627.781 300.104 607.788 305.493L607.787 305.493C601.25 307.254 592.18 307.855 584.323 307.842C576.461 307.829 567.379 307.198 560.814 305.411L560.812 305.41C532.466 297.688 496.117 275.339 475.391 256.63C468.876 251.273 463.056 245.869 457.74 240.083C456.779 240.844 455.733 241.619 454.672 242.377C451.857 244.387 448.215 246.797 444.134 249.402C435.931 254.637 425.336 261.053 414.642 267.369C393.756 279.703 370.739 292.691 364.682 295.335L364.679 295.336C361.254 296.83 357.946 297.433 355.745 297.766C352.489 298.258 352.617 298.129 350.831 298.449C344.186 299.64 337.556 296.282 334.584 290.22C331.612 284.159 333.017 276.862 338.027 272.337C341.697 269.024 345.806 264.615 351.036 259.989C350.534 257.4 350.151 255.163 349.926 254.016C348.642 247.593 347.271 241.184 345.82 234.793C339.683 209.071 333.11 183.456 326.102 157.957L326.093 157.927C326.083 157.888 326.072 157.849 326.062 157.811C325.308 154.958 324.353 151.578 323.33 147.961C315.488 153.834 307.637 159.158 301.34 163.769L300.941 164.061C289.503 172.438 262.446 192.254 235.72 203.6C222.43 209.242 207.045 213.77 192.796 212.048C185.337 211.146 177.874 208.488 171.445 203.15C167.422 199.809 164.174 195.726 161.64 191.05C157.916 202.312 154.368 213.504 151.257 224.487C149.526 230.643 148.037 236.866 146.795 243.14L146.726 243.542C146.647 244.03 146.537 244.802 146.348 246.11C146.131 247.604 145.843 249.548 145.471 251.503C145.116 253.372 144.589 255.78 143.779 258.088C143.373 259.248 142.765 260.763 141.856 262.322C141.055 263.698 139.486 266.046 136.765 267.994L136.498 268.181C133.116 270.505 121.756 279.165 108.497 288.632C102.262 293.085 95.8447 297.534 90.5717 300.849C87.9754 302.481 85.3359 304.042 82.9757 305.209C81.8219 305.779 80.3558 306.446 78.7694 306.958L78.7202 306.974C77.7531 307.286 74.0419 308.487 69.6433 307.556C66.9618 306.988 64.4845 305.703 62.4772 303.836C58.788 300.406 57.5125 296.091 57.0686 294.512C56.4401 292.276 56.0737 289.918 55.8339 287.782C55.3476 283.45 55.1848 278.155 55.1966 272.537C55.2204 261.197 55.9692 246.841 56.963 232.551C57.9426 218.466 59.1859 204.111 60.2721 192.33C59.5206 192.579 58.8184 192.79 58.2059 192.964C56.9138 193.332 55.5707 193.667 54.6915 193.891C53.666 194.154 53.2016 194.284 52.9775 194.357C47.7688 196.123 42.6374 198.109 37.5973 200.31C36.5569 200.778 35.6226 201.26 33.9677 202.074C32.6888 202.704 31.0324 203.503 29.1994 204.232L28.4033 204.539C25.9915 205.442 22.7219 205.96 21.006 206.187C19.8779 206.337 18.4673 206.486 17.0515 206.526C16.3596 206.545 15.3659 206.548 14.2534 206.44L14.2345 206.438C13.5323 206.371 10.9428 206.12 8.16025 204.677C2.178 201.574 -1.02864 194.886 0.296252 188.278C1.05507 184.494 2.92831 181.813 4.05287 180.41C5.28242 178.876 6.59983 177.668 7.6064 176.82C9.59109 175.148 11.8504 173.65 13.4123 172.63C14.7059 171.785 15.6253 171.197 16.3832 170.692C16.607 170.136 16.8533 169.518 17.1098 168.856C17.8058 167.061 18.8139 164.375 19.3304 163.088L19.3769 162.974C21.7308 157.244 24.1805 151.554 26.7247 145.905C35.7322 125.726 45.1438 105.728 54.9536 85.9259C56.2457 83.289 58.7998 78.0189 61.4662 72.9199C63.775 68.5049 67.2485 62.0552 70.3648 58.4465L70.4202 58.3823C72.5164 55.9822 74.9075 53.8558 77.5361 52.0528C81.9255 49.0064 86.5207 46.455 90.4594 44.2907C94.6398 41.9937 98.0626 40.1393 101.217 38.0809L102.163 37.4732C103.203 36.8172 104.51 36.0386 105.936 35.3434C107.706 34.4802 110.751 33.1894 114.498 32.9426C118.785 32.6605 123.921 33.7937 128.185 37.7183C131.732 40.983 133.359 44.9927 134.167 48.0954L134.317 48.7039L134.526 49.6203C135.981 56.2545 136.34 63.3391 136.494 69.263C136.979 68.4219 137.55 67.619 138.206 66.8674C143.692 60.5813 149.725 55.9085 154.478 51.993L155.492 51.163C166.045 42.5718 179.251 33.4776 195.806 30.2546C196.4 30.139 197.726 29.8488 199.948 29.3773C201.998 28.942 204.542 28.4119 207.076 27.9291C208.77 27.6064 210.589 27.2803 212.326 27.0149V15.124C212.326 6.77128 219.097 5.76824e-05 227.45 5.76824e-05H437.605C445.957 5.76824e-05 452.729 6.77128 452.729 15.124V32.2905ZM198.697 45.1001C201.738 44.5083 218.43 40.6514 220.053 41.7076C220.103 42.1392 220.254 42.7496 219.865 43.0073C215.026 46.2099 203.895 50.2841 199.391 53.6516L199.221 53.7772C197.494 55.0742 194.288 61.8319 193.188 64.025C180.414 89.4995 170.562 117.197 161.497 144.227C153.193 168.986 143.81 195.283 136.706 220.365C134.855 226.942 133.266 233.591 131.942 240.294C131.272 243.793 130.405 254.018 127.933 255.716L127.209 256.224C118.645 262.311 77.4969 293.759 72.7759 292.76C66.0142 286.473 75.1181 195.591 77.3781 172.306L77.7326 168.595L81.6103 126.665C82.3588 118.413 83.38 105.273 84.7828 97.2843C79.4184 105.977 73.8429 116.592 68.7985 125.62L39.5904 178.218C43.1367 177.521 56.7724 174.246 59.1415 175.587L59.1275 176.154L58.9244 176.331C56.717 178.139 51.2198 179.012 48.2239 179.999C42.5384 181.924 36.938 184.091 31.4384 186.496C28.677 187.735 25.9135 189.321 23.0988 190.376C21.8188 190.855 16.1562 191.786 15.1248 191.251C15.831 187.731 27.3206 182.702 28.8781 179.794L28.983 179.601C30.0629 177.584 32.3836 171.17 33.3666 168.721C35.663 163.131 38.0532 157.58 40.5357 152.07C49.4695 132.055 58.8044 112.221 68.5349 92.581C71.1951 87.1517 78.3387 72.353 81.8112 68.3317C83.0761 66.8834 84.5195 65.6002 86.1061 64.5138C93.4567 59.4015 101.995 55.6323 109.482 50.7465C113.552 48.0903 118.064 45.6911 119.599 52.1828C121.445 59.9942 121.291 68.6438 121.534 76.6292L122.545 111.783L123.576 140.253C123.745 144.227 124.355 154.224 124.082 157.878C136.515 128.408 149.286 99.1036 166.645 72.112L165.714 70.9371C156.999 75.223 158.756 74.7181 149.601 76.8116C154.066 71.6957 158.893 67.9515 164.094 63.6668C174.324 55.2403 185.432 47.6824 198.697 45.1001ZM547.683 46.5209C548.707 46.2993 551.353 46.3511 552.452 46.3747C567.222 46.6943 583.13 51.741 594.917 60.707C597.942 63.0061 602.407 67.5024 605.127 70.3485C606.881 68.6882 612.34 63.9138 614.622 65.8985L614.651 66.0757C614.763 66.9075 614.437 67.4254 614.009 68.1057L613.964 68.1774L613.371 69.0872C607.146 78.4439 597.841 86.3802 587.458 90.6381C585.179 91.5737 581.593 94.4577 579.344 92.8188C579.623 91.0506 583.234 87.938 584.673 86.5506C581.938 83.5683 581.279 82.3346 576.843 77.1211L575.904 76.0237C567.403 66.1417 549.534 57.8493 536.336 61.8361C535.438 62.108 533.503 72.3872 533.934 74.789C539.154 103.921 577.658 116.684 600.127 129.9C609.179 135.06 627.632 146.528 634.287 152.922L635.01 153.625C650.169 168.574 664.568 195.126 665.698 216.241C667.192 233.913 659.114 249.043 647.556 261.775C636.394 274.233 620.087 286.514 603.852 290.89L603.416 291.004C594.069 293.351 573.857 293.287 564.787 290.818C539.141 283.831 504.634 262.745 485.266 245.172C470.788 233.307 460.375 221.573 451.139 205.324C449.084 201.706 446.283 197.082 444.662 193.317C436.943 198.22 430.106 203.764 421.732 207.205C427.113 201.536 431.516 193.896 437.605 188.224C448.867 177.733 465.384 172.495 478.822 165.2C480.439 164.322 482.599 164.69 483.095 166.758C482.398 169.096 469.657 176.689 466.85 178.42L467.08 178.626C473.369 184.166 482.235 188.886 489.348 193.334C491.549 194.711 494.367 197.18 496.451 198.318C504.248 202.575 511.863 207.139 519.761 211.198L520.26 211.462C522.774 212.829 525.566 214.871 528.04 215.99C534.79 219.043 541.861 221.884 548.721 224.682C574.143 235.054 595.618 242.268 623.42 240.67C619.342 227.451 614.748 213.905 606.575 202.561C599.939 193.357 587.659 181.48 578.915 174.031C569.682 166.165 559.578 159.486 550.157 151.874C537.287 141.472 504.436 112.068 501.713 96.4248C500.147 87.4373 504.702 77.7527 509.772 70.6151C516.629 60.961 526.426 51.856 537.99 48.3494C541.167 47.3856 544.425 47.0706 547.683 46.5209ZM410.765 44.6046C414.636 44.461 435.455 44.1747 437.202 46.5719L436.81 47.0903C433.247 49.0727 418.436 51.3089 413.897 50.9739C413.235 54.7432 411.686 59.1383 410.921 63.0768C407.29 81.7978 405.218 99.5626 414.96 117.054C419.992 126.083 427.908 138.171 438.311 141.035L438.724 141.145C447.446 143.401 458.755 141.808 466.973 138.524C470.432 137.142 474.62 134.773 477.956 132.967C486.787 112.97 474.397 86.2249 467.093 67.2779C465.07 62.0343 461.627 54.7472 460.469 49.4793C458.368 49.5817 451.058 49.5255 449.386 48.7076L449.784 48.2837C456.164 46.0271 471.605 47.0473 478.323 48.5591C475.405 49.545 473.155 49.8946 470.111 50.0745C478.938 62.7792 488.405 80.1499 492.675 95.0948C495.314 104.335 495.589 114.507 490.651 123.057C487.75 128.086 484.359 131.088 480.76 135.238C468.807 149.028 454.294 158.992 436.56 163.772C429.156 165.768 419.433 166.429 412.431 162.283C402.786 156.572 395.178 139.768 392.335 129.316C386.739 108.763 393.385 82.7012 402.546 63.9157C404.488 59.9356 408.427 55.0532 410.865 50.9555C407.559 50.8566 404.631 51.3925 401.123 51.2294C396.406 58.9338 391.083 63.6658 385.086 70.1321C378.492 77.2439 372.151 83.4423 365.171 90.1226C359.874 95.1916 356.165 99.9177 349.999 104.536C366.451 140.263 382.284 176.439 400.403 211.364C404.08 218.448 408.139 225.316 411.812 232.411C417.787 228.539 428.343 227.674 435.277 226.218C438.519 225.536 448.163 222.508 450.559 224.452C450.679 225.146 450.844 225.609 450.439 226.253C446.876 231.907 368.636 277.107 358.632 281.474C355.425 282.872 351.597 282.947 348.164 283.562C355.438 276.993 359.306 272.016 367.962 265.763C366.636 261.962 365.554 255.121 364.769 251.112C363.45 244.511 362.042 237.928 360.551 231.364C354.369 205.448 347.745 179.639 340.684 153.949C337.994 143.762 333.97 130.906 331.904 120.95C320.606 132.321 305.311 142.116 292.405 151.567L292.303 151.641C269.445 168.379 188.952 227.321 172.454 178.063L172.263 177.477C170.35 171.452 169.69 165.098 170.324 158.808C171.876 142.078 179.704 132.575 187.454 118.54L188.204 117.167C197.961 99.8416 211.647 82.9065 228.002 71.3034C241.206 62.8101 252.108 53.9488 267.153 48.6212C278.545 44.587 305.711 42.3122 294.194 63.2695C286.817 76.6921 271.299 85.9964 258.843 94.5461C242.972 105.44 227.402 112.785 208.63 118.034C204.326 127.145 201.514 137.684 204.4 147.734L204.644 148.557C215.237 182.988 255.717 166.494 277.611 154.297C283.168 151.531 287.967 148.576 292.554 144.318C304.606 133.13 317.608 121.983 328.903 110.064C323.872 93.4955 319.12 72.7763 315.604 55.8715C314.087 57.3039 308.804 60.386 307.98 57.1756C308.24 56.3327 308.784 55.6993 309.49 55.1766C315.346 50.8391 323.027 50.4829 329.926 49.0916C330.918 48.8913 331.576 48.6991 332.6 48.7999L332.92 49.2754C331.967 50.5026 326.611 51.5019 324.598 52.14C332.077 65.3078 338.73 80.1136 345.126 93.9021C350.848 87.5087 356.842 81.4852 362.743 75.2719C370.309 67.3008 379.96 56.6791 389.063 50.5471C387.491 50.235 385.3 50.0162 384.295 48.8168L384.496 48.2305C387.881 45.8207 405.87 45.0162 410.765 44.6046ZM503.75 130.615C504.01 130.165 504.26 129.713 504.5 129.26C506.677 131.753 508.938 134.208 511.209 136.578C521.915 147.752 533.845 158.136 540.65 163.636L540.651 163.638C545.666 167.69 550.861 171.491 555.594 175.003C560.443 178.601 564.915 181.972 569.108 185.544C577.54 192.728 588.734 203.675 594.307 211.406C597.231 215.465 599.647 219.968 601.789 224.886C586.344 222.922 571.868 217.791 554.433 210.678L549.24 208.562C544.094 206.461 539.094 204.39 534.274 202.21L534.272 202.209L533.998 202.072C533.645 201.883 533.026 201.522 531.902 200.821C530.773 200.117 528.694 198.784 526.67 197.745C518.889 193.746 512.382 189.789 503.786 185.093C503.788 185.094 503.788 185.094 503.788 185.094C503.788 185.094 503.786 185.092 503.78 185.089L503.785 185.092L503.786 185.093C503.784 185.091 503.782 185.09 503.778 185.087L503.78 185.089C503.786 185.092 503.788 185.094 503.788 185.094L503.785 185.092L503.78 185.089L503.778 185.087L503.775 185.086C503.74 185.064 503.634 184.995 503.443 184.862L503.428 184.852C503.07 184.602 502.635 184.281 502.028 183.825C501.079 183.111 499.164 181.635 497.369 180.513L497.367 180.511L495.786 179.53C494.988 179.039 494.206 178.566 493.442 178.104C494.295 177.207 496.505 174.713 497.589 171.078C498.349 168.526 498.422 165.819 497.801 163.23C496.381 157.311 492.236 152.827 486.959 150.81C488.755 148.984 490.498 147.094 492.188 145.143C494.405 142.587 499.886 137.314 503.751 130.615L503.75 130.615ZM410.229 197.386C405.282 187.647 400.5 177.825 395.81 167.933C398.406 170.743 401.37 173.309 404.726 175.296L405.305 175.631C411.328 179.038 417.895 180.311 424.031 180.45C421.415 183.285 419.197 186.154 417.371 188.552C414.563 192.238 412.739 194.711 410.763 196.792C410.579 196.986 410.401 197.184 410.229 197.386ZM287.855 92.5581C293.591 87.9823 299.608 82.3919 304.383 75.4949C306.651 85.5241 309.209 96.0327 311.916 105.78C302.663 114.908 292.639 123.604 282.265 133.235C279.081 136.19 275.632 138.387 270.872 140.757C270.767 140.809 270.663 140.862 270.559 140.917L270.25 141.085C259.62 147.007 246.182 152.909 235.223 153.878C229.949 154.344 226.618 153.537 224.596 152.37C222.992 151.445 220.745 149.479 219.094 144.092L218.937 143.559C217.917 140.009 218.222 135.611 219.912 130.439C237.203 124.905 252.249 117.416 267.402 107.015C273.062 103.13 280.93 98.0824 287.855 92.5581ZM435.984 63.2651C437.345 62.9297 439.38 62.3966 441.445 61.5777C441.863 61.8357 442.295 62.0757 442.741 62.294C445.529 63.6571 448.477 64.0493 449.482 64.1734C451.033 68.0322 451.945 70.0332 452.981 72.7175C456.934 82.9708 461.297 93.0374 463.908 103.419C465.892 111.305 466.354 117.607 465.429 122.539C464.092 123.24 462.891 123.836 461.82 124.29L461.361 124.48C455.108 126.979 447.042 127.753 442.326 126.454C441.271 126.164 439.092 124.961 436.049 121.45C433.151 118.107 430.507 113.883 428.173 109.695C421.284 97.3261 422.186 84.425 425.767 65.9612C425.817 65.7056 425.873 65.4424 425.935 65.1674C426.7 65.0566 427.44 64.9436 428.141 64.8299C430.775 64.4025 433.521 63.8722 435.984 63.2651ZM375.627 101.049L375.628 101.048C375.713 100.967 375.797 100.886 375.882 100.805C374.923 108.922 374.852 117.167 376.044 125.147L375.815 124.643L375.803 124.618L375.776 124.558C373.327 119.182 370.873 113.792 368.403 108.39C371.35 105.46 373.832 102.767 375.627 101.049ZM139.674 88.2233C138.816 89.8193 137.971 91.42 137.135 93.0233L136.906 85.0308C137.688 86.2392 138.623 87.3087 139.674 88.2233ZM564.223 92.4806C557.24 87.3611 552.692 82.3466 550.361 77.1004C551.009 77.3061 551.679 77.5427 552.369 77.813C557.585 79.8544 562.018 83.0725 564.438 85.886L564.441 85.8897C564.764 86.2647 565.067 86.6193 565.353 86.9553C564.954 87.9908 564.608 89.1682 564.404 90.4631C564.298 91.1365 564.238 91.8105 564.223 92.4806ZM210.752 64.4548C211.758 63.935 212.892 63.3858 214.158 62.788C212.128 64.3948 210.144 66.0667 208.208 67.7956C208.539 67.1441 208.888 66.4676 209.259 65.7848C209.412 65.5038 209.553 65.2508 209.681 65.0256C209.992 64.8538 210.348 64.6638 210.752 64.4548ZM353.3 52.8556C353.65 52.7628 354.084 52.6417 354.583 52.4856C356.987 53.4285 359.476 53.9676 361.924 54.2254C358.057 58.1415 354.579 61.9035 351.776 64.8572C351.005 65.6683 350.218 66.4909 349.418 67.3245C347.987 64.332 346.523 61.3278 345.022 58.3446C346.041 56.9857 346.803 55.4949 347.307 53.9382C349.08 53.7351 351.198 53.4125 353.3 52.8556ZM248.359 21.1728C248.333 18.037 247.942 11.1597 249.58 8.71035C251.289 9.89782 253.203 21.986 253.444 24.99C253.794 29.3312 255.323 35.6061 252.423 39.2669C251.463 40.4779 249.71 41.1807 248.435 40.111C247.199 37.3129 247.701 27.1945 247.908 23.8572C244.147 24.9884 236.775 25.6273 232.635 26.1228C233.384 29.2424 233.987 33.28 233.58 36.4622C232.24 37.9873 229.696 40.5859 227.567 40.0659C226.178 37.7447 228.176 19.9446 228.341 16.2184C228.397 14.9673 228.562 12.9864 229.611 12.1472L230.274 12.4825C231.296 13.8547 232.282 22.5095 232.601 24.7315C236.191 23.595 244.844 21.5779 248.359 21.1728ZM344.63 12.1553C346.342 12.0121 348.2 11.6167 349.59 12.5571C352.306 17.4895 334.934 33.1615 331.067 36.8794C335.381 36.7517 349.765 33.8789 352.343 36.3876L352.261 36.9488C349.817 39.1286 341.035 39.2998 337.806 39.3031C334.191 39.1799 330.168 39.9659 326.271 39.9795C329.697 34.9359 345.605 21.5556 345.538 15.9083C343.09 14.2597 331.278 16.7241 329.234 15.7067C330.808 14.2013 342.011 12.5752 344.63 12.1553ZM370.74 13.7571C379.386 12.3039 386.515 19.7558 382.21 28.1123C379.562 33.2558 372.517 37.4816 367.174 39.2462C348.148 40.4006 355.906 20.9342 365.677 14.8744C366.189 14.5561 368.653 14.7836 370.594 13.8295L370.74 13.7571ZM316.126 38.7884C314.611 36.2278 315.322 15.941 316.151 12.4522C317.661 12.6359 318.248 13.4309 318.55 14.9187C319.887 21.4908 321.004 28.3631 321.542 35.0428C321.618 35.9949 320.281 36.9939 319.607 37.5869C318.367 38.3504 317.513 39.0402 316.126 38.7884ZM421.515 24.4376C416.273 18.9974 425.814 14.5205 429.983 13.4159C431.753 13.51 434.483 13.8776 435.254 15.7731C432.735 17.5708 427.376 13.3109 425.249 17.7567C425.564 22.4773 438.515 25.2046 437.617 31.4022C437.179 34.4239 431.921 37.1474 429.214 37.8941C426.844 38.5483 424.377 38.0209 422.024 37.5743C420.28 37.1466 418.649 36.984 417.644 35.5302C417.287 32.4304 421.362 30.5375 423.859 29.6106C427.363 31.5921 428.258 32.6887 432.311 34.0385C429.247 29.1667 425.266 28.3269 421.515 24.4376ZM407.153 27.2209C408.356 21.5694 409.218 14.3966 413.767 10.626L414.227 10.8778C415.997 15.0425 414.279 27.3497 413.378 32.0217C411.478 33.5171 407.999 35.674 405.889 37.0744C402.533 34.0855 395.846 25.3491 392.519 21.4018C392.25 25.5615 392.085 31.3539 390.918 35.1972C389.958 35.9147 388.768 36.6907 387.767 37.3845C387.199 37.6626 387.147 37.6364 386.496 37.6179C386.094 36.8248 386.36 32.7553 386.548 31.7153C387.2 28.0671 387.158 15.7507 390.588 13.9971L391.048 14.2053L391.232 15.7916C392.428 16.85 392.552 13.069 396.825 17.0942C400.306 20.3706 403.746 23.8625 407.153 27.2209ZM274.789 34.0533C279.689 31.7358 280.054 13.7887 267.281 13.6722C263.224 19.3736 261.968 27.1502 268.336 32.0121C270.209 33.4423 272.039 33.6861 274.232 33.9784C274.415 34.0028 274.601 34.0275 274.789 34.0533ZM302.988 19.1524C301.305 14.9518 297.625 13.6685 293.561 13.026C292.895 17.1027 292.707 21.598 292.534 25.7421L292.525 25.9604C295.151 24.2016 296.522 23.8905 299.633 23.2546C301.392 22.8515 303.83 21.2528 302.988 19.1524Z" fill="var(--fill-0, black)"/>
</g>
<g id="Vector">
<path d="M547.683 46.5217C548.708 46.3 551.353 46.3515 552.452 46.3752C567.222 46.6947 583.13 51.7414 594.918 60.7075C597.942 63.0065 602.406 67.5026 605.126 70.3487C606.88 68.6884 612.34 63.9143 614.622 65.899C614.813 66.8677 614.444 67.4134 613.964 68.1776C607.746 77.9284 598.176 86.2431 587.458 90.6383C585.179 91.5739 581.593 94.4583 579.344 92.8194C579.622 91.0512 583.234 87.9387 584.673 86.5513C581.756 83.3701 581.201 82.1784 575.904 76.024C567.404 66.1421 549.534 57.85 536.337 61.8369C535.439 62.1088 533.503 72.3875 533.934 74.7893C539.154 103.921 577.658 116.685 600.127 129.901C609.179 135.061 627.632 146.529 634.287 152.922C649.709 167.73 664.55 194.791 665.698 216.242C667.193 233.913 659.114 249.044 647.556 261.776C636.394 274.233 620.088 286.515 603.852 290.89C594.713 293.353 574.001 293.327 564.787 290.818C539.141 283.832 504.634 262.745 485.267 245.172C470.789 233.307 460.376 221.574 451.139 205.324C449.084 201.706 446.283 197.083 444.662 193.318C436.943 198.221 430.106 203.764 421.732 207.205C427.114 201.536 431.516 193.896 437.605 188.224C448.867 177.733 465.384 172.496 478.822 165.201C480.44 164.323 482.599 164.691 483.095 166.758C482.398 169.097 469.657 176.69 466.85 178.421L467.08 178.627C473.369 184.167 482.236 188.887 489.348 193.334C491.55 194.711 494.367 197.181 496.451 198.319C504.248 202.576 511.863 207.14 519.761 211.199C522.4 212.554 525.402 214.796 528.041 215.99C534.79 219.043 541.861 221.884 548.721 224.682C574.144 235.055 595.618 242.268 623.42 240.671C619.342 227.451 614.748 213.905 606.576 202.561C599.939 193.357 587.659 181.481 578.916 174.032C569.683 166.165 559.578 159.486 550.157 151.874C537.286 141.473 504.436 112.069 501.713 96.4255C500.147 87.438 504.702 77.7533 509.772 70.6157C516.629 60.9616 526.426 51.8564 537.99 48.3498C541.167 47.386 544.425 47.0713 547.683 46.5217Z" fill="var(--fill-0, #F4F3F3)"/>
<path d="M410.765 44.6047C414.636 44.4611 435.455 44.175 437.203 46.5722L436.81 47.0904C433.247 49.0729 418.435 51.3097 413.897 50.9746C413.235 54.744 411.686 59.1389 410.92 63.0775C407.29 81.7986 405.218 99.5633 414.96 117.055C419.991 126.083 427.908 138.171 438.311 141.036C447.087 143.452 458.625 141.861 466.973 138.525C470.432 137.142 474.621 134.774 477.956 132.967C486.787 112.971 474.397 86.2252 467.093 67.2783C465.07 62.0346 461.627 54.7479 460.47 49.4799C458.369 49.5823 451.058 49.5259 449.386 48.7079L449.784 48.2844C456.164 46.0278 471.606 47.0477 478.323 48.5595C475.405 49.5454 473.155 49.8951 470.111 50.0749C478.939 62.7797 488.405 80.1503 492.675 95.0951C495.314 104.335 495.589 114.508 490.652 123.057C487.75 128.086 484.359 131.088 480.761 135.238C468.808 149.028 454.294 158.993 436.561 163.773C429.156 165.769 419.434 166.429 412.431 162.283C402.787 156.572 395.178 139.769 392.335 129.317C386.739 108.764 393.385 82.7018 402.547 63.9163C404.489 59.9362 408.427 55.0535 410.865 50.9558C407.559 50.8569 404.631 51.393 401.123 51.23C396.407 58.9344 391.083 63.6664 385.086 70.1328C378.492 77.2445 372.151 83.4423 365.171 90.1227C359.874 95.1917 356.165 99.9178 349.999 104.536C366.451 140.263 382.285 176.44 400.404 211.365C404.08 218.449 408.139 225.316 411.812 232.411C417.787 228.539 428.342 227.674 435.277 226.219C438.519 225.537 448.163 222.508 450.559 224.452C450.679 225.146 450.844 225.61 450.439 226.253C446.876 231.908 368.636 277.107 358.632 281.474C355.426 282.873 351.597 282.947 348.164 283.562C355.439 276.993 359.306 272.017 367.962 265.763C366.636 261.962 365.553 255.121 364.769 251.112C363.449 244.512 362.042 237.928 360.551 231.364C354.369 205.448 347.746 179.64 340.685 153.949C337.994 143.763 333.971 130.907 331.904 120.951C320.606 132.322 305.311 142.116 292.405 151.567C269.595 168.269 188.342 227.86 172.263 177.478C170.35 171.452 169.69 165.099 170.324 158.809C171.926 141.539 180.215 131.97 188.204 117.168C197.961 99.842 211.647 82.9066 228.003 71.3034C241.206 62.8101 252.108 53.949 267.154 48.6214C278.546 44.5872 305.711 42.3125 294.194 63.27C286.817 76.6926 271.3 85.9968 258.843 94.5464C242.972 105.44 227.403 112.786 208.63 118.034C204.326 127.145 201.515 137.684 204.4 147.734C214.599 183.249 255.545 166.591 277.611 154.297C283.168 151.531 287.968 148.576 292.554 144.319C304.607 133.13 317.608 121.984 328.903 110.064C323.872 93.4961 319.12 72.777 315.604 55.8722C314.087 57.3046 308.805 60.3866 307.98 57.1763C308.241 56.3333 308.784 55.6997 309.49 55.177C315.346 50.8394 323.027 50.483 329.926 49.0917C330.918 48.8914 331.576 48.6992 332.6 48.8L332.92 49.2757C331.968 50.503 326.611 51.5025 324.597 52.1406C332.077 65.3085 338.73 80.1143 345.126 93.9028C350.848 87.5093 356.842 81.4855 362.743 75.2722C370.309 67.301 379.96 56.6794 389.064 50.5474C387.491 50.2354 385.3 50.0169 384.295 48.8175L384.496 48.2309C387.88 45.821 405.87 45.0163 410.765 44.6047ZM244.231 65.5172C227.741 79.9344 220.855 93.9751 211.292 112.997C214.785 111.635 219.934 110.077 222.961 108.77C240.576 101.764 263.207 93.9806 271.552 75.3862C273.188 71.7406 273.202 68.6336 270.858 65.3263C265.953 62.6478 263.071 62.9035 257.613 63.0629C253.073 63.7195 248.706 64.8191 244.231 65.5172Z" fill="var(--fill-0, #F4F3F3)"/>
<path d="M149.601 76.8122C154.066 71.6962 158.893 67.9517 164.094 63.667C174.324 55.2405 185.432 47.6829 198.697 45.1006C201.737 44.5088 218.43 40.6519 220.053 41.708C220.103 42.1397 220.255 42.7503 219.865 43.0079C215.027 46.2106 203.895 50.2846 199.391 53.6522L199.221 53.7776C197.494 55.0746 194.288 61.8324 193.189 64.0255C180.414 89.5001 170.562 117.197 161.497 144.228C153.193 168.987 143.81 195.283 136.706 220.366C134.855 226.943 133.266 233.591 131.942 240.294C131.271 243.792 130.405 254.018 127.934 255.716C121.337 260.249 77.6482 293.792 72.7759 292.761C65.5634 286.054 76.403 183.097 77.7325 168.595L81.6104 126.665C82.359 118.414 83.3799 105.274 84.7826 97.2849C79.4183 105.978 73.8432 116.593 68.7988 125.621L39.5904 178.218C43.1366 177.521 56.773 174.246 59.1418 175.587L59.1275 176.154C57.0741 178.083 51.3165 178.981 48.2241 179.999C42.5384 181.924 36.9381 184.092 31.4384 186.497C28.677 187.736 25.9138 189.322 23.099 190.376C21.8191 190.855 16.1564 191.787 15.1249 191.252C15.8309 187.731 27.3205 182.703 28.878 179.795L28.9828 179.602C30.0627 177.585 32.3837 171.171 33.3667 168.721C35.6632 163.131 38.0532 157.58 40.5357 152.07C49.4696 132.055 58.8047 112.222 68.5352 92.5812C71.1955 87.1518 78.339 72.3528 81.8114 68.3319C83.0764 66.8836 84.5194 65.6008 86.106 64.5145C93.4567 59.4021 101.995 55.633 109.482 50.7471C113.553 48.0909 118.065 45.6914 119.599 52.1834C121.446 59.9948 121.291 68.6443 121.535 76.6298L122.545 111.783L123.576 140.253C123.745 144.227 124.355 154.225 124.082 157.878C136.516 128.409 149.286 99.104 166.645 72.1123L169.235 68.853L165.714 70.9372C156.999 75.2232 158.757 74.7186 149.601 76.8122Z" fill="var(--fill-0, #F4F3F3)"/>
<path d="M273.318 9.45602C282.36 9.84181 284.472 19.5373 282.749 26.8099C281.188 33.4031 273.96 37.821 267.669 39.0298C252.841 38.099 255.756 23.296 263.495 15.7022C266.6 12.6561 269.387 11.2931 273.318 9.45602ZM274.789 34.0535C279.69 31.736 280.054 13.7889 267.281 13.6724C263.224 19.374 261.968 27.1508 268.337 32.0127C270.366 33.5622 272.344 33.7187 274.789 34.0535Z" fill="var(--fill-0, #F4F3F3)"/>
<path d="M370.74 13.7573C379.387 12.3041 386.515 19.7565 382.21 28.113C379.562 33.2566 372.517 37.4823 367.174 39.2469C348.148 40.4013 355.905 20.9348 365.677 14.875C366.189 14.5565 368.653 14.7841 370.595 13.8297L370.74 13.7573ZM373.068 34.3867C375.162 33.1791 376.31 31.0755 376.952 28.6549C378.313 23.4972 375.127 18.3272 369.813 17.3741C368.056 17.059 365.962 17.3189 364.107 17.4467C362.123 19.3313 360.425 24.1025 360.399 26.8105C360.327 33.8681 367.787 34.4421 373.068 34.3867Z" fill="var(--fill-0, #F4F3F3)"/>
<path d="M291.507 10.3713C291.987 10.9388 291.822 11.4021 291.849 12.3134C292.688 12.6968 296.137 10.7301 297.569 10.7407C302.404 10.7763 311.484 12.6276 307.419 19.4495C305.867 22.0556 302.436 23.8754 299.86 25.4003C306.838 27.6797 313.284 33.9446 304.797 39.3134C299.839 36.5201 304.026 31.3574 292.253 28.7116C292.24 31.5269 292.212 33.3451 291.863 36.1205C291.087 36.6562 288.284 38.8328 287.503 38.5599C286.753 35.285 289.237 13.4206 291.507 10.3713ZM292.525 25.9607C295.151 24.2019 296.523 23.891 299.633 23.2551C301.393 22.852 303.83 21.2533 302.989 19.1529C301.305 14.9522 297.625 13.6692 293.561 13.0267C292.884 17.1751 292.701 21.7565 292.525 25.9607Z" fill="var(--fill-0, #F4F3F3)"/>
<path d="M413.767 10.6262L414.227 10.8786C415.997 15.0433 414.279 27.3501 413.378 32.0221C411.478 33.5175 407.999 35.6746 405.889 37.0749C402.534 34.0862 395.846 25.3496 392.519 21.4022C392.25 25.562 392.085 31.3545 390.918 35.1978C389.958 35.9154 388.769 36.6912 387.767 37.3851C387.199 37.6631 387.148 37.6369 386.496 37.6184C386.094 36.8257 386.36 32.7555 386.548 31.7156C387.199 28.0673 387.157 15.7511 390.587 13.9975L391.048 14.2058L391.232 15.7923C392.429 16.8507 392.552 13.0695 396.825 17.0948C400.307 20.3712 403.746 23.863 407.153 27.2215C408.356 21.5699 409.218 14.3968 413.767 10.6262Z" fill="var(--fill-0, #F4F3F3)"/>
<path d="M249.581 8.71078C251.289 9.89829 253.203 21.9873 253.445 24.9907C253.794 29.3319 255.323 35.6062 252.423 39.267C251.463 40.4781 249.71 41.1814 248.435 40.1116C247.199 37.3135 247.701 27.1943 247.908 23.8573C244.147 24.9885 236.775 25.628 232.636 26.1235C233.384 29.2431 233.987 33.2802 233.58 36.4624C232.24 37.9876 229.696 40.5867 227.567 40.0666C226.178 37.7455 228.176 19.9451 228.342 16.2189C228.397 14.9678 228.562 12.9869 229.611 12.1477L230.274 12.4833C231.296 13.8555 232.282 22.5099 232.601 24.7319C236.19 23.5954 244.844 21.578 248.359 21.173C248.333 18.0371 247.942 11.1601 249.581 8.71078Z" fill="var(--fill-0, #F4F3F3)"/>
<path d="M429.983 13.4162C431.753 13.5103 434.483 13.8777 435.254 15.7733C432.735 17.5712 427.376 13.3114 425.25 17.7572C425.564 22.4779 438.516 25.205 437.618 31.4025C437.18 34.4243 431.922 37.1475 429.215 37.8942C426.845 38.5485 424.378 38.0216 422.024 37.575C420.28 37.1472 418.649 36.9845 417.644 35.5307C417.288 32.4308 421.363 30.5378 423.859 29.611C427.363 31.5924 428.258 32.6894 432.311 34.0392C429.247 29.1673 425.266 28.3276 421.515 24.4383C416.273 18.998 425.814 14.5208 429.983 13.4162Z" fill="var(--fill-0, #F4F3F3)"/>
<path d="M344.63 12.1557C346.342 12.0125 348.199 11.6169 349.59 12.5573C352.307 17.4895 334.934 33.1619 331.067 36.8798C335.381 36.7521 349.765 33.8791 352.343 36.3879L352.262 36.9495C349.817 39.1293 341.035 39.3004 337.806 39.3037C334.191 39.1805 330.168 39.9661 326.271 39.9797C329.697 34.936 345.606 21.5557 345.538 15.9085C343.09 14.2599 331.278 16.7246 329.234 15.7071C330.809 14.2018 342.011 12.5755 344.63 12.1557Z" fill="var(--fill-0, #F4F3F3)"/>
<path d="M316.151 12.4528C317.661 12.6364 318.248 13.4313 318.55 14.9192C319.887 21.4913 321.004 28.3632 321.542 35.0429C321.618 35.9951 320.281 36.9939 319.607 37.587C318.367 38.3505 317.513 39.0408 316.126 38.789C314.611 36.2294 315.322 15.9417 316.151 12.4528Z" fill="var(--fill-0, #F4F3F3)"/>
<path d="M165.714 70.9372L169.235 68.853L166.645 72.1123L165.714 70.9372Z" fill="var(--fill-0, #F4F3F3)"/>
</g>
</g>
</svg>
